M48
;DRILL file {Pcbnew (2013-07-07 BZR 4022)-stable} date 08-Nov-13 6:42:16 PM
;FORMAT={-:-/ absolute / metric / decimal}
FMAT,2
METRIC,TZ
T1C0.560
T2C0.600
T3C0.813
T4C1.000
T5C1.143
T6C4.000
%
G90
G05
M71
T1
X146.431Y-127.247
X146.431Y-142.247
X148.971Y-127.247
X148.971Y-142.247
X151.511Y-127.247
X151.511Y-142.247
X154.051Y-127.247
X154.051Y-142.247
X156.591Y-127.247
X156.591Y-142.247
X159.131Y-127.247
X159.131Y-142.247
X161.671Y-127.247
X161.671Y-142.247
X164.211Y-127.247
X164.211Y-142.247
X166.751Y-127.247
X166.751Y-142.247
X169.291Y-127.247
X169.291Y-142.247
X171.831Y-127.247
X171.831Y-142.247
X174.371Y-127.247
X174.371Y-142.247
X176.911Y-127.247
X176.911Y-142.247
X179.451Y-127.247
X179.451Y-142.247
X181.991Y-127.247
X181.991Y-142.247
X184.531Y-127.247
X184.531Y-142.247
X187.071Y-127.247
X187.071Y-142.247
X189.611Y-127.247
X189.611Y-142.247
X192.151Y-127.247
X192.151Y-142.247
X194.691Y-127.247
X194.691Y-142.247
T2
X122.993Y-119.238
X122.993Y-134.478
X132.969Y-115.316
X132.969Y-117.856
X132.969Y-120.396
X132.969Y-122.936
X132.969Y-125.476
X147.38Y-132.5
X148.082Y-110.109
X150.622Y-110.109
X153.162Y-110.109
X155.702Y-110.109
X158.242Y-110.109
X160.782Y-110.109
X162.62Y-132.5
X163.322Y-110.109
X165.862Y-110.109
X173.802Y-135.9
X173.858Y-131.542
X174.158Y-152.491
X174.158Y-167.731
X175.641Y-110.109
X176.342Y-135.9
X176.398Y-131.542
X178.181Y-110.109
X180.721Y-110.109
X181.864Y-154.813
X183.261Y-110.109
X183.947Y-161.737
X183.947Y-166.817
X184.404Y-154.813
X185.801Y-110.109
X186.944Y-154.813
X188.341Y-110.109
X189.398Y-161.696
X189.484Y-154.813
X190.881Y-110.109
X191.38Y-130.
X191.38Y-133.
X191.38Y-136.
X191.38Y-139.
X192.024Y-154.813
X193.045Y-168.016
X193.421Y-110.109
X194.564Y-154.813
X195.585Y-168.016
X197.104Y-154.813
X199.08Y-168.016
X199.644Y-154.813
X201.62Y-168.016
X204.638Y-161.696
X206.62Y-130.
X206.62Y-133.
X206.62Y-136.
X206.62Y-139.
T3
X132.Y-142.73
X132.Y-145.27
X139.Y-109.73
X139.Y-112.27
X145.522Y-118.298
X147.218Y-166.258
X148.062Y-118.298
X149.758Y-166.258
X150.602Y-118.298
X152.298Y-166.258
X153.142Y-118.298
X154.838Y-166.258
X155.682Y-118.298
X157.378Y-166.258
X158.222Y-118.298
X159.918Y-166.258
X160.762Y-118.298
X162.458Y-166.258
X163.302Y-118.298
X164.998Y-166.258
X165.842Y-118.298
X167.538Y-166.258
X170.078Y-166.258
X171.907Y-147.31
X174.447Y-147.31
T4
X122.752Y-140.906
X122.752Y-145.906
X122.752Y-154.597
X122.752Y-159.597
T5
X136.44Y-151.496
X136.46Y-156.54
X141.54Y-151.46
X141.54Y-156.54
T6
X122.8Y-109.9
X122.85Y-170.55
X210.6Y-109.8
X210.6Y-170.55
T0
M30
