G04 (created by PCBNEW (2013-07-07 BZR 4022)-stable) date 08-Nov-13 6:42:12 PM*
%MOIN*%
G04 Gerber Fmt 3.4, Leading zero omitted, Abs format*
%FSLAX34Y34*%
G01*
G70*
G90*
G04 APERTURE LIST*
%ADD10C,0.00590551*%
%ADD11C,0.011811*%
%ADD12C,0.012*%
%ADD13C,0.008*%
%ADD14C,0.003*%
%ADD15C,0.01*%
%ADD16C,0.006*%
%ADD17C,0.005*%
%ADD18C,0.0125*%
%ADD19C,0.015*%
%ADD20C,0.000393701*%
%ADD21C,0.0107*%
%ADD22C,0.0035*%
%ADD23C,0.00492126*%
%ADD24C,0.0075*%
G04 APERTURE END LIST*
G54D10*
G54D11*
X54194Y-63447D02*
X53997Y-63166D01*
X53856Y-63447D02*
X53856Y-62857D01*
X54081Y-62857D01*
X54138Y-62885D01*
X54166Y-62913D01*
X54194Y-62969D01*
X54194Y-63053D01*
X54166Y-63110D01*
X54138Y-63138D01*
X54081Y-63166D01*
X53856Y-63166D01*
X54419Y-63419D02*
X54503Y-63447D01*
X54644Y-63447D01*
X54700Y-63419D01*
X54728Y-63391D01*
X54756Y-63335D01*
X54756Y-63278D01*
X54728Y-63222D01*
X54700Y-63194D01*
X54644Y-63166D01*
X54531Y-63138D01*
X54475Y-63110D01*
X54447Y-63082D01*
X54419Y-63025D01*
X54419Y-62969D01*
X54447Y-62913D01*
X54475Y-62885D01*
X54531Y-62857D01*
X54672Y-62857D01*
X54756Y-62885D01*
X54925Y-62857D02*
X55262Y-62857D01*
X55094Y-63447D02*
X55094Y-62857D01*
X51417Y-43536D02*
X51417Y-42945D01*
X51642Y-42945D01*
X51698Y-42973D01*
X51726Y-43001D01*
X51754Y-43058D01*
X51754Y-43142D01*
X51726Y-43198D01*
X51698Y-43226D01*
X51642Y-43255D01*
X51417Y-43255D01*
X51951Y-42945D02*
X52092Y-43536D01*
X52204Y-43114D01*
X52317Y-43536D01*
X52457Y-42945D01*
X53020Y-43536D02*
X52823Y-43255D01*
X52682Y-43536D02*
X52682Y-42945D01*
X52907Y-42945D01*
X52964Y-42973D01*
X52992Y-43001D01*
X53020Y-43058D01*
X53020Y-43142D01*
X52992Y-43198D01*
X52964Y-43226D01*
X52907Y-43255D01*
X52682Y-43255D01*
X65618Y-58132D02*
X65618Y-57542D01*
X65618Y-57823D02*
X65956Y-57823D01*
X65956Y-58132D02*
X65956Y-57542D01*
X66434Y-57823D02*
X66518Y-57851D01*
X66546Y-57879D01*
X66574Y-57935D01*
X66574Y-58020D01*
X66546Y-58076D01*
X66518Y-58104D01*
X66462Y-58132D01*
X66237Y-58132D01*
X66237Y-57542D01*
X66434Y-57542D01*
X66490Y-57570D01*
X66518Y-57598D01*
X66546Y-57654D01*
X66546Y-57710D01*
X66518Y-57767D01*
X66490Y-57795D01*
X66434Y-57823D01*
X66237Y-57823D01*
X54714Y-46242D02*
X54911Y-46833D01*
X55108Y-46242D01*
X55642Y-46777D02*
X55614Y-46805D01*
X55530Y-46833D01*
X55473Y-46833D01*
X55389Y-46805D01*
X55333Y-46749D01*
X55305Y-46692D01*
X55276Y-46580D01*
X55276Y-46496D01*
X55305Y-46383D01*
X55333Y-46327D01*
X55389Y-46271D01*
X55473Y-46242D01*
X55530Y-46242D01*
X55614Y-46271D01*
X55642Y-46299D01*
X56233Y-46777D02*
X56205Y-46805D01*
X56120Y-46833D01*
X56064Y-46833D01*
X55980Y-46805D01*
X55923Y-46749D01*
X55895Y-46692D01*
X55867Y-46580D01*
X55867Y-46496D01*
X55895Y-46383D01*
X55923Y-46327D01*
X55980Y-46271D01*
X56064Y-46242D01*
X56120Y-46242D01*
X56205Y-46271D01*
X56233Y-46299D01*
X49970Y-45140D02*
X50167Y-45731D01*
X50364Y-45140D01*
X50898Y-45674D02*
X50870Y-45703D01*
X50785Y-45731D01*
X50729Y-45731D01*
X50645Y-45703D01*
X50589Y-45646D01*
X50561Y-45590D01*
X50532Y-45478D01*
X50532Y-45393D01*
X50561Y-45281D01*
X50589Y-45224D01*
X50645Y-45168D01*
X50729Y-45140D01*
X50785Y-45140D01*
X50870Y-45168D01*
X50898Y-45196D01*
X51489Y-45674D02*
X51460Y-45703D01*
X51376Y-45731D01*
X51320Y-45731D01*
X51235Y-45703D01*
X51179Y-45646D01*
X51151Y-45590D01*
X51123Y-45478D01*
X51123Y-45393D01*
X51151Y-45281D01*
X51179Y-45224D01*
X51235Y-45168D01*
X51320Y-45140D01*
X51376Y-45140D01*
X51460Y-45168D01*
X51489Y-45196D01*
X49697Y-57501D02*
X49641Y-57473D01*
X49557Y-57473D01*
X49472Y-57501D01*
X49416Y-57557D01*
X49388Y-57613D01*
X49360Y-57726D01*
X49360Y-57810D01*
X49388Y-57923D01*
X49416Y-57979D01*
X49472Y-58035D01*
X49557Y-58063D01*
X49613Y-58063D01*
X49697Y-58035D01*
X49725Y-58007D01*
X49725Y-57810D01*
X49613Y-57810D01*
X49978Y-58063D02*
X49978Y-57473D01*
X50316Y-58063D01*
X50316Y-57473D01*
X50597Y-58063D02*
X50597Y-57473D01*
X50738Y-57473D01*
X50822Y-57501D01*
X50878Y-57557D01*
X50906Y-57613D01*
X50935Y-57726D01*
X50935Y-57810D01*
X50906Y-57923D01*
X50878Y-57979D01*
X50822Y-58035D01*
X50738Y-58063D01*
X50597Y-58063D01*
X49340Y-55199D02*
X49537Y-55790D01*
X49734Y-55199D01*
X50268Y-55733D02*
X50240Y-55762D01*
X50156Y-55790D01*
X50099Y-55790D01*
X50015Y-55762D01*
X49959Y-55705D01*
X49931Y-55649D01*
X49902Y-55537D01*
X49902Y-55452D01*
X49931Y-55340D01*
X49959Y-55284D01*
X50015Y-55227D01*
X50099Y-55199D01*
X50156Y-55199D01*
X50240Y-55227D01*
X50268Y-55255D01*
X50859Y-55733D02*
X50830Y-55762D01*
X50746Y-55790D01*
X50690Y-55790D01*
X50606Y-55762D01*
X50549Y-55705D01*
X50521Y-55649D01*
X50493Y-55537D01*
X50493Y-55452D01*
X50521Y-55340D01*
X50549Y-55284D01*
X50606Y-55227D01*
X50690Y-55199D01*
X50746Y-55199D01*
X50830Y-55227D01*
X50859Y-55255D01*
X49648Y-62550D02*
X49592Y-62522D01*
X49507Y-62522D01*
X49423Y-62550D01*
X49367Y-62606D01*
X49339Y-62663D01*
X49311Y-62775D01*
X49311Y-62859D01*
X49339Y-62972D01*
X49367Y-63028D01*
X49423Y-63084D01*
X49507Y-63113D01*
X49564Y-63113D01*
X49648Y-63084D01*
X49676Y-63056D01*
X49676Y-62859D01*
X49564Y-62859D01*
X49929Y-63113D02*
X49929Y-62522D01*
X50267Y-63113D01*
X50267Y-62522D01*
X50548Y-63113D02*
X50548Y-62522D01*
X50688Y-62522D01*
X50773Y-62550D01*
X50829Y-62606D01*
X50857Y-62663D01*
X50885Y-62775D01*
X50885Y-62859D01*
X50857Y-62972D01*
X50829Y-63028D01*
X50773Y-63084D01*
X50688Y-63113D01*
X50548Y-63113D01*
X49311Y-60475D02*
X49507Y-61065D01*
X49704Y-60475D01*
X50239Y-61009D02*
X50210Y-61037D01*
X50126Y-61065D01*
X50070Y-61065D01*
X49985Y-61037D01*
X49929Y-60981D01*
X49901Y-60925D01*
X49873Y-60812D01*
X49873Y-60728D01*
X49901Y-60615D01*
X49929Y-60559D01*
X49985Y-60503D01*
X50070Y-60475D01*
X50126Y-60475D01*
X50210Y-60503D01*
X50239Y-60531D01*
X50829Y-61009D02*
X50801Y-61037D01*
X50717Y-61065D01*
X50660Y-61065D01*
X50576Y-61037D01*
X50520Y-60981D01*
X50492Y-60925D01*
X50464Y-60812D01*
X50464Y-60728D01*
X50492Y-60615D01*
X50520Y-60559D01*
X50576Y-60503D01*
X50660Y-60475D01*
X50717Y-60475D01*
X50801Y-60503D01*
X50829Y-60531D01*
X56075Y-65701D02*
X55878Y-65420D01*
X55738Y-65701D02*
X55738Y-65111D01*
X55963Y-65111D01*
X56019Y-65139D01*
X56047Y-65167D01*
X56075Y-65223D01*
X56075Y-65307D01*
X56047Y-65364D01*
X56019Y-65392D01*
X55963Y-65420D01*
X55738Y-65420D01*
X56300Y-65532D02*
X56581Y-65532D01*
X56244Y-65701D02*
X56441Y-65111D01*
X56638Y-65701D01*
X56947Y-65111D02*
X57003Y-65111D01*
X57059Y-65139D01*
X57088Y-65167D01*
X57116Y-65223D01*
X57144Y-65336D01*
X57144Y-65476D01*
X57116Y-65589D01*
X57088Y-65645D01*
X57059Y-65673D01*
X57003Y-65701D01*
X56947Y-65701D01*
X56891Y-65673D01*
X56863Y-65645D01*
X56834Y-65589D01*
X56806Y-65476D01*
X56806Y-65336D01*
X56834Y-65223D01*
X56863Y-65167D01*
X56891Y-65139D01*
X56947Y-65111D01*
X69438Y-61115D02*
X69242Y-60833D01*
X69101Y-61115D02*
X69101Y-60524D01*
X69326Y-60524D01*
X69382Y-60552D01*
X69410Y-60580D01*
X69438Y-60636D01*
X69438Y-60721D01*
X69410Y-60777D01*
X69382Y-60805D01*
X69326Y-60833D01*
X69101Y-60833D01*
X70029Y-61058D02*
X70001Y-61086D01*
X69917Y-61115D01*
X69860Y-61115D01*
X69776Y-61086D01*
X69720Y-61030D01*
X69692Y-60974D01*
X69663Y-60861D01*
X69663Y-60777D01*
X69692Y-60665D01*
X69720Y-60608D01*
X69776Y-60552D01*
X69860Y-60524D01*
X69917Y-60524D01*
X70001Y-60552D01*
X70029Y-60580D01*
X70395Y-60524D02*
X70451Y-60524D01*
X70507Y-60552D01*
X70535Y-60580D01*
X70563Y-60636D01*
X70591Y-60749D01*
X70591Y-60890D01*
X70563Y-61002D01*
X70535Y-61058D01*
X70507Y-61086D01*
X70451Y-61115D01*
X70395Y-61115D01*
X70338Y-61086D01*
X70310Y-61058D01*
X70282Y-61002D01*
X70254Y-60890D01*
X70254Y-60749D01*
X70282Y-60636D01*
X70310Y-60580D01*
X70338Y-60552D01*
X70395Y-60524D01*
X77342Y-43634D02*
X77145Y-43353D01*
X77005Y-43634D02*
X77005Y-43044D01*
X77230Y-43044D01*
X77286Y-43072D01*
X77314Y-43100D01*
X77342Y-43156D01*
X77342Y-43241D01*
X77314Y-43297D01*
X77286Y-43325D01*
X77230Y-43353D01*
X77005Y-43353D01*
X77595Y-43634D02*
X77595Y-43044D01*
X77736Y-43044D01*
X77820Y-43072D01*
X77876Y-43128D01*
X77904Y-43184D01*
X77933Y-43297D01*
X77933Y-43381D01*
X77904Y-43494D01*
X77876Y-43550D01*
X77820Y-43606D01*
X77736Y-43634D01*
X77595Y-43634D01*
X78298Y-43044D02*
X78354Y-43044D01*
X78411Y-43072D01*
X78439Y-43100D01*
X78467Y-43156D01*
X78495Y-43269D01*
X78495Y-43409D01*
X78467Y-43522D01*
X78439Y-43578D01*
X78411Y-43606D01*
X78354Y-43634D01*
X78298Y-43634D01*
X78242Y-43606D01*
X78214Y-43578D01*
X78186Y-43522D01*
X78158Y-43409D01*
X78158Y-43269D01*
X78186Y-43156D01*
X78214Y-43100D01*
X78242Y-43072D01*
X78298Y-43044D01*
X66614Y-43683D02*
X66417Y-43402D01*
X66276Y-43683D02*
X66276Y-43093D01*
X66501Y-43093D01*
X66557Y-43121D01*
X66586Y-43149D01*
X66614Y-43205D01*
X66614Y-43290D01*
X66586Y-43346D01*
X66557Y-43374D01*
X66501Y-43402D01*
X66276Y-43402D01*
X67064Y-43374D02*
X67148Y-43402D01*
X67176Y-43430D01*
X67204Y-43487D01*
X67204Y-43571D01*
X67176Y-43627D01*
X67148Y-43655D01*
X67092Y-43683D01*
X66867Y-43683D01*
X66867Y-43093D01*
X67064Y-43093D01*
X67120Y-43121D01*
X67148Y-43149D01*
X67176Y-43205D01*
X67176Y-43262D01*
X67148Y-43318D01*
X67120Y-43346D01*
X67064Y-43374D01*
X66867Y-43374D01*
X67570Y-43093D02*
X67626Y-43093D01*
X67682Y-43121D01*
X67710Y-43149D01*
X67739Y-43205D01*
X67767Y-43318D01*
X67767Y-43458D01*
X67739Y-43571D01*
X67710Y-43627D01*
X67682Y-43655D01*
X67626Y-43683D01*
X67570Y-43683D01*
X67514Y-43655D01*
X67485Y-43627D01*
X67457Y-43571D01*
X67429Y-43458D01*
X67429Y-43318D01*
X67457Y-43205D01*
X67485Y-43149D01*
X67514Y-43121D01*
X67570Y-43093D01*
G54D10*
X56840Y-54040D02*
G75*
G03X56840Y-52040I-1000J1000D01*
G74*
G01*
X56800Y-50530D02*
X56800Y-55569D01*
X56800Y-55569D02*
X77500Y-55569D01*
X77500Y-50530D02*
X56800Y-50530D01*
X77500Y-50530D02*
X77500Y-55569D01*
G54D12*
X57460Y-65956D02*
X57460Y-64956D01*
X57460Y-64956D02*
X67460Y-64956D01*
X67460Y-64956D02*
X67460Y-65956D01*
X67460Y-65956D02*
X57460Y-65956D01*
X58460Y-65956D02*
X58460Y-64956D01*
G54D13*
X69300Y-58746D02*
X69300Y-57246D01*
G54D14*
X68987Y-57996D02*
G75*
G03X68987Y-57996I-707J0D01*
G74*
G01*
G54D15*
X69279Y-57245D02*
G75*
G03X69279Y-58746I-999J-750D01*
G74*
G01*
G54D16*
X68280Y-57546D02*
G75*
G03X67830Y-57996I0J-450D01*
G74*
G01*
X68280Y-58446D02*
G75*
G03X68730Y-57996I0J450D01*
G74*
G01*
X68280Y-57346D02*
G75*
G03X67630Y-57996I0J-650D01*
G74*
G01*
X68280Y-58646D02*
G75*
G03X68930Y-57996I0J650D01*
G74*
G01*
X68280Y-57146D02*
G75*
G03X67430Y-57996I0J-850D01*
G74*
G01*
X68280Y-58846D02*
G75*
G03X69130Y-57996I0J850D01*
G74*
G01*
G54D13*
X55474Y-42580D02*
X53974Y-42580D01*
G54D14*
X55431Y-43600D02*
G75*
G03X55431Y-43600I-707J0D01*
G74*
G01*
G54D15*
X53973Y-42601D02*
G75*
G03X55474Y-42601I750J-999D01*
G74*
G01*
G54D16*
X54274Y-43600D02*
G75*
G03X54724Y-44050I450J0D01*
G74*
G01*
X55174Y-43600D02*
G75*
G03X54724Y-43150I-450J0D01*
G74*
G01*
X54074Y-43600D02*
G75*
G03X54724Y-44250I650J0D01*
G74*
G01*
X55374Y-43600D02*
G75*
G03X54724Y-42950I-650J0D01*
G74*
G01*
X53874Y-43600D02*
G75*
G03X54724Y-44450I850J0D01*
G74*
G01*
X55574Y-43600D02*
G75*
G03X54724Y-42750I-850J0D01*
G74*
G01*
G54D12*
X65800Y-43850D02*
X57800Y-43850D01*
X57800Y-43850D02*
X57800Y-42850D01*
X57800Y-42850D02*
X65800Y-42850D01*
X65800Y-42850D02*
X65800Y-43850D01*
X64800Y-42850D02*
X64800Y-43850D01*
X71100Y-60450D02*
X79100Y-60450D01*
X79100Y-60450D02*
X79100Y-61450D01*
X79100Y-61450D02*
X71100Y-61450D01*
X71100Y-61450D02*
X71100Y-60450D01*
X72100Y-61450D02*
X72100Y-60450D01*
X76650Y-43850D02*
X68650Y-43850D01*
X68650Y-43850D02*
X68650Y-42850D01*
X68650Y-42850D02*
X76650Y-42850D01*
X76650Y-42850D02*
X76650Y-43850D01*
X75650Y-42850D02*
X75650Y-43850D01*
X63523Y-52665D02*
X58523Y-52665D01*
X58523Y-52665D02*
X58523Y-51665D01*
X58523Y-51665D02*
X63523Y-51665D01*
X58523Y-52165D02*
X58023Y-52165D01*
X64023Y-52165D02*
X63523Y-52165D01*
X63523Y-52365D02*
X63223Y-52665D01*
X63523Y-52665D02*
X63523Y-51665D01*
X80066Y-64160D02*
X75066Y-64160D01*
X75066Y-64160D02*
X75066Y-63160D01*
X75066Y-63160D02*
X80066Y-63160D01*
X75066Y-63660D02*
X74566Y-63660D01*
X80566Y-63660D02*
X80066Y-63660D01*
X80066Y-63860D02*
X79766Y-64160D01*
X80066Y-64160D02*
X80066Y-63160D01*
X68066Y-65536D02*
X68066Y-60536D01*
X68066Y-60536D02*
X69066Y-60536D01*
X69066Y-60536D02*
X69066Y-65536D01*
X68566Y-60536D02*
X68566Y-60036D01*
X68566Y-66036D02*
X68566Y-65536D01*
X68366Y-65536D02*
X68066Y-65236D01*
X68066Y-65536D02*
X69066Y-65536D01*
X47922Y-52444D02*
X47922Y-47444D01*
X47922Y-47444D02*
X48922Y-47444D01*
X48922Y-47444D02*
X48922Y-52444D01*
X48422Y-47444D02*
X48422Y-46944D01*
X48422Y-52944D02*
X48422Y-52444D01*
X48222Y-52444D02*
X47922Y-52144D01*
X47922Y-52444D02*
X48922Y-52444D01*
G54D13*
X52868Y-58917D02*
X56580Y-58917D01*
X56580Y-58917D02*
X56580Y-62342D01*
X56580Y-62342D02*
X52868Y-62342D01*
X52868Y-62342D02*
X52868Y-58917D01*
G54D17*
X52969Y-56692D02*
G75*
G03X52969Y-56692I-1001J0D01*
G74*
G01*
G54D18*
X71420Y-63426D02*
X71420Y-65926D01*
X73420Y-63426D02*
X73420Y-65926D01*
X72420Y-66926D02*
G75*
G03X73420Y-65926I0J1000D01*
G74*
G01*
X71420Y-65926D02*
G75*
G03X72420Y-66926I1000J0D01*
G74*
G01*
X73420Y-63426D02*
G75*
G03X72420Y-62426I-1000J0D01*
G74*
G01*
X72420Y-62426D02*
G75*
G03X71420Y-63426I0J-1000D01*
G74*
G01*
G54D12*
X67946Y-53004D02*
X69926Y-53004D01*
X69926Y-53004D02*
X69926Y-54004D01*
X69926Y-54004D02*
X67926Y-54004D01*
X67926Y-54004D02*
X67926Y-53004D01*
X67926Y-53254D02*
X68176Y-53004D01*
X67968Y-51288D02*
X69948Y-51288D01*
X69948Y-51288D02*
X69948Y-52288D01*
X69948Y-52288D02*
X67948Y-52288D01*
X67948Y-52288D02*
X67948Y-51288D01*
X67948Y-51538D02*
X68198Y-51288D01*
X75522Y-65648D02*
X77502Y-65648D01*
X77502Y-65648D02*
X77502Y-66648D01*
X77502Y-66648D02*
X75502Y-66648D01*
X75502Y-66648D02*
X75502Y-65648D01*
X75502Y-65898D02*
X75752Y-65648D01*
X79858Y-66648D02*
X77878Y-66648D01*
X77878Y-66648D02*
X77878Y-65648D01*
X77878Y-65648D02*
X79878Y-65648D01*
X79878Y-65648D02*
X79878Y-66648D01*
X79878Y-66398D02*
X79628Y-66648D01*
G54D19*
X49036Y-54687D02*
X49036Y-58230D01*
X49036Y-58230D02*
X47618Y-58230D01*
X47618Y-58230D02*
X47618Y-54687D01*
X47618Y-54687D02*
X49036Y-54687D01*
X49036Y-60077D02*
X49036Y-63620D01*
X49036Y-63620D02*
X47618Y-63620D01*
X47618Y-63620D02*
X47618Y-60077D01*
X47618Y-60077D02*
X49036Y-60077D01*
G54D12*
X51850Y-44900D02*
X52850Y-44900D01*
X52850Y-44900D02*
X52850Y-49900D01*
X52850Y-49900D02*
X51850Y-49900D01*
X51850Y-49900D02*
X51850Y-44900D01*
X51850Y-45900D02*
X52850Y-45900D01*
X56792Y-47074D02*
X56792Y-46074D01*
X56792Y-46074D02*
X65792Y-46074D01*
X65792Y-46074D02*
X65792Y-47074D01*
X56792Y-47074D02*
X65792Y-47074D01*
X64792Y-47074D02*
X64792Y-46074D01*
X75846Y-50681D02*
X80846Y-50681D01*
X80846Y-50681D02*
X80846Y-51681D01*
X80846Y-51681D02*
X75846Y-51681D01*
X80846Y-51181D02*
X81346Y-51181D01*
X75346Y-51181D02*
X75846Y-51181D01*
X75846Y-50981D02*
X76146Y-50681D01*
X75846Y-50681D02*
X75846Y-51681D01*
X75846Y-51862D02*
X80846Y-51862D01*
X80846Y-51862D02*
X80846Y-52862D01*
X80846Y-52862D02*
X75846Y-52862D01*
X80846Y-52362D02*
X81346Y-52362D01*
X75346Y-52362D02*
X75846Y-52362D01*
X75846Y-52162D02*
X76146Y-51862D01*
X75846Y-51862D02*
X75846Y-52862D01*
X75846Y-53043D02*
X80846Y-53043D01*
X80846Y-53043D02*
X80846Y-54043D01*
X80846Y-54043D02*
X75846Y-54043D01*
X80846Y-53543D02*
X81346Y-53543D01*
X75346Y-53543D02*
X75846Y-53543D01*
X75846Y-53343D02*
X76146Y-53043D01*
X75846Y-53043D02*
X75846Y-54043D01*
X75846Y-54224D02*
X80846Y-54224D01*
X80846Y-54224D02*
X80846Y-55224D01*
X80846Y-55224D02*
X75846Y-55224D01*
X80846Y-54724D02*
X81346Y-54724D01*
X75346Y-54724D02*
X75846Y-54724D01*
X75846Y-54524D02*
X76146Y-54224D01*
X75846Y-54224D02*
X75846Y-55224D01*
G54D20*
X83385Y-43228D02*
G75*
G03X83385Y-43228I-472J0D01*
G74*
G01*
X48818Y-43267D02*
G75*
G03X48818Y-43267I-472J0D01*
G74*
G01*
X48877Y-67145D02*
G75*
G03X48877Y-67145I-472J0D01*
G74*
G01*
X83129Y-67322D02*
G75*
G03X83129Y-67322I-472J0D01*
G74*
G01*
G54D10*
X67015Y-53671D02*
X67015Y-53990D01*
X67033Y-54027D01*
X67052Y-54046D01*
X67090Y-54065D01*
X67165Y-54065D01*
X67202Y-54046D01*
X67221Y-54027D01*
X67240Y-53990D01*
X67240Y-53671D01*
X67633Y-54065D02*
X67408Y-54065D01*
X67521Y-54065D02*
X67521Y-53671D01*
X67483Y-53727D01*
X67446Y-53765D01*
X67408Y-53784D01*
X65547Y-52869D02*
X65547Y-52475D01*
X65697Y-52475D01*
X65735Y-52494D01*
X65753Y-52513D01*
X65772Y-52550D01*
X65772Y-52606D01*
X65753Y-52644D01*
X65735Y-52663D01*
X65697Y-52681D01*
X65547Y-52681D01*
X65941Y-52869D02*
X65941Y-52475D01*
X66353Y-52831D02*
X66335Y-52850D01*
X66278Y-52869D01*
X66241Y-52869D01*
X66185Y-52850D01*
X66147Y-52813D01*
X66128Y-52775D01*
X66110Y-52700D01*
X66110Y-52644D01*
X66128Y-52569D01*
X66147Y-52531D01*
X66185Y-52494D01*
X66241Y-52475D01*
X66278Y-52475D01*
X66335Y-52494D01*
X66353Y-52513D01*
X66728Y-52869D02*
X66503Y-52869D01*
X66616Y-52869D02*
X66616Y-52475D01*
X66578Y-52531D01*
X66541Y-52569D01*
X66503Y-52588D01*
X66953Y-52644D02*
X66916Y-52625D01*
X66897Y-52606D01*
X66878Y-52569D01*
X66878Y-52550D01*
X66897Y-52513D01*
X66916Y-52494D01*
X66953Y-52475D01*
X67028Y-52475D01*
X67066Y-52494D01*
X67085Y-52513D01*
X67103Y-52550D01*
X67103Y-52569D01*
X67085Y-52606D01*
X67066Y-52625D01*
X67028Y-52644D01*
X66953Y-52644D01*
X66916Y-52663D01*
X66897Y-52681D01*
X66878Y-52719D01*
X66878Y-52794D01*
X66897Y-52831D01*
X66916Y-52850D01*
X66953Y-52869D01*
X67028Y-52869D01*
X67066Y-52850D01*
X67085Y-52831D01*
X67103Y-52794D01*
X67103Y-52719D01*
X67085Y-52681D01*
X67066Y-52663D01*
X67028Y-52644D01*
X67403Y-52663D02*
X67272Y-52663D01*
X67272Y-52869D02*
X67272Y-52475D01*
X67459Y-52475D01*
X67778Y-52606D02*
X67778Y-52869D01*
X67684Y-52456D02*
X67591Y-52738D01*
X67834Y-52738D01*
X68172Y-52475D02*
X67984Y-52475D01*
X67966Y-52663D01*
X67984Y-52644D01*
X68022Y-52625D01*
X68116Y-52625D01*
X68153Y-52644D01*
X68172Y-52663D01*
X68191Y-52700D01*
X68191Y-52794D01*
X68172Y-52831D01*
X68153Y-52850D01*
X68116Y-52869D01*
X68022Y-52869D01*
X67984Y-52850D01*
X67966Y-52831D01*
X68341Y-52513D02*
X68359Y-52494D01*
X68397Y-52475D01*
X68491Y-52475D01*
X68528Y-52494D01*
X68547Y-52513D01*
X68566Y-52550D01*
X68566Y-52588D01*
X68547Y-52644D01*
X68322Y-52869D01*
X68566Y-52869D01*
X68809Y-52475D02*
X68847Y-52475D01*
X68884Y-52494D01*
X68903Y-52513D01*
X68922Y-52550D01*
X68941Y-52625D01*
X68941Y-52719D01*
X68922Y-52794D01*
X68903Y-52831D01*
X68884Y-52850D01*
X68847Y-52869D01*
X68809Y-52869D01*
X68772Y-52850D01*
X68753Y-52831D01*
X68734Y-52794D01*
X68716Y-52719D01*
X68716Y-52625D01*
X68734Y-52550D01*
X68753Y-52513D01*
X68772Y-52494D01*
X68809Y-52475D01*
G54D21*
X59644Y-64731D02*
X59644Y-64050D01*
X59807Y-64050D01*
X59847Y-64083D01*
X59868Y-64115D01*
X59888Y-64180D01*
X59888Y-64277D01*
X59868Y-64342D01*
X59847Y-64374D01*
X59807Y-64407D01*
X59644Y-64407D01*
X60296Y-64731D02*
X60051Y-64731D01*
X60174Y-64731D02*
X60174Y-64050D01*
X60133Y-64147D01*
X60092Y-64212D01*
X60051Y-64245D01*
G54D12*
G54D15*
X63921Y-64641D02*
X63902Y-64670D01*
X63845Y-64698D01*
X63807Y-64698D01*
X63750Y-64670D01*
X63712Y-64613D01*
X63693Y-64556D01*
X63674Y-64441D01*
X63674Y-64356D01*
X63693Y-64241D01*
X63712Y-64184D01*
X63750Y-64127D01*
X63807Y-64098D01*
X63845Y-64098D01*
X63902Y-64127D01*
X63921Y-64156D01*
X64169Y-64098D02*
X64245Y-64098D01*
X64283Y-64127D01*
X64321Y-64184D01*
X64340Y-64298D01*
X64340Y-64498D01*
X64321Y-64613D01*
X64283Y-64670D01*
X64245Y-64698D01*
X64169Y-64698D01*
X64131Y-64670D01*
X64093Y-64613D01*
X64074Y-64498D01*
X64074Y-64298D01*
X64093Y-64184D01*
X64131Y-64127D01*
X64169Y-64098D01*
X64512Y-64698D02*
X64512Y-64098D01*
X64740Y-64698D01*
X64740Y-64098D01*
X64931Y-64698D02*
X64931Y-64098D01*
X65160Y-64698D01*
X65160Y-64098D01*
X65255Y-64756D02*
X65560Y-64756D01*
X65864Y-64698D02*
X65636Y-64698D01*
X65750Y-64698D02*
X65750Y-64098D01*
X65712Y-64184D01*
X65674Y-64241D01*
X65636Y-64270D01*
X66112Y-64098D02*
X66150Y-64098D01*
X66188Y-64127D01*
X66207Y-64156D01*
X66226Y-64213D01*
X66245Y-64327D01*
X66245Y-64470D01*
X66226Y-64584D01*
X66207Y-64641D01*
X66188Y-64670D01*
X66150Y-64698D01*
X66112Y-64698D01*
X66074Y-64670D01*
X66055Y-64641D01*
X66036Y-64584D01*
X66017Y-64470D01*
X66017Y-64327D01*
X66036Y-64213D01*
X66055Y-64156D01*
X66074Y-64127D01*
X66112Y-64098D01*
G54D12*
G54D22*
X67958Y-56617D02*
X67958Y-56317D01*
X68030Y-56317D01*
X68072Y-56331D01*
X68101Y-56360D01*
X68115Y-56388D01*
X68130Y-56446D01*
X68130Y-56488D01*
X68115Y-56546D01*
X68101Y-56574D01*
X68072Y-56603D01*
X68030Y-56617D01*
X67958Y-56617D01*
X68244Y-56346D02*
X68258Y-56331D01*
X68287Y-56317D01*
X68358Y-56317D01*
X68387Y-56331D01*
X68401Y-56346D01*
X68415Y-56374D01*
X68415Y-56403D01*
X68401Y-56446D01*
X68230Y-56617D01*
X68415Y-56617D01*
X67987Y-59617D02*
X67844Y-59617D01*
X67844Y-59317D01*
X68087Y-59460D02*
X68187Y-59460D01*
X68230Y-59617D02*
X68087Y-59617D01*
X68087Y-59317D01*
X68230Y-59317D01*
X68358Y-59617D02*
X68358Y-59317D01*
X68430Y-59317D01*
X68472Y-59331D01*
X68501Y-59360D01*
X68515Y-59388D01*
X68530Y-59446D01*
X68530Y-59488D01*
X68515Y-59546D01*
X68501Y-59574D01*
X68472Y-59603D01*
X68430Y-59617D01*
X68358Y-59617D01*
X53345Y-43922D02*
X53045Y-43922D01*
X53045Y-43850D01*
X53060Y-43807D01*
X53088Y-43779D01*
X53117Y-43765D01*
X53174Y-43750D01*
X53217Y-43750D01*
X53274Y-43765D01*
X53302Y-43779D01*
X53331Y-43807D01*
X53345Y-43850D01*
X53345Y-43922D01*
X53345Y-43465D02*
X53345Y-43636D01*
X53345Y-43550D02*
X53045Y-43550D01*
X53088Y-43579D01*
X53117Y-43607D01*
X53131Y-43636D01*
X56345Y-43893D02*
X56345Y-44036D01*
X56045Y-44036D01*
X56188Y-43793D02*
X56188Y-43693D01*
X56345Y-43650D02*
X56345Y-43793D01*
X56045Y-43793D01*
X56045Y-43650D01*
X56345Y-43522D02*
X56045Y-43522D01*
X56045Y-43450D01*
X56060Y-43407D01*
X56088Y-43379D01*
X56117Y-43365D01*
X56174Y-43350D01*
X56217Y-43350D01*
X56274Y-43365D01*
X56302Y-43379D01*
X56331Y-43407D01*
X56345Y-43450D01*
X56345Y-43522D01*
G54D21*
X63984Y-44625D02*
X63984Y-43944D01*
X64147Y-43944D01*
X64187Y-43977D01*
X64208Y-44009D01*
X64228Y-44074D01*
X64228Y-44171D01*
X64208Y-44236D01*
X64187Y-44268D01*
X64147Y-44301D01*
X63984Y-44301D01*
X64391Y-44009D02*
X64412Y-43977D01*
X64452Y-43944D01*
X64554Y-43944D01*
X64595Y-43977D01*
X64615Y-44009D01*
X64636Y-44074D01*
X64636Y-44139D01*
X64615Y-44236D01*
X64371Y-44625D01*
X64636Y-44625D01*
G54D12*
G54D15*
X58952Y-44535D02*
X58933Y-44564D01*
X58876Y-44592D01*
X58838Y-44592D01*
X58780Y-44564D01*
X58742Y-44507D01*
X58723Y-44450D01*
X58704Y-44335D01*
X58704Y-44250D01*
X58723Y-44135D01*
X58742Y-44078D01*
X58780Y-44021D01*
X58838Y-43992D01*
X58876Y-43992D01*
X58933Y-44021D01*
X58952Y-44050D01*
X59200Y-43992D02*
X59276Y-43992D01*
X59314Y-44021D01*
X59352Y-44078D01*
X59371Y-44192D01*
X59371Y-44392D01*
X59352Y-44507D01*
X59314Y-44564D01*
X59276Y-44592D01*
X59200Y-44592D01*
X59161Y-44564D01*
X59123Y-44507D01*
X59104Y-44392D01*
X59104Y-44192D01*
X59123Y-44078D01*
X59161Y-44021D01*
X59200Y-43992D01*
X59542Y-44592D02*
X59542Y-43992D01*
X59771Y-44592D01*
X59771Y-43992D01*
X59961Y-44592D02*
X59961Y-43992D01*
X60190Y-44592D01*
X60190Y-43992D01*
X60285Y-44650D02*
X60590Y-44650D01*
X60742Y-44250D02*
X60704Y-44221D01*
X60685Y-44192D01*
X60666Y-44135D01*
X60666Y-44107D01*
X60685Y-44050D01*
X60704Y-44021D01*
X60742Y-43992D01*
X60819Y-43992D01*
X60857Y-44021D01*
X60876Y-44050D01*
X60895Y-44107D01*
X60895Y-44135D01*
X60876Y-44192D01*
X60857Y-44221D01*
X60819Y-44250D01*
X60742Y-44250D01*
X60704Y-44278D01*
X60685Y-44307D01*
X60666Y-44364D01*
X60666Y-44478D01*
X60685Y-44535D01*
X60704Y-44564D01*
X60742Y-44592D01*
X60819Y-44592D01*
X60857Y-44564D01*
X60876Y-44535D01*
X60895Y-44478D01*
X60895Y-44364D01*
X60876Y-44307D01*
X60857Y-44278D01*
X60819Y-44250D01*
G54D12*
G54D21*
X72284Y-60225D02*
X72284Y-59544D01*
X72447Y-59544D01*
X72487Y-59577D01*
X72508Y-59609D01*
X72528Y-59674D01*
X72528Y-59771D01*
X72508Y-59836D01*
X72487Y-59868D01*
X72447Y-59901D01*
X72284Y-59901D01*
X72671Y-59544D02*
X72936Y-59544D01*
X72793Y-59804D01*
X72854Y-59804D01*
X72895Y-59836D01*
X72915Y-59868D01*
X72936Y-59933D01*
X72936Y-60095D01*
X72915Y-60160D01*
X72895Y-60193D01*
X72854Y-60225D01*
X72732Y-60225D01*
X72691Y-60193D01*
X72671Y-60160D01*
G54D12*
G54D15*
X76252Y-60135D02*
X76233Y-60164D01*
X76176Y-60192D01*
X76138Y-60192D01*
X76080Y-60164D01*
X76042Y-60107D01*
X76023Y-60050D01*
X76004Y-59935D01*
X76004Y-59850D01*
X76023Y-59735D01*
X76042Y-59678D01*
X76080Y-59621D01*
X76138Y-59592D01*
X76176Y-59592D01*
X76233Y-59621D01*
X76252Y-59650D01*
X76500Y-59592D02*
X76576Y-59592D01*
X76614Y-59621D01*
X76652Y-59678D01*
X76671Y-59792D01*
X76671Y-59992D01*
X76652Y-60107D01*
X76614Y-60164D01*
X76576Y-60192D01*
X76500Y-60192D01*
X76461Y-60164D01*
X76423Y-60107D01*
X76404Y-59992D01*
X76404Y-59792D01*
X76423Y-59678D01*
X76461Y-59621D01*
X76500Y-59592D01*
X76842Y-60192D02*
X76842Y-59592D01*
X77071Y-60192D01*
X77071Y-59592D01*
X77261Y-60192D02*
X77261Y-59592D01*
X77490Y-60192D01*
X77490Y-59592D01*
X77585Y-60250D02*
X77890Y-60250D01*
X78042Y-59850D02*
X78004Y-59821D01*
X77985Y-59792D01*
X77966Y-59735D01*
X77966Y-59707D01*
X77985Y-59650D01*
X78004Y-59621D01*
X78042Y-59592D01*
X78119Y-59592D01*
X78157Y-59621D01*
X78176Y-59650D01*
X78195Y-59707D01*
X78195Y-59735D01*
X78176Y-59792D01*
X78157Y-59821D01*
X78119Y-59850D01*
X78042Y-59850D01*
X78004Y-59878D01*
X77985Y-59907D01*
X77966Y-59964D01*
X77966Y-60078D01*
X77985Y-60135D01*
X78004Y-60164D01*
X78042Y-60192D01*
X78119Y-60192D01*
X78157Y-60164D01*
X78176Y-60135D01*
X78195Y-60078D01*
X78195Y-59964D01*
X78176Y-59907D01*
X78157Y-59878D01*
X78119Y-59850D01*
G54D12*
G54D21*
X74834Y-44625D02*
X74834Y-43944D01*
X74997Y-43944D01*
X75037Y-43977D01*
X75058Y-44009D01*
X75078Y-44074D01*
X75078Y-44171D01*
X75058Y-44236D01*
X75037Y-44268D01*
X74997Y-44301D01*
X74834Y-44301D01*
X75445Y-44171D02*
X75445Y-44625D01*
X75343Y-43912D02*
X75241Y-44398D01*
X75506Y-44398D01*
G54D12*
G54D15*
X69802Y-44535D02*
X69783Y-44564D01*
X69726Y-44592D01*
X69688Y-44592D01*
X69630Y-44564D01*
X69592Y-44507D01*
X69573Y-44450D01*
X69554Y-44335D01*
X69554Y-44250D01*
X69573Y-44135D01*
X69592Y-44078D01*
X69630Y-44021D01*
X69688Y-43992D01*
X69726Y-43992D01*
X69783Y-44021D01*
X69802Y-44050D01*
X70050Y-43992D02*
X70126Y-43992D01*
X70164Y-44021D01*
X70202Y-44078D01*
X70221Y-44192D01*
X70221Y-44392D01*
X70202Y-44507D01*
X70164Y-44564D01*
X70126Y-44592D01*
X70050Y-44592D01*
X70011Y-44564D01*
X69973Y-44507D01*
X69954Y-44392D01*
X69954Y-44192D01*
X69973Y-44078D01*
X70011Y-44021D01*
X70050Y-43992D01*
X70392Y-44592D02*
X70392Y-43992D01*
X70621Y-44592D01*
X70621Y-43992D01*
X70811Y-44592D02*
X70811Y-43992D01*
X71040Y-44592D01*
X71040Y-43992D01*
X71135Y-44650D02*
X71440Y-44650D01*
X71592Y-44250D02*
X71554Y-44221D01*
X71535Y-44192D01*
X71516Y-44135D01*
X71516Y-44107D01*
X71535Y-44050D01*
X71554Y-44021D01*
X71592Y-43992D01*
X71669Y-43992D01*
X71707Y-44021D01*
X71726Y-44050D01*
X71745Y-44107D01*
X71745Y-44135D01*
X71726Y-44192D01*
X71707Y-44221D01*
X71669Y-44250D01*
X71592Y-44250D01*
X71554Y-44278D01*
X71535Y-44307D01*
X71516Y-44364D01*
X71516Y-44478D01*
X71535Y-44535D01*
X71554Y-44564D01*
X71592Y-44592D01*
X71669Y-44592D01*
X71707Y-44564D01*
X71726Y-44535D01*
X71745Y-44478D01*
X71745Y-44364D01*
X71726Y-44307D01*
X71707Y-44278D01*
X71669Y-44250D01*
G54D12*
G54D13*
X60940Y-52387D02*
X60773Y-52126D01*
X60654Y-52387D02*
X60654Y-51837D01*
X60845Y-51837D01*
X60892Y-51864D01*
X60916Y-51890D01*
X60940Y-51942D01*
X60940Y-52021D01*
X60916Y-52073D01*
X60892Y-52099D01*
X60845Y-52126D01*
X60654Y-52126D01*
X61130Y-51890D02*
X61154Y-51864D01*
X61202Y-51837D01*
X61321Y-51837D01*
X61368Y-51864D01*
X61392Y-51890D01*
X61416Y-51942D01*
X61416Y-51995D01*
X61392Y-52073D01*
X61106Y-52387D01*
X61416Y-52387D01*
X77482Y-63882D02*
X77316Y-63620D01*
X77196Y-63882D02*
X77196Y-63332D01*
X77387Y-63332D01*
X77435Y-63358D01*
X77458Y-63385D01*
X77482Y-63437D01*
X77482Y-63515D01*
X77458Y-63568D01*
X77435Y-63594D01*
X77387Y-63620D01*
X77196Y-63620D01*
X77958Y-63882D02*
X77673Y-63882D01*
X77816Y-63882D02*
X77816Y-63332D01*
X77768Y-63411D01*
X77720Y-63463D01*
X77673Y-63489D01*
X68788Y-63119D02*
X68526Y-63286D01*
X68788Y-63405D02*
X68238Y-63405D01*
X68238Y-63214D01*
X68264Y-63166D01*
X68291Y-63143D01*
X68343Y-63119D01*
X68421Y-63119D01*
X68474Y-63143D01*
X68500Y-63166D01*
X68526Y-63214D01*
X68526Y-63405D01*
X68421Y-62690D02*
X68788Y-62690D01*
X68212Y-62809D02*
X68605Y-62928D01*
X68605Y-62619D01*
X48645Y-50027D02*
X48383Y-50194D01*
X48645Y-50313D02*
X48095Y-50313D01*
X48095Y-50122D01*
X48121Y-50075D01*
X48147Y-50051D01*
X48199Y-50027D01*
X48278Y-50027D01*
X48330Y-50051D01*
X48356Y-50075D01*
X48383Y-50122D01*
X48383Y-50313D01*
X48095Y-49860D02*
X48095Y-49551D01*
X48304Y-49718D01*
X48304Y-49646D01*
X48330Y-49598D01*
X48356Y-49575D01*
X48409Y-49551D01*
X48540Y-49551D01*
X48592Y-49575D01*
X48618Y-49598D01*
X48645Y-49646D01*
X48645Y-49789D01*
X48618Y-49837D01*
X48592Y-49860D01*
G54D23*
X52794Y-60392D02*
X52804Y-60364D01*
X52804Y-60317D01*
X52794Y-60298D01*
X52785Y-60289D01*
X52766Y-60279D01*
X52747Y-60279D01*
X52729Y-60289D01*
X52719Y-60298D01*
X52710Y-60317D01*
X52700Y-60354D01*
X52691Y-60373D01*
X52682Y-60383D01*
X52663Y-60392D01*
X52644Y-60392D01*
X52625Y-60383D01*
X52616Y-60373D01*
X52607Y-60354D01*
X52607Y-60308D01*
X52616Y-60279D01*
X52607Y-60214D02*
X52804Y-60167D01*
X52663Y-60129D01*
X52804Y-60092D01*
X52607Y-60045D01*
X52804Y-59867D02*
X52804Y-59979D01*
X52804Y-59923D02*
X52607Y-59923D01*
X52635Y-59942D01*
X52654Y-59961D01*
X52663Y-59979D01*
X54804Y-60915D02*
X54710Y-60981D01*
X54804Y-61028D02*
X54607Y-61028D01*
X54607Y-60953D01*
X54616Y-60934D01*
X54625Y-60925D01*
X54644Y-60915D01*
X54672Y-60915D01*
X54691Y-60925D01*
X54700Y-60934D01*
X54710Y-60953D01*
X54710Y-61028D01*
X54700Y-60831D02*
X54700Y-60765D01*
X54804Y-60737D02*
X54804Y-60831D01*
X54607Y-60831D01*
X54607Y-60737D01*
X54794Y-60662D02*
X54804Y-60634D01*
X54804Y-60587D01*
X54794Y-60568D01*
X54785Y-60559D01*
X54766Y-60550D01*
X54747Y-60550D01*
X54729Y-60559D01*
X54719Y-60568D01*
X54710Y-60587D01*
X54700Y-60625D01*
X54691Y-60643D01*
X54682Y-60653D01*
X54663Y-60662D01*
X54644Y-60662D01*
X54625Y-60653D01*
X54616Y-60643D01*
X54607Y-60625D01*
X54607Y-60578D01*
X54616Y-60550D01*
X54700Y-60465D02*
X54700Y-60400D01*
X54804Y-60372D02*
X54804Y-60465D01*
X54607Y-60465D01*
X54607Y-60372D01*
X54607Y-60315D02*
X54607Y-60203D01*
X54804Y-60259D02*
X54607Y-60259D01*
G54D17*
X52560Y-56742D02*
X52574Y-56757D01*
X52588Y-56800D01*
X52588Y-56828D01*
X52574Y-56871D01*
X52546Y-56900D01*
X52517Y-56914D01*
X52460Y-56928D01*
X52417Y-56928D01*
X52360Y-56914D01*
X52331Y-56900D01*
X52303Y-56871D01*
X52288Y-56828D01*
X52288Y-56800D01*
X52303Y-56757D01*
X52317Y-56742D01*
X52317Y-56628D02*
X52303Y-56614D01*
X52288Y-56585D01*
X52288Y-56514D01*
X52303Y-56485D01*
X52317Y-56471D01*
X52346Y-56457D01*
X52374Y-56457D01*
X52417Y-56471D01*
X52588Y-56642D01*
X52588Y-56457D01*
X51589Y-57317D02*
X51589Y-57460D01*
X51589Y-57389D02*
X51289Y-57389D01*
X51332Y-57413D01*
X51361Y-57436D01*
X51375Y-57460D01*
X51389Y-57103D02*
X51589Y-57103D01*
X51389Y-57210D02*
X51547Y-57210D01*
X51575Y-57198D01*
X51589Y-57175D01*
X51589Y-57139D01*
X51575Y-57115D01*
X51561Y-57103D01*
X51432Y-56901D02*
X51432Y-56984D01*
X51589Y-56984D02*
X51289Y-56984D01*
X51289Y-56865D01*
X51275Y-56591D02*
X51661Y-56806D01*
X51589Y-56377D02*
X51589Y-56520D01*
X51589Y-56448D02*
X51289Y-56448D01*
X51332Y-56472D01*
X51361Y-56496D01*
X51375Y-56520D01*
X51289Y-56163D02*
X51289Y-56210D01*
X51304Y-56234D01*
X51318Y-56246D01*
X51361Y-56270D01*
X51418Y-56282D01*
X51532Y-56282D01*
X51561Y-56270D01*
X51575Y-56258D01*
X51589Y-56234D01*
X51589Y-56186D01*
X51575Y-56163D01*
X51561Y-56151D01*
X51532Y-56139D01*
X51461Y-56139D01*
X51432Y-56151D01*
X51418Y-56163D01*
X51404Y-56186D01*
X51404Y-56234D01*
X51418Y-56258D01*
X51432Y-56270D01*
X51461Y-56282D01*
X51289Y-56067D02*
X51589Y-55984D01*
X51289Y-55901D01*
G54D24*
X51975Y-55907D02*
X51975Y-55678D01*
X52089Y-55792D02*
X51861Y-55792D01*
G54D13*
G54D12*
X74162Y-65976D02*
X74162Y-66318D01*
X74162Y-66147D02*
X73562Y-66147D01*
X73648Y-66204D01*
X73705Y-66261D01*
X73734Y-66318D01*
X73562Y-65604D02*
X73562Y-65547D01*
X73591Y-65490D01*
X73620Y-65461D01*
X73677Y-65433D01*
X73791Y-65404D01*
X73934Y-65404D01*
X74048Y-65433D01*
X74105Y-65461D01*
X74134Y-65490D01*
X74162Y-65547D01*
X74162Y-65604D01*
X74134Y-65661D01*
X74105Y-65690D01*
X74048Y-65718D01*
X73934Y-65747D01*
X73791Y-65747D01*
X73677Y-65718D01*
X73620Y-65690D01*
X73591Y-65661D01*
X73562Y-65604D01*
X74162Y-65147D02*
X73562Y-65147D01*
X73991Y-64947D01*
X73562Y-64747D01*
X74162Y-64747D01*
X74162Y-64461D02*
X73562Y-64461D01*
X73848Y-64461D02*
X73848Y-64118D01*
X74162Y-64118D02*
X73562Y-64118D01*
X73762Y-63890D02*
X73762Y-63576D01*
X74162Y-63890D01*
X74162Y-63576D01*
X74162Y-63033D02*
X74162Y-63376D01*
X74162Y-63204D02*
X73562Y-63204D01*
X73648Y-63261D01*
X73705Y-63318D01*
X73734Y-63376D01*
X71105Y-66061D02*
X71134Y-66090D01*
X71162Y-66176D01*
X71162Y-66233D01*
X71134Y-66318D01*
X71077Y-66376D01*
X71020Y-66404D01*
X70905Y-66433D01*
X70820Y-66433D01*
X70705Y-66404D01*
X70648Y-66376D01*
X70591Y-66318D01*
X70562Y-66233D01*
X70562Y-66176D01*
X70591Y-66090D01*
X70620Y-66061D01*
X71162Y-65461D02*
X70877Y-65661D01*
X71162Y-65804D02*
X70562Y-65804D01*
X70562Y-65576D01*
X70591Y-65518D01*
X70620Y-65490D01*
X70677Y-65461D01*
X70762Y-65461D01*
X70820Y-65490D01*
X70848Y-65518D01*
X70877Y-65576D01*
X70877Y-65804D01*
X70877Y-65090D02*
X71162Y-65090D01*
X70562Y-65290D02*
X70877Y-65090D01*
X70562Y-64890D01*
X71134Y-64718D02*
X71162Y-64633D01*
X71162Y-64490D01*
X71134Y-64433D01*
X71105Y-64404D01*
X71048Y-64376D01*
X70991Y-64376D01*
X70934Y-64404D01*
X70905Y-64433D01*
X70877Y-64490D01*
X70848Y-64604D01*
X70820Y-64661D01*
X70791Y-64690D01*
X70734Y-64718D01*
X70677Y-64718D01*
X70620Y-64690D01*
X70591Y-64661D01*
X70562Y-64604D01*
X70562Y-64461D01*
X70591Y-64376D01*
X70562Y-64204D02*
X70562Y-63861D01*
X71162Y-64033D02*
X70562Y-64033D01*
X70991Y-63690D02*
X70991Y-63404D01*
X71162Y-63747D02*
X70562Y-63547D01*
X71162Y-63347D01*
X71162Y-62861D02*
X71162Y-63147D01*
X70562Y-63147D01*
G54D13*
X68959Y-52727D02*
X68940Y-52746D01*
X68883Y-52765D01*
X68845Y-52765D01*
X68787Y-52746D01*
X68749Y-52708D01*
X68730Y-52670D01*
X68711Y-52594D01*
X68711Y-52537D01*
X68730Y-52461D01*
X68749Y-52423D01*
X68787Y-52384D01*
X68845Y-52365D01*
X68883Y-52365D01*
X68940Y-52384D01*
X68959Y-52404D01*
X69321Y-52365D02*
X69130Y-52365D01*
X69111Y-52556D01*
X69130Y-52537D01*
X69168Y-52518D01*
X69264Y-52518D01*
X69302Y-52537D01*
X69321Y-52556D01*
X69340Y-52594D01*
X69340Y-52689D01*
X69321Y-52727D01*
X69302Y-52746D01*
X69264Y-52765D01*
X69168Y-52765D01*
X69130Y-52746D01*
X69111Y-52727D01*
X68981Y-51011D02*
X68962Y-51030D01*
X68905Y-51049D01*
X68867Y-51049D01*
X68809Y-51030D01*
X68771Y-50992D01*
X68752Y-50954D01*
X68733Y-50878D01*
X68733Y-50821D01*
X68752Y-50745D01*
X68771Y-50707D01*
X68809Y-50668D01*
X68867Y-50649D01*
X68905Y-50649D01*
X68962Y-50668D01*
X68981Y-50688D01*
X69324Y-50783D02*
X69324Y-51049D01*
X69228Y-50630D02*
X69133Y-50916D01*
X69381Y-50916D01*
X76535Y-65371D02*
X76516Y-65390D01*
X76459Y-65409D01*
X76421Y-65409D01*
X76363Y-65390D01*
X76325Y-65352D01*
X76306Y-65314D01*
X76287Y-65238D01*
X76287Y-65181D01*
X76306Y-65105D01*
X76325Y-65067D01*
X76363Y-65028D01*
X76421Y-65009D01*
X76459Y-65009D01*
X76516Y-65028D01*
X76535Y-65048D01*
X76916Y-65409D02*
X76687Y-65409D01*
X76802Y-65409D02*
X76802Y-65009D01*
X76763Y-65067D01*
X76725Y-65105D01*
X76687Y-65124D01*
X78711Y-67171D02*
X78692Y-67190D01*
X78635Y-67209D01*
X78597Y-67209D01*
X78539Y-67190D01*
X78501Y-67152D01*
X78482Y-67114D01*
X78463Y-67038D01*
X78463Y-66981D01*
X78482Y-66905D01*
X78501Y-66867D01*
X78539Y-66828D01*
X78597Y-66809D01*
X78635Y-66809D01*
X78692Y-66828D01*
X78711Y-66848D01*
X78844Y-66809D02*
X79092Y-66809D01*
X78958Y-66962D01*
X79016Y-66962D01*
X79054Y-66981D01*
X79073Y-67000D01*
X79092Y-67038D01*
X79092Y-67133D01*
X79073Y-67171D01*
X79054Y-67190D01*
X79016Y-67209D01*
X78901Y-67209D01*
X78863Y-67190D01*
X78844Y-67171D01*
G54D23*
X47231Y-56608D02*
X47034Y-56608D01*
X47034Y-56533D01*
X47043Y-56514D01*
X47052Y-56505D01*
X47071Y-56496D01*
X47099Y-56496D01*
X47118Y-56505D01*
X47127Y-56514D01*
X47137Y-56533D01*
X47137Y-56608D01*
X47034Y-56317D02*
X47034Y-56411D01*
X47127Y-56421D01*
X47118Y-56411D01*
X47109Y-56392D01*
X47109Y-56346D01*
X47118Y-56327D01*
X47127Y-56317D01*
X47146Y-56308D01*
X47193Y-56308D01*
X47212Y-56317D01*
X47221Y-56327D01*
X47231Y-56346D01*
X47231Y-56392D01*
X47221Y-56411D01*
X47212Y-56421D01*
X49435Y-56877D02*
X49444Y-56886D01*
X49454Y-56914D01*
X49454Y-56933D01*
X49444Y-56961D01*
X49425Y-56980D01*
X49407Y-56989D01*
X49369Y-56999D01*
X49341Y-56999D01*
X49304Y-56989D01*
X49285Y-56980D01*
X49266Y-56961D01*
X49257Y-56933D01*
X49257Y-56914D01*
X49266Y-56886D01*
X49275Y-56877D01*
X49257Y-56755D02*
X49257Y-56717D01*
X49266Y-56699D01*
X49285Y-56680D01*
X49322Y-56671D01*
X49388Y-56671D01*
X49425Y-56680D01*
X49444Y-56699D01*
X49454Y-56717D01*
X49454Y-56755D01*
X49444Y-56774D01*
X49425Y-56792D01*
X49388Y-56802D01*
X49322Y-56802D01*
X49285Y-56792D01*
X49266Y-56774D01*
X49257Y-56755D01*
X49454Y-56586D02*
X49257Y-56586D01*
X49454Y-56474D01*
X49257Y-56474D01*
X49454Y-56380D02*
X49257Y-56380D01*
X49454Y-56268D01*
X49257Y-56268D01*
X49472Y-56221D02*
X49472Y-56071D01*
X49275Y-56033D02*
X49266Y-56024D01*
X49257Y-56005D01*
X49257Y-55958D01*
X49266Y-55939D01*
X49275Y-55930D01*
X49294Y-55921D01*
X49313Y-55921D01*
X49341Y-55930D01*
X49454Y-56043D01*
X49454Y-55921D01*
X47231Y-61998D02*
X47034Y-61998D01*
X47034Y-61923D01*
X47043Y-61904D01*
X47052Y-61895D01*
X47071Y-61886D01*
X47099Y-61886D01*
X47118Y-61895D01*
X47127Y-61904D01*
X47137Y-61923D01*
X47137Y-61998D01*
X47034Y-61717D02*
X47034Y-61754D01*
X47043Y-61773D01*
X47052Y-61782D01*
X47081Y-61801D01*
X47118Y-61811D01*
X47193Y-61811D01*
X47212Y-61801D01*
X47221Y-61792D01*
X47231Y-61773D01*
X47231Y-61736D01*
X47221Y-61717D01*
X47212Y-61707D01*
X47193Y-61698D01*
X47146Y-61698D01*
X47127Y-61707D01*
X47118Y-61717D01*
X47109Y-61736D01*
X47109Y-61773D01*
X47118Y-61792D01*
X47127Y-61801D01*
X47146Y-61811D01*
X49435Y-62267D02*
X49444Y-62276D01*
X49454Y-62304D01*
X49454Y-62323D01*
X49444Y-62351D01*
X49425Y-62370D01*
X49407Y-62379D01*
X49369Y-62389D01*
X49341Y-62389D01*
X49304Y-62379D01*
X49285Y-62370D01*
X49266Y-62351D01*
X49257Y-62323D01*
X49257Y-62304D01*
X49266Y-62276D01*
X49275Y-62267D01*
X49257Y-62145D02*
X49257Y-62107D01*
X49266Y-62089D01*
X49285Y-62070D01*
X49322Y-62061D01*
X49388Y-62061D01*
X49425Y-62070D01*
X49444Y-62089D01*
X49454Y-62107D01*
X49454Y-62145D01*
X49444Y-62164D01*
X49425Y-62182D01*
X49388Y-62192D01*
X49322Y-62192D01*
X49285Y-62182D01*
X49266Y-62164D01*
X49257Y-62145D01*
X49454Y-61976D02*
X49257Y-61976D01*
X49454Y-61864D01*
X49257Y-61864D01*
X49454Y-61770D02*
X49257Y-61770D01*
X49454Y-61658D01*
X49257Y-61658D01*
X49472Y-61611D02*
X49472Y-61461D01*
X49275Y-61423D02*
X49266Y-61414D01*
X49257Y-61395D01*
X49257Y-61348D01*
X49266Y-61329D01*
X49275Y-61320D01*
X49294Y-61311D01*
X49313Y-61311D01*
X49341Y-61320D01*
X49454Y-61433D01*
X49454Y-61311D01*
G54D21*
X53625Y-48169D02*
X52944Y-48169D01*
X52944Y-48006D01*
X52977Y-47965D01*
X53009Y-47945D01*
X53074Y-47925D01*
X53171Y-47925D01*
X53236Y-47945D01*
X53268Y-47965D01*
X53301Y-48006D01*
X53301Y-48169D01*
X53625Y-47517D02*
X53625Y-47762D01*
X53625Y-47639D02*
X52944Y-47639D01*
X53041Y-47680D01*
X53106Y-47721D01*
X53139Y-47762D01*
X52944Y-47150D02*
X52944Y-47232D01*
X52977Y-47272D01*
X53009Y-47293D01*
X53106Y-47334D01*
X53236Y-47354D01*
X53495Y-47354D01*
X53560Y-47334D01*
X53593Y-47313D01*
X53625Y-47272D01*
X53625Y-47191D01*
X53593Y-47150D01*
X53560Y-47130D01*
X53495Y-47109D01*
X53333Y-47109D01*
X53268Y-47130D01*
X53236Y-47150D01*
X53204Y-47191D01*
X53204Y-47272D01*
X53236Y-47313D01*
X53268Y-47334D01*
X53333Y-47354D01*
G54D12*
G54D13*
X61458Y-47876D02*
X61292Y-47638D01*
X61172Y-47876D02*
X61172Y-47376D01*
X61363Y-47376D01*
X61411Y-47400D01*
X61434Y-47424D01*
X61458Y-47471D01*
X61458Y-47543D01*
X61434Y-47590D01*
X61411Y-47614D01*
X61363Y-47638D01*
X61172Y-47638D01*
X61958Y-47876D02*
X61792Y-47638D01*
X61672Y-47876D02*
X61672Y-47376D01*
X61863Y-47376D01*
X61911Y-47400D01*
X61934Y-47424D01*
X61958Y-47471D01*
X61958Y-47543D01*
X61934Y-47590D01*
X61911Y-47614D01*
X61863Y-47638D01*
X61672Y-47638D01*
X62434Y-47876D02*
X62149Y-47876D01*
X62292Y-47876D02*
X62292Y-47376D01*
X62244Y-47447D01*
X62196Y-47495D01*
X62149Y-47519D01*
X61025Y-45935D02*
X60892Y-45745D01*
X60796Y-45935D02*
X60796Y-45535D01*
X60949Y-45535D01*
X60987Y-45554D01*
X61006Y-45574D01*
X61025Y-45612D01*
X61025Y-45669D01*
X61006Y-45707D01*
X60987Y-45726D01*
X60949Y-45745D01*
X60796Y-45745D01*
X61425Y-45935D02*
X61292Y-45745D01*
X61196Y-45935D02*
X61196Y-45535D01*
X61349Y-45535D01*
X61387Y-45554D01*
X61406Y-45574D01*
X61425Y-45612D01*
X61425Y-45669D01*
X61406Y-45707D01*
X61387Y-45726D01*
X61349Y-45745D01*
X61196Y-45745D01*
X61653Y-45707D02*
X61615Y-45688D01*
X61596Y-45669D01*
X61577Y-45631D01*
X61577Y-45612D01*
X61596Y-45574D01*
X61615Y-45554D01*
X61653Y-45535D01*
X61730Y-45535D01*
X61768Y-45554D01*
X61787Y-45574D01*
X61806Y-45612D01*
X61806Y-45631D01*
X61787Y-45669D01*
X61768Y-45688D01*
X61730Y-45707D01*
X61653Y-45707D01*
X61615Y-45726D01*
X61596Y-45745D01*
X61577Y-45783D01*
X61577Y-45859D01*
X61596Y-45897D01*
X61615Y-45916D01*
X61653Y-45935D01*
X61730Y-45935D01*
X61768Y-45916D01*
X61787Y-45897D01*
X61806Y-45859D01*
X61806Y-45783D01*
X61787Y-45745D01*
X61768Y-45726D01*
X61730Y-45707D01*
X78263Y-51403D02*
X78096Y-51141D01*
X77977Y-51403D02*
X77977Y-50853D01*
X78167Y-50853D01*
X78215Y-50879D01*
X78239Y-50906D01*
X78263Y-50958D01*
X78263Y-51037D01*
X78239Y-51089D01*
X78215Y-51115D01*
X78167Y-51141D01*
X77977Y-51141D01*
X78715Y-50853D02*
X78477Y-50853D01*
X78453Y-51115D01*
X78477Y-51089D01*
X78525Y-51063D01*
X78644Y-51063D01*
X78691Y-51089D01*
X78715Y-51115D01*
X78739Y-51168D01*
X78739Y-51298D01*
X78715Y-51351D01*
X78691Y-51377D01*
X78644Y-51403D01*
X78525Y-51403D01*
X78477Y-51377D01*
X78453Y-51351D01*
X78263Y-52584D02*
X78096Y-52322D01*
X77977Y-52584D02*
X77977Y-52034D01*
X78167Y-52034D01*
X78215Y-52061D01*
X78239Y-52087D01*
X78263Y-52139D01*
X78263Y-52218D01*
X78239Y-52270D01*
X78215Y-52296D01*
X78167Y-52322D01*
X77977Y-52322D01*
X78691Y-52034D02*
X78596Y-52034D01*
X78548Y-52061D01*
X78525Y-52087D01*
X78477Y-52165D01*
X78453Y-52270D01*
X78453Y-52480D01*
X78477Y-52532D01*
X78501Y-52558D01*
X78548Y-52584D01*
X78644Y-52584D01*
X78691Y-52558D01*
X78715Y-52532D01*
X78739Y-52480D01*
X78739Y-52349D01*
X78715Y-52296D01*
X78691Y-52270D01*
X78644Y-52244D01*
X78548Y-52244D01*
X78501Y-52270D01*
X78477Y-52296D01*
X78453Y-52349D01*
X78263Y-53765D02*
X78096Y-53504D01*
X77977Y-53765D02*
X77977Y-53215D01*
X78167Y-53215D01*
X78215Y-53242D01*
X78239Y-53268D01*
X78263Y-53320D01*
X78263Y-53399D01*
X78239Y-53451D01*
X78215Y-53477D01*
X78167Y-53504D01*
X77977Y-53504D01*
X78429Y-53215D02*
X78763Y-53215D01*
X78548Y-53765D01*
X78263Y-54947D02*
X78096Y-54685D01*
X77977Y-54947D02*
X77977Y-54397D01*
X78167Y-54397D01*
X78215Y-54423D01*
X78239Y-54449D01*
X78263Y-54501D01*
X78263Y-54580D01*
X78239Y-54632D01*
X78215Y-54658D01*
X78167Y-54685D01*
X77977Y-54685D01*
X78548Y-54632D02*
X78501Y-54606D01*
X78477Y-54580D01*
X78453Y-54527D01*
X78453Y-54501D01*
X78477Y-54449D01*
X78501Y-54423D01*
X78548Y-54397D01*
X78644Y-54397D01*
X78691Y-54423D01*
X78715Y-54449D01*
X78739Y-54501D01*
X78739Y-54527D01*
X78715Y-54580D01*
X78691Y-54606D01*
X78644Y-54632D01*
X78548Y-54632D01*
X78501Y-54658D01*
X78477Y-54685D01*
X78453Y-54737D01*
X78453Y-54842D01*
X78477Y-54894D01*
X78501Y-54920D01*
X78548Y-54947D01*
X78644Y-54947D01*
X78691Y-54920D01*
X78715Y-54894D01*
X78739Y-54842D01*
X78739Y-54737D01*
X78715Y-54685D01*
X78691Y-54658D01*
X78644Y-54632D01*
G54D15*
M02*
