G04 (created by PCBNEW (2013-07-07 BZR 4022)-stable) date 08-Nov-13 6:42:12 PM*
%MOIN*%
G04 Gerber Fmt 3.4, Leading zero omitted, Abs format*
%FSLAX34Y34*%
G01*
G70*
G90*
G04 APERTURE LIST*
%ADD10C,0.00590551*%
%ADD11C,0.0590551*%
%ADD12C,0.0531496*%
%ADD13R,0.0713701X0.0713701*%
%ADD14C,0.0713701*%
%ADD15C,0.066*%
%ADD16R,0.0669291X0.0669291*%
%ADD17C,0.0669291*%
%ADD18C,0.1*%
%ADD19R,0.0629921X0.0629921*%
%ADD20C,0.0629921*%
%ADD21C,0.0787402*%
%ADD22C,0.161417*%
G04 APERTURE END LIST*
G54D10*
G54D11*
X57650Y-56002D03*
X58650Y-56002D03*
X59650Y-56002D03*
X60650Y-56002D03*
X61650Y-56002D03*
X62650Y-56002D03*
X63650Y-56002D03*
X64650Y-56002D03*
X65650Y-56002D03*
X66650Y-56002D03*
X67650Y-56002D03*
X68650Y-56002D03*
X69650Y-56002D03*
X70650Y-56002D03*
X71650Y-56002D03*
X72650Y-56002D03*
X73650Y-56002D03*
X74650Y-56002D03*
X75650Y-56002D03*
X76650Y-56002D03*
X74650Y-50097D03*
X73650Y-50097D03*
X72650Y-50097D03*
X71650Y-50097D03*
X69650Y-50097D03*
X68650Y-50097D03*
X64650Y-50097D03*
X61650Y-50097D03*
X60650Y-50097D03*
X59650Y-50097D03*
X58650Y-50097D03*
X63650Y-50097D03*
X65650Y-50097D03*
X75650Y-50097D03*
X76650Y-50097D03*
G54D12*
X57650Y-50097D03*
G54D11*
X70650Y-50097D03*
X67650Y-50097D03*
X62650Y-50097D03*
X66650Y-50097D03*
G54D13*
X57960Y-65456D03*
G54D14*
X58960Y-65456D03*
X59960Y-65456D03*
X60960Y-65456D03*
X61960Y-65456D03*
X62960Y-65456D03*
X63960Y-65456D03*
X64960Y-65456D03*
X65960Y-65456D03*
X66960Y-65456D03*
G54D15*
X67680Y-57996D03*
X68680Y-57996D03*
X54724Y-44200D03*
X54724Y-43200D03*
G54D16*
X65300Y-43350D03*
G54D17*
X64300Y-43350D03*
X63300Y-43350D03*
X62300Y-43350D03*
X61300Y-43350D03*
X60300Y-43350D03*
X59300Y-43350D03*
X58300Y-43350D03*
G54D16*
X71600Y-60950D03*
G54D17*
X72600Y-60950D03*
X73600Y-60950D03*
X74600Y-60950D03*
X75600Y-60950D03*
X76600Y-60950D03*
X77600Y-60950D03*
X78600Y-60950D03*
G54D16*
X76150Y-43350D03*
G54D17*
X75150Y-43350D03*
X74150Y-43350D03*
X73150Y-43350D03*
X72150Y-43350D03*
X71150Y-43350D03*
X70150Y-43350D03*
X69150Y-43350D03*
G54D11*
X64023Y-52165D03*
X58023Y-52165D03*
X80566Y-63660D03*
X74566Y-63660D03*
X68566Y-66036D03*
X68566Y-60036D03*
X48422Y-52944D03*
X48422Y-46944D03*
G54D18*
X53724Y-61629D03*
X55724Y-59629D03*
X53716Y-59643D03*
X55724Y-61629D03*
G54D19*
X51968Y-56192D03*
G54D20*
X51968Y-57192D03*
G54D11*
X72420Y-63676D03*
X72420Y-65676D03*
X68426Y-53504D03*
X69426Y-53504D03*
X68448Y-51788D03*
X69448Y-51788D03*
X76002Y-66148D03*
X77002Y-66148D03*
X79378Y-66148D03*
X78378Y-66148D03*
G54D21*
X48327Y-55474D03*
X48327Y-57443D03*
X48327Y-60864D03*
X48327Y-62833D03*
G54D16*
X52350Y-45400D03*
G54D17*
X52350Y-46400D03*
X52350Y-47400D03*
X52350Y-48400D03*
X52350Y-49400D03*
G54D13*
X65292Y-46574D03*
G54D14*
X64292Y-46574D03*
X63292Y-46574D03*
X62292Y-46574D03*
X61292Y-46574D03*
X60292Y-46574D03*
X59292Y-46574D03*
X58292Y-46574D03*
X57292Y-46574D03*
G54D11*
X75346Y-51181D03*
X81346Y-51181D03*
X75346Y-52362D03*
X81346Y-52362D03*
X75346Y-53543D03*
X81346Y-53543D03*
X75346Y-54724D03*
X81346Y-54724D03*
G54D22*
X82913Y-43228D03*
X48346Y-43267D03*
X48366Y-67145D03*
X82913Y-67145D03*
M02*
