G04 (created by PCBNEW (2013-07-07 BZR 4022)-stable) date 08-Nov-13 6:42:12 PM*
%MOIN*%
G04 Gerber Fmt 3.4, Leading zero omitted, Abs format*
%FSLAX34Y34*%
G01*
G70*
G90*
G04 APERTURE LIST*
%ADD10C,0.00590551*%
%ADD11C,0.0590551*%
%ADD12C,0.0531496*%
%ADD13R,0.0713701X0.0713701*%
%ADD14C,0.0713701*%
%ADD15C,0.066*%
%ADD16R,0.0669291X0.0669291*%
%ADD17C,0.0669291*%
%ADD18C,0.1*%
%ADD19R,0.0629921X0.0629921*%
%ADD20C,0.0629921*%
%ADD21C,0.0787402*%
%ADD22C,0.161417*%
%ADD23C,0.0393701*%
%ADD24C,0.01*%
G04 APERTURE END LIST*
G54D10*
G54D11*
X57650Y-56002D03*
X58650Y-56002D03*
X59650Y-56002D03*
X60650Y-56002D03*
X61650Y-56002D03*
X62650Y-56002D03*
X63650Y-56002D03*
X64650Y-56002D03*
X65650Y-56002D03*
X66650Y-56002D03*
X67650Y-56002D03*
X68650Y-56002D03*
X69650Y-56002D03*
X70650Y-56002D03*
X71650Y-56002D03*
X72650Y-56002D03*
X73650Y-56002D03*
X74650Y-56002D03*
X75650Y-56002D03*
X76650Y-56002D03*
X74650Y-50097D03*
X73650Y-50097D03*
X72650Y-50097D03*
X71650Y-50097D03*
X69650Y-50097D03*
X68650Y-50097D03*
X64650Y-50097D03*
X61650Y-50097D03*
X60650Y-50097D03*
X59650Y-50097D03*
X58650Y-50097D03*
X63650Y-50097D03*
X65650Y-50097D03*
X75650Y-50097D03*
X76650Y-50097D03*
G54D12*
X57650Y-50097D03*
G54D11*
X70650Y-50097D03*
X67650Y-50097D03*
X62650Y-50097D03*
X66650Y-50097D03*
G54D13*
X57960Y-65456D03*
G54D14*
X58960Y-65456D03*
X59960Y-65456D03*
X60960Y-65456D03*
X61960Y-65456D03*
X62960Y-65456D03*
X63960Y-65456D03*
X64960Y-65456D03*
X65960Y-65456D03*
X66960Y-65456D03*
G54D15*
X67680Y-57996D03*
X68680Y-57996D03*
X54724Y-44200D03*
X54724Y-43200D03*
G54D16*
X65300Y-43350D03*
G54D17*
X64300Y-43350D03*
X63300Y-43350D03*
X62300Y-43350D03*
X61300Y-43350D03*
X60300Y-43350D03*
X59300Y-43350D03*
X58300Y-43350D03*
G54D16*
X71600Y-60950D03*
G54D17*
X72600Y-60950D03*
X73600Y-60950D03*
X74600Y-60950D03*
X75600Y-60950D03*
X76600Y-60950D03*
X77600Y-60950D03*
X78600Y-60950D03*
G54D16*
X76150Y-43350D03*
G54D17*
X75150Y-43350D03*
X74150Y-43350D03*
X73150Y-43350D03*
X72150Y-43350D03*
X71150Y-43350D03*
X70150Y-43350D03*
X69150Y-43350D03*
G54D11*
X64023Y-52165D03*
X58023Y-52165D03*
X80566Y-63660D03*
X74566Y-63660D03*
X68566Y-66036D03*
X68566Y-60036D03*
X48422Y-52944D03*
X48422Y-46944D03*
G54D18*
X53724Y-61629D03*
X55724Y-59629D03*
X53716Y-59643D03*
X55724Y-61629D03*
G54D19*
X51968Y-56192D03*
G54D20*
X51968Y-57192D03*
G54D11*
X72420Y-63676D03*
X72420Y-65676D03*
X68426Y-53504D03*
X69426Y-53504D03*
X68448Y-51788D03*
X69448Y-51788D03*
X76002Y-66148D03*
X77002Y-66148D03*
X79378Y-66148D03*
X78378Y-66148D03*
G54D21*
X48327Y-55474D03*
X48327Y-57443D03*
X48327Y-60864D03*
X48327Y-62833D03*
G54D16*
X52350Y-45400D03*
G54D17*
X52350Y-46400D03*
X52350Y-47400D03*
X52350Y-48400D03*
X52350Y-49400D03*
G54D13*
X65292Y-46574D03*
G54D14*
X64292Y-46574D03*
X63292Y-46574D03*
X62292Y-46574D03*
X61292Y-46574D03*
X60292Y-46574D03*
X59292Y-46574D03*
X58292Y-46574D03*
X57292Y-46574D03*
G54D11*
X75346Y-51181D03*
X81346Y-51181D03*
X75346Y-52362D03*
X81346Y-52362D03*
X75346Y-53543D03*
X81346Y-53543D03*
X75346Y-54724D03*
X81346Y-54724D03*
G54D22*
X82913Y-43228D03*
X48346Y-43267D03*
X48366Y-67145D03*
X82913Y-67145D03*
G54D23*
X76002Y-66148D02*
X76002Y-64820D01*
X77162Y-63660D02*
X80566Y-63660D01*
X76002Y-64820D02*
X77162Y-63660D01*
X69650Y-56002D02*
X69650Y-64326D01*
X71000Y-65676D02*
X72420Y-65676D01*
X69650Y-64326D02*
X71000Y-65676D01*
X76002Y-66148D02*
X73078Y-66148D01*
X72606Y-65676D02*
X72420Y-65676D01*
X73078Y-66148D02*
X72606Y-65676D01*
X74566Y-63660D02*
X75798Y-63660D01*
X80570Y-66148D02*
X79378Y-66148D01*
X81532Y-65186D02*
X80570Y-66148D01*
X81532Y-63338D02*
X81532Y-65186D01*
X80982Y-62788D02*
X81532Y-63338D01*
X76670Y-62788D02*
X80982Y-62788D01*
X75798Y-63660D02*
X76670Y-62788D01*
X72420Y-63676D02*
X74550Y-63676D01*
X74550Y-63676D02*
X74566Y-63660D01*
X72420Y-63676D02*
X71296Y-63676D01*
X70650Y-63030D02*
X70650Y-56002D01*
X71296Y-63676D02*
X70650Y-63030D01*
X52350Y-48400D02*
X51562Y-48400D01*
X57605Y-51142D02*
X58650Y-50097D01*
X51702Y-51142D02*
X57605Y-51142D01*
X51030Y-50470D02*
X51702Y-51142D01*
X51030Y-48932D02*
X51030Y-50470D01*
X51562Y-48400D02*
X51030Y-48932D01*
X59292Y-46574D02*
X59292Y-43358D01*
X59292Y-43358D02*
X59300Y-43350D01*
X58650Y-50097D02*
X58650Y-48616D01*
X59292Y-47974D02*
X59292Y-46574D01*
X58650Y-48616D02*
X59292Y-47974D01*
X52350Y-49400D02*
X56072Y-49400D01*
X56769Y-50097D02*
X57650Y-50097D01*
X56072Y-49400D02*
X56769Y-50097D01*
X58292Y-46574D02*
X58292Y-43358D01*
X58292Y-43358D02*
X58300Y-43350D01*
X57650Y-50097D02*
X57650Y-48206D01*
X58292Y-47564D02*
X58292Y-46574D01*
X57650Y-48206D02*
X58292Y-47564D01*
X65292Y-46574D02*
X65292Y-43358D01*
X65292Y-43358D02*
X65300Y-43350D01*
X64650Y-50097D02*
X64650Y-49502D01*
X65292Y-48860D02*
X65292Y-46574D01*
X64650Y-49502D02*
X65292Y-48860D01*
X64292Y-46574D02*
X64292Y-43358D01*
X64292Y-43358D02*
X64300Y-43350D01*
X63650Y-50097D02*
X63650Y-49466D01*
X64292Y-48824D02*
X64292Y-46574D01*
X63650Y-49466D02*
X64292Y-48824D01*
X63292Y-46574D02*
X63292Y-43358D01*
X63292Y-43358D02*
X63300Y-43350D01*
X63292Y-46574D02*
X63292Y-48714D01*
X62650Y-49356D02*
X62650Y-50097D01*
X63292Y-48714D02*
X62650Y-49356D01*
X62292Y-46574D02*
X62292Y-43358D01*
X62292Y-43358D02*
X62300Y-43350D01*
X61650Y-50097D02*
X61650Y-49352D01*
X62292Y-48710D02*
X62292Y-46574D01*
X61650Y-49352D02*
X62292Y-48710D01*
X61292Y-46574D02*
X61292Y-43358D01*
X61292Y-43358D02*
X61300Y-43350D01*
X60650Y-50097D02*
X60650Y-49090D01*
X61292Y-48448D02*
X61292Y-46574D01*
X60650Y-49090D02*
X61292Y-48448D01*
X60292Y-46574D02*
X60292Y-43358D01*
X60292Y-43358D02*
X60300Y-43350D01*
X59650Y-50097D02*
X59650Y-48816D01*
X60292Y-48174D02*
X60292Y-46574D01*
X59650Y-48816D02*
X60292Y-48174D01*
X63960Y-65456D02*
X63960Y-65522D01*
X68140Y-66462D02*
X68566Y-66036D01*
X64900Y-66462D02*
X68140Y-66462D01*
X63960Y-65522D02*
X64900Y-66462D01*
X64650Y-56002D02*
X64650Y-63836D01*
X63960Y-64526D02*
X63960Y-65456D01*
X64650Y-63836D02*
X63960Y-64526D01*
X64960Y-65456D02*
X64960Y-64542D01*
X65650Y-63852D02*
X65650Y-56002D01*
X64960Y-64542D02*
X65650Y-63852D01*
X65960Y-65456D02*
X65960Y-64660D01*
X66650Y-63970D02*
X66650Y-56002D01*
X65960Y-64660D02*
X66650Y-63970D01*
X57650Y-56002D02*
X57650Y-57468D01*
X54817Y-58543D02*
X53716Y-59643D01*
X56574Y-58543D02*
X54817Y-58543D01*
X57650Y-57468D02*
X56574Y-58543D01*
X51968Y-56192D02*
X57459Y-56192D01*
X57459Y-56192D02*
X57650Y-56002D01*
X57650Y-54133D02*
X57650Y-52538D01*
X57650Y-52538D02*
X58023Y-52165D01*
X52350Y-47400D02*
X50742Y-47400D01*
X57650Y-53696D02*
X57650Y-54133D01*
X57650Y-54133D02*
X57650Y-56002D01*
X56910Y-52956D02*
X57650Y-53696D01*
X51766Y-52956D02*
X56910Y-52956D01*
X49840Y-51030D02*
X51766Y-52956D01*
X49840Y-48302D02*
X49840Y-51030D01*
X50742Y-47400D02*
X49840Y-48302D01*
X77002Y-66148D02*
X78378Y-66148D01*
X72600Y-60950D02*
X72600Y-56052D01*
X72600Y-56052D02*
X72650Y-56002D01*
X73600Y-60950D02*
X73600Y-56052D01*
X73600Y-56052D02*
X73650Y-56002D01*
X67650Y-50097D02*
X67650Y-48096D01*
X69150Y-46596D02*
X69150Y-43350D01*
X67650Y-48096D02*
X69150Y-46596D01*
X71600Y-60950D02*
X71600Y-56052D01*
X71600Y-56052D02*
X71650Y-56002D01*
X58650Y-56002D02*
X58650Y-62470D01*
X57960Y-63160D02*
X57960Y-65456D01*
X58650Y-62470D02*
X57960Y-63160D01*
X59650Y-56002D02*
X59650Y-62790D01*
X58960Y-63480D02*
X58960Y-65456D01*
X59650Y-62790D02*
X58960Y-63480D01*
X60650Y-56002D02*
X60650Y-63160D01*
X59960Y-63850D02*
X59960Y-65456D01*
X60650Y-63160D02*
X59960Y-63850D01*
X63650Y-56002D02*
X63650Y-63750D01*
X62960Y-64440D02*
X62960Y-65456D01*
X63650Y-63750D02*
X62960Y-64440D01*
X70150Y-43350D02*
X70150Y-46996D01*
X68650Y-48496D02*
X68650Y-50097D01*
X70150Y-46996D02*
X68650Y-48496D01*
X60960Y-65456D02*
X60960Y-64020D01*
X61650Y-63330D02*
X61650Y-56002D01*
X60960Y-64020D02*
X61650Y-63330D01*
X61960Y-65456D02*
X61960Y-64286D01*
X62650Y-63596D02*
X62650Y-56002D01*
X61960Y-64286D02*
X62650Y-63596D01*
X71650Y-50097D02*
X71650Y-51027D01*
X71650Y-51027D02*
X75346Y-54724D01*
X73650Y-50097D02*
X73650Y-50665D01*
X73650Y-50665D02*
X75346Y-52362D01*
X72650Y-50097D02*
X72650Y-50846D01*
X72650Y-50846D02*
X75346Y-53543D01*
X78600Y-60950D02*
X79847Y-60950D01*
X81348Y-54726D02*
X81346Y-54724D01*
X81348Y-59448D02*
X81348Y-54726D01*
X79847Y-60950D02*
X81348Y-59448D01*
X77600Y-60950D02*
X77600Y-61458D01*
X82283Y-54480D02*
X81346Y-53543D01*
X82283Y-60236D02*
X82283Y-54480D01*
X80314Y-62204D02*
X82283Y-60236D01*
X78346Y-62204D02*
X80314Y-62204D01*
X77600Y-61458D02*
X78346Y-62204D01*
X81346Y-52362D02*
X80708Y-52362D01*
X76600Y-58833D02*
X76600Y-60950D01*
X77165Y-58267D02*
X76600Y-58833D01*
X79133Y-58267D02*
X77165Y-58267D01*
X80314Y-57086D02*
X79133Y-58267D01*
X80314Y-52755D02*
X80314Y-57086D01*
X80708Y-52362D02*
X80314Y-52755D01*
X69650Y-50097D02*
X69650Y-49106D01*
X71150Y-47606D02*
X71150Y-43350D01*
X69650Y-49106D02*
X71150Y-47606D01*
X81346Y-51181D02*
X79921Y-51181D01*
X75600Y-58258D02*
X75600Y-60950D01*
X76377Y-57480D02*
X75600Y-58258D01*
X78740Y-57480D02*
X76377Y-57480D01*
X79527Y-56692D02*
X78740Y-57480D01*
X79527Y-51574D02*
X79527Y-56692D01*
X79921Y-51181D02*
X79527Y-51574D01*
X74650Y-50097D02*
X74650Y-50484D01*
X74650Y-50484D02*
X75346Y-51181D01*
X70650Y-50097D02*
X70650Y-49402D01*
X72150Y-47902D02*
X72150Y-43350D01*
X70650Y-49402D02*
X72150Y-47902D01*
X67680Y-57996D02*
X67680Y-59150D01*
X67680Y-59150D02*
X68566Y-60036D01*
X54724Y-44200D02*
X51165Y-44200D01*
X51165Y-44200D02*
X48422Y-46944D01*
X73150Y-43350D02*
X73150Y-46480D01*
X75650Y-48980D02*
X75650Y-50097D01*
X73150Y-46480D02*
X75650Y-48980D01*
X74150Y-43350D02*
X74150Y-45974D01*
X76650Y-48474D02*
X76650Y-50097D01*
X74150Y-45974D02*
X76650Y-48474D01*
X75150Y-43350D02*
X75150Y-45622D01*
X75150Y-45622D02*
X77952Y-48425D01*
X77952Y-48425D02*
X77952Y-55511D01*
X77952Y-55511D02*
X77461Y-56002D01*
X77461Y-56002D02*
X76650Y-56002D01*
X76150Y-43350D02*
X76150Y-45441D01*
X76340Y-56692D02*
X75650Y-56002D01*
X78346Y-56692D02*
X76340Y-56692D01*
X78740Y-56299D02*
X78346Y-56692D01*
X78740Y-48031D02*
X78740Y-56299D01*
X76150Y-45441D02*
X78740Y-48031D01*
X74600Y-60950D02*
X74600Y-56052D01*
X74600Y-56052D02*
X74650Y-56002D01*
X48422Y-52944D02*
X48422Y-48427D01*
X51450Y-45400D02*
X52350Y-45400D01*
X48422Y-48427D02*
X51450Y-45400D01*
X48327Y-55474D02*
X48327Y-53247D01*
X48422Y-53152D02*
X48422Y-52944D01*
X48327Y-53247D02*
X48422Y-53152D01*
X65650Y-50976D02*
X64181Y-50976D01*
X64023Y-51133D02*
X64023Y-52165D01*
X64181Y-50976D02*
X64023Y-51133D01*
X52350Y-45400D02*
X54954Y-45400D01*
X56128Y-46574D02*
X57292Y-46574D01*
X54954Y-45400D02*
X56128Y-46574D01*
X65650Y-50097D02*
X65650Y-50976D01*
X66462Y-51788D02*
X68448Y-51788D01*
X65650Y-50976D02*
X66462Y-51788D01*
X68448Y-51788D02*
X68426Y-51810D01*
X68426Y-51810D02*
X68426Y-53504D01*
X67650Y-56002D02*
X67650Y-54280D01*
X67650Y-54280D02*
X68426Y-53504D01*
X57292Y-46574D02*
X57292Y-42830D01*
X65650Y-49564D02*
X65650Y-50097D01*
X66264Y-48950D02*
X65650Y-49564D01*
X66264Y-42856D02*
X66264Y-48950D01*
X65890Y-42482D02*
X66264Y-42856D01*
X57640Y-42482D02*
X65890Y-42482D01*
X57292Y-42830D02*
X57640Y-42482D01*
X48327Y-55474D02*
X48353Y-55474D01*
X49407Y-59784D02*
X48327Y-60864D01*
X49407Y-56529D02*
X49407Y-59784D01*
X48353Y-55474D02*
X49407Y-56529D01*
G54D10*
G36*
X84201Y-68453D02*
X83970Y-68453D01*
X83970Y-66936D01*
X83970Y-43019D01*
X83810Y-42630D01*
X83512Y-42332D01*
X83124Y-42171D01*
X82704Y-42171D01*
X82315Y-42331D01*
X82017Y-42628D01*
X81856Y-43017D01*
X81856Y-43437D01*
X82016Y-43826D01*
X82313Y-44123D01*
X82702Y-44285D01*
X83122Y-44285D01*
X83511Y-44125D01*
X83809Y-43827D01*
X83970Y-43439D01*
X83970Y-43019D01*
X83970Y-66936D01*
X83810Y-66547D01*
X83512Y-66250D01*
X83124Y-66088D01*
X82730Y-66088D01*
X82730Y-60236D01*
X82730Y-54480D01*
X82696Y-54309D01*
X82696Y-54309D01*
X82599Y-54164D01*
X81891Y-53456D01*
X81891Y-53435D01*
X81808Y-53234D01*
X81655Y-53081D01*
X81455Y-52998D01*
X81238Y-52997D01*
X81037Y-53080D01*
X80884Y-53234D01*
X80801Y-53434D01*
X80801Y-53651D01*
X80883Y-53851D01*
X81037Y-54005D01*
X81237Y-54088D01*
X81259Y-54088D01*
X81350Y-54179D01*
X81238Y-54179D01*
X81037Y-54261D01*
X80884Y-54415D01*
X80801Y-54615D01*
X80801Y-54832D01*
X80883Y-55032D01*
X80901Y-55050D01*
X80901Y-59263D01*
X79662Y-60503D01*
X78980Y-60503D01*
X78931Y-60454D01*
X78716Y-60365D01*
X78484Y-60365D01*
X78269Y-60454D01*
X78104Y-60618D01*
X78100Y-60629D01*
X78095Y-60619D01*
X77931Y-60454D01*
X77716Y-60365D01*
X77484Y-60365D01*
X77269Y-60454D01*
X77104Y-60618D01*
X77100Y-60629D01*
X77095Y-60619D01*
X77046Y-60570D01*
X77046Y-59018D01*
X77350Y-58714D01*
X79133Y-58714D01*
X79304Y-58680D01*
X79304Y-58680D01*
X79449Y-58583D01*
X80630Y-57402D01*
X80630Y-57402D01*
X80727Y-57257D01*
X80761Y-57086D01*
X80761Y-57086D01*
X80761Y-52940D01*
X80893Y-52809D01*
X81022Y-52809D01*
X81037Y-52824D01*
X81237Y-52907D01*
X81454Y-52907D01*
X81654Y-52824D01*
X81808Y-52671D01*
X81891Y-52471D01*
X81891Y-52254D01*
X81808Y-52053D01*
X81655Y-51900D01*
X81455Y-51817D01*
X81238Y-51816D01*
X81037Y-51899D01*
X81022Y-51915D01*
X80708Y-51915D01*
X80537Y-51949D01*
X80392Y-52046D01*
X79998Y-52439D01*
X79974Y-52476D01*
X79974Y-51759D01*
X80106Y-51627D01*
X81022Y-51627D01*
X81037Y-51643D01*
X81237Y-51726D01*
X81454Y-51726D01*
X81654Y-51643D01*
X81808Y-51490D01*
X81891Y-51290D01*
X81891Y-51073D01*
X81808Y-50872D01*
X81655Y-50719D01*
X81455Y-50635D01*
X81238Y-50635D01*
X81037Y-50718D01*
X81022Y-50734D01*
X79921Y-50734D01*
X79750Y-50768D01*
X79605Y-50865D01*
X79211Y-51258D01*
X79187Y-51295D01*
X79187Y-48031D01*
X79152Y-47860D01*
X79152Y-47860D01*
X79056Y-47715D01*
X76596Y-45256D01*
X76596Y-43908D01*
X76626Y-43896D01*
X76696Y-43826D01*
X76734Y-43734D01*
X76734Y-43635D01*
X76734Y-42965D01*
X76696Y-42873D01*
X76626Y-42803D01*
X76534Y-42765D01*
X76435Y-42765D01*
X75765Y-42765D01*
X75673Y-42803D01*
X75603Y-42873D01*
X75573Y-42946D01*
X75481Y-42854D01*
X75266Y-42765D01*
X75034Y-42765D01*
X74819Y-42854D01*
X74654Y-43018D01*
X74650Y-43029D01*
X74645Y-43019D01*
X74481Y-42854D01*
X74266Y-42765D01*
X74034Y-42765D01*
X73819Y-42854D01*
X73654Y-43018D01*
X73650Y-43029D01*
X73645Y-43019D01*
X73481Y-42854D01*
X73266Y-42765D01*
X73034Y-42765D01*
X72819Y-42854D01*
X72654Y-43018D01*
X72650Y-43029D01*
X72645Y-43019D01*
X72481Y-42854D01*
X72266Y-42765D01*
X72034Y-42765D01*
X71819Y-42854D01*
X71654Y-43018D01*
X71650Y-43029D01*
X71645Y-43019D01*
X71481Y-42854D01*
X71266Y-42765D01*
X71034Y-42765D01*
X70819Y-42854D01*
X70654Y-43018D01*
X70650Y-43029D01*
X70645Y-43019D01*
X70481Y-42854D01*
X70266Y-42765D01*
X70034Y-42765D01*
X69819Y-42854D01*
X69654Y-43018D01*
X69650Y-43029D01*
X69645Y-43019D01*
X69481Y-42854D01*
X69266Y-42765D01*
X69034Y-42765D01*
X68819Y-42854D01*
X68654Y-43018D01*
X68565Y-43233D01*
X68565Y-43465D01*
X68654Y-43680D01*
X68703Y-43729D01*
X68703Y-46410D01*
X67334Y-47780D01*
X67237Y-47924D01*
X67203Y-48096D01*
X67203Y-49772D01*
X67188Y-49787D01*
X67152Y-49873D01*
X67127Y-49812D01*
X67032Y-49785D01*
X66961Y-49856D01*
X66961Y-49714D01*
X66935Y-49619D01*
X66730Y-49547D01*
X66513Y-49558D01*
X66364Y-49619D01*
X66338Y-49714D01*
X66650Y-50026D01*
X66961Y-49714D01*
X66961Y-49856D01*
X66720Y-50097D01*
X67032Y-50409D01*
X67127Y-50382D01*
X67150Y-50316D01*
X67187Y-50405D01*
X67340Y-50559D01*
X67541Y-50642D01*
X67757Y-50642D01*
X67958Y-50559D01*
X68111Y-50406D01*
X68149Y-50315D01*
X68187Y-50405D01*
X68340Y-50559D01*
X68541Y-50642D01*
X68757Y-50642D01*
X68958Y-50559D01*
X69111Y-50406D01*
X69149Y-50315D01*
X69187Y-50405D01*
X69340Y-50559D01*
X69541Y-50642D01*
X69757Y-50642D01*
X69958Y-50559D01*
X70111Y-50406D01*
X70149Y-50315D01*
X70187Y-50405D01*
X70340Y-50559D01*
X70541Y-50642D01*
X70757Y-50642D01*
X70958Y-50559D01*
X71111Y-50406D01*
X71149Y-50315D01*
X71187Y-50405D01*
X71203Y-50421D01*
X71203Y-51027D01*
X71237Y-51198D01*
X71334Y-51343D01*
X74801Y-54811D01*
X74801Y-54832D01*
X74883Y-55032D01*
X75037Y-55186D01*
X75237Y-55269D01*
X75454Y-55269D01*
X75654Y-55186D01*
X75808Y-55033D01*
X75891Y-54833D01*
X75891Y-54616D01*
X75808Y-54415D01*
X75655Y-54262D01*
X75455Y-54179D01*
X75433Y-54179D01*
X75342Y-54088D01*
X75454Y-54088D01*
X75654Y-54005D01*
X75808Y-53852D01*
X75891Y-53652D01*
X75891Y-53435D01*
X75808Y-53234D01*
X75655Y-53081D01*
X75455Y-52998D01*
X75433Y-52998D01*
X75342Y-52907D01*
X75454Y-52907D01*
X75654Y-52824D01*
X75808Y-52671D01*
X75891Y-52471D01*
X75891Y-52254D01*
X75808Y-52053D01*
X75655Y-51900D01*
X75455Y-51817D01*
X75433Y-51817D01*
X75342Y-51726D01*
X75454Y-51726D01*
X75654Y-51643D01*
X75808Y-51490D01*
X75891Y-51290D01*
X75891Y-51073D01*
X75808Y-50872D01*
X75655Y-50719D01*
X75455Y-50635D01*
X75433Y-50635D01*
X75367Y-50570D01*
X75541Y-50642D01*
X75757Y-50642D01*
X75958Y-50559D01*
X76111Y-50406D01*
X76149Y-50315D01*
X76187Y-50405D01*
X76340Y-50559D01*
X76541Y-50642D01*
X76757Y-50642D01*
X76958Y-50559D01*
X77111Y-50406D01*
X77195Y-50206D01*
X77195Y-49989D01*
X77112Y-49788D01*
X77096Y-49773D01*
X77096Y-48474D01*
X77062Y-48302D01*
X77062Y-48302D01*
X76965Y-48158D01*
X74596Y-45788D01*
X74596Y-43730D01*
X74645Y-43681D01*
X74649Y-43670D01*
X74654Y-43680D01*
X74703Y-43729D01*
X74703Y-45622D01*
X74737Y-45793D01*
X74834Y-45938D01*
X77505Y-48610D01*
X77505Y-55326D01*
X77276Y-55555D01*
X76974Y-55555D01*
X76959Y-55540D01*
X76758Y-55457D01*
X76542Y-55457D01*
X76341Y-55540D01*
X76188Y-55693D01*
X76150Y-55784D01*
X76112Y-55694D01*
X75959Y-55540D01*
X75758Y-55457D01*
X75542Y-55457D01*
X75341Y-55540D01*
X75188Y-55693D01*
X75150Y-55784D01*
X75112Y-55694D01*
X74959Y-55540D01*
X74758Y-55457D01*
X74542Y-55457D01*
X74341Y-55540D01*
X74188Y-55693D01*
X74150Y-55784D01*
X74112Y-55694D01*
X73959Y-55540D01*
X73758Y-55457D01*
X73542Y-55457D01*
X73341Y-55540D01*
X73188Y-55693D01*
X73150Y-55784D01*
X73112Y-55694D01*
X72959Y-55540D01*
X72758Y-55457D01*
X72542Y-55457D01*
X72341Y-55540D01*
X72188Y-55693D01*
X72150Y-55784D01*
X72112Y-55694D01*
X71959Y-55540D01*
X71758Y-55457D01*
X71542Y-55457D01*
X71341Y-55540D01*
X71188Y-55693D01*
X71150Y-55784D01*
X71112Y-55694D01*
X70959Y-55540D01*
X70758Y-55457D01*
X70542Y-55457D01*
X70341Y-55540D01*
X70188Y-55693D01*
X70150Y-55784D01*
X70112Y-55694D01*
X69998Y-55579D01*
X69998Y-51868D01*
X69987Y-51651D01*
X69925Y-51502D01*
X69830Y-51476D01*
X69759Y-51546D01*
X69759Y-51405D01*
X69733Y-51310D01*
X69528Y-51237D01*
X69311Y-51248D01*
X69162Y-51310D01*
X69136Y-51405D01*
X69448Y-51717D01*
X69759Y-51405D01*
X69759Y-51546D01*
X69518Y-51788D01*
X69830Y-52099D01*
X69925Y-52073D01*
X69998Y-51868D01*
X69998Y-55579D01*
X69976Y-55557D01*
X69976Y-53584D01*
X69965Y-53367D01*
X69903Y-53218D01*
X69808Y-53192D01*
X69759Y-53240D01*
X69759Y-52170D01*
X69448Y-51858D01*
X69136Y-52170D01*
X69162Y-52265D01*
X69367Y-52338D01*
X69584Y-52327D01*
X69733Y-52265D01*
X69759Y-52170D01*
X69759Y-53240D01*
X69737Y-53262D01*
X69737Y-53121D01*
X69711Y-53026D01*
X69506Y-52953D01*
X69289Y-52964D01*
X69140Y-53026D01*
X69114Y-53121D01*
X69426Y-53433D01*
X69737Y-53121D01*
X69737Y-53262D01*
X69496Y-53504D01*
X69808Y-53815D01*
X69903Y-53789D01*
X69976Y-53584D01*
X69976Y-55557D01*
X69959Y-55540D01*
X69758Y-55457D01*
X69737Y-55457D01*
X69737Y-53886D01*
X69426Y-53574D01*
X69114Y-53886D01*
X69140Y-53981D01*
X69345Y-54054D01*
X69562Y-54043D01*
X69711Y-53981D01*
X69737Y-53886D01*
X69737Y-55457D01*
X69542Y-55457D01*
X69341Y-55540D01*
X69188Y-55693D01*
X69152Y-55778D01*
X69127Y-55717D01*
X69032Y-55690D01*
X68961Y-55761D01*
X68961Y-55620D01*
X68935Y-55525D01*
X68730Y-55452D01*
X68513Y-55463D01*
X68364Y-55525D01*
X68338Y-55620D01*
X68650Y-55932D01*
X68961Y-55620D01*
X68961Y-55761D01*
X68720Y-56002D01*
X69032Y-56314D01*
X69127Y-56287D01*
X69150Y-56222D01*
X69187Y-56311D01*
X69203Y-56326D01*
X69203Y-57731D01*
X69186Y-57690D01*
X69087Y-57659D01*
X69016Y-57729D01*
X69016Y-57588D01*
X68985Y-57489D01*
X68961Y-57481D01*
X68961Y-56385D01*
X68650Y-56073D01*
X68338Y-56385D01*
X68364Y-56480D01*
X68569Y-56552D01*
X68786Y-56541D01*
X68935Y-56480D01*
X68961Y-56385D01*
X68961Y-57481D01*
X68768Y-57411D01*
X68538Y-57421D01*
X68374Y-57489D01*
X68343Y-57588D01*
X68680Y-57925D01*
X69016Y-57588D01*
X69016Y-57729D01*
X68750Y-57996D01*
X69087Y-58332D01*
X69186Y-58301D01*
X69203Y-58254D01*
X69203Y-64326D01*
X69237Y-64497D01*
X69334Y-64641D01*
X70684Y-65991D01*
X70828Y-66088D01*
X71000Y-66122D01*
X72095Y-66122D01*
X72110Y-66137D01*
X72311Y-66221D01*
X72519Y-66221D01*
X72762Y-66463D01*
X72906Y-66560D01*
X73078Y-66594D01*
X75677Y-66594D01*
X75692Y-66609D01*
X75893Y-66693D01*
X76109Y-66693D01*
X76310Y-66610D01*
X76463Y-66457D01*
X76499Y-66372D01*
X76524Y-66433D01*
X76619Y-66459D01*
X76931Y-66148D01*
X76619Y-65836D01*
X76524Y-65862D01*
X76501Y-65928D01*
X76464Y-65839D01*
X76448Y-65823D01*
X76448Y-65005D01*
X77347Y-64106D01*
X80241Y-64106D01*
X80256Y-64121D01*
X80457Y-64205D01*
X80673Y-64205D01*
X80874Y-64122D01*
X81027Y-63969D01*
X81085Y-63831D01*
X81085Y-65000D01*
X80384Y-65701D01*
X79702Y-65701D01*
X79687Y-65686D01*
X79486Y-65602D01*
X79270Y-65602D01*
X79069Y-65685D01*
X78916Y-65838D01*
X78880Y-65923D01*
X78855Y-65862D01*
X78760Y-65836D01*
X78689Y-65906D01*
X78689Y-65765D01*
X78663Y-65670D01*
X78458Y-65597D01*
X78241Y-65608D01*
X78092Y-65670D01*
X78066Y-65765D01*
X78378Y-66077D01*
X78689Y-65765D01*
X78689Y-65906D01*
X78448Y-66148D01*
X78760Y-66459D01*
X78855Y-66433D01*
X78878Y-66367D01*
X78915Y-66456D01*
X79068Y-66609D01*
X79269Y-66693D01*
X79485Y-66693D01*
X79686Y-66610D01*
X79702Y-66594D01*
X80570Y-66594D01*
X80741Y-66560D01*
X80741Y-66560D01*
X80885Y-66463D01*
X81847Y-65501D01*
X81847Y-65501D01*
X81944Y-65357D01*
X81978Y-65186D01*
X81978Y-65186D01*
X81978Y-63338D01*
X81944Y-63166D01*
X81847Y-63022D01*
X81297Y-62472D01*
X81153Y-62375D01*
X80982Y-62341D01*
X80810Y-62341D01*
X82599Y-60552D01*
X82599Y-60552D01*
X82696Y-60407D01*
X82730Y-60236D01*
X82730Y-60236D01*
X82730Y-66088D01*
X82704Y-66088D01*
X82315Y-66248D01*
X82017Y-66546D01*
X81856Y-66934D01*
X81856Y-67355D01*
X82016Y-67743D01*
X82313Y-68041D01*
X82702Y-68202D01*
X83122Y-68202D01*
X83511Y-68042D01*
X83809Y-67745D01*
X83970Y-67356D01*
X83970Y-66936D01*
X83970Y-68453D01*
X78689Y-68453D01*
X78689Y-66530D01*
X78378Y-66218D01*
X78307Y-66289D01*
X78307Y-66148D01*
X77995Y-65836D01*
X77900Y-65862D01*
X77827Y-66067D01*
X77838Y-66284D01*
X77900Y-66433D01*
X77995Y-66459D01*
X78307Y-66148D01*
X78307Y-66289D01*
X78066Y-66530D01*
X78092Y-66625D01*
X78297Y-66698D01*
X78514Y-66687D01*
X78663Y-66625D01*
X78689Y-66530D01*
X78689Y-68453D01*
X77552Y-68453D01*
X77552Y-66228D01*
X77541Y-66011D01*
X77479Y-65862D01*
X77384Y-65836D01*
X77313Y-65906D01*
X77313Y-65765D01*
X77287Y-65670D01*
X77082Y-65597D01*
X76865Y-65608D01*
X76716Y-65670D01*
X76690Y-65765D01*
X77002Y-66077D01*
X77313Y-65765D01*
X77313Y-65906D01*
X77072Y-66148D01*
X77384Y-66459D01*
X77479Y-66433D01*
X77552Y-66228D01*
X77552Y-68453D01*
X77313Y-68453D01*
X77313Y-66530D01*
X77002Y-66218D01*
X76690Y-66530D01*
X76716Y-66625D01*
X76921Y-66698D01*
X77138Y-66687D01*
X77287Y-66625D01*
X77313Y-66530D01*
X77313Y-68453D01*
X56474Y-68453D01*
X56474Y-61481D01*
X56360Y-61205D01*
X56149Y-60994D01*
X55874Y-60880D01*
X55575Y-60879D01*
X55300Y-60993D01*
X55088Y-61204D01*
X54974Y-61480D01*
X54974Y-61778D01*
X55088Y-62054D01*
X55299Y-62265D01*
X55574Y-62379D01*
X55872Y-62380D01*
X56148Y-62266D01*
X56359Y-62055D01*
X56474Y-61779D01*
X56474Y-61481D01*
X56474Y-68453D01*
X54478Y-68453D01*
X54478Y-61759D01*
X54470Y-61461D01*
X54371Y-61221D01*
X54255Y-61170D01*
X54184Y-61240D01*
X54184Y-61099D01*
X54132Y-60983D01*
X53853Y-60876D01*
X53555Y-60884D01*
X53316Y-60983D01*
X53264Y-61099D01*
X53724Y-61559D01*
X54184Y-61099D01*
X54184Y-61240D01*
X53795Y-61629D01*
X54255Y-62089D01*
X54371Y-62037D01*
X54478Y-61759D01*
X54478Y-68453D01*
X54184Y-68453D01*
X54184Y-62160D01*
X53724Y-61700D01*
X53653Y-61771D01*
X53653Y-61629D01*
X53193Y-61170D01*
X53077Y-61221D01*
X52970Y-61500D01*
X52978Y-61798D01*
X53077Y-62037D01*
X53193Y-62089D01*
X53653Y-61629D01*
X53653Y-61771D01*
X53264Y-62160D01*
X53316Y-62276D01*
X53594Y-62383D01*
X53893Y-62375D01*
X54132Y-62276D01*
X54184Y-62160D01*
X54184Y-68453D01*
X52538Y-68453D01*
X52538Y-57278D01*
X52527Y-57053D01*
X52462Y-56896D01*
X52365Y-56866D01*
X52039Y-57192D01*
X52365Y-57518D01*
X52462Y-57489D01*
X52538Y-57278D01*
X52538Y-68453D01*
X52294Y-68453D01*
X52294Y-57589D01*
X51968Y-57263D01*
X51897Y-57334D01*
X51897Y-57192D01*
X51571Y-56866D01*
X51474Y-56896D01*
X51398Y-57107D01*
X51409Y-57332D01*
X51474Y-57489D01*
X51571Y-57518D01*
X51897Y-57192D01*
X51897Y-57334D01*
X51642Y-57589D01*
X51671Y-57686D01*
X51883Y-57762D01*
X52107Y-57751D01*
X52265Y-57686D01*
X52294Y-57589D01*
X52294Y-68453D01*
X49423Y-68453D01*
X49423Y-66936D01*
X49262Y-66547D01*
X48975Y-66259D01*
X48975Y-62937D01*
X48965Y-62681D01*
X48886Y-62489D01*
X48781Y-62450D01*
X48710Y-62521D01*
X48710Y-62379D01*
X48671Y-62274D01*
X48431Y-62185D01*
X48175Y-62194D01*
X47983Y-62274D01*
X47944Y-62379D01*
X48327Y-62762D01*
X48710Y-62379D01*
X48710Y-62521D01*
X48398Y-62833D01*
X48781Y-63216D01*
X48886Y-63177D01*
X48975Y-62937D01*
X48975Y-66259D01*
X48965Y-66250D01*
X48710Y-66144D01*
X48710Y-63287D01*
X48327Y-62904D01*
X48256Y-62974D01*
X48256Y-62833D01*
X47873Y-62450D01*
X47768Y-62489D01*
X47679Y-62729D01*
X47688Y-62985D01*
X47768Y-63177D01*
X47873Y-63216D01*
X48256Y-62833D01*
X48256Y-62974D01*
X47944Y-63287D01*
X47983Y-63392D01*
X48223Y-63481D01*
X48479Y-63471D01*
X48671Y-63392D01*
X48710Y-63287D01*
X48710Y-66144D01*
X48577Y-66088D01*
X48156Y-66088D01*
X47768Y-66248D01*
X47470Y-66546D01*
X47309Y-66934D01*
X47308Y-67355D01*
X47469Y-67743D01*
X47766Y-68041D01*
X48154Y-68202D01*
X48575Y-68202D01*
X48964Y-68042D01*
X49261Y-67745D01*
X49423Y-67356D01*
X49423Y-66936D01*
X49423Y-68453D01*
X46900Y-68453D01*
X46900Y-42136D01*
X57368Y-42136D01*
X57324Y-42166D01*
X56976Y-42514D01*
X56879Y-42658D01*
X56845Y-42830D01*
X56845Y-46127D01*
X56313Y-46127D01*
X55309Y-45123D01*
X55309Y-43289D01*
X55298Y-43059D01*
X55230Y-42894D01*
X55132Y-42863D01*
X55061Y-42934D01*
X55061Y-42793D01*
X55030Y-42694D01*
X54813Y-42616D01*
X54582Y-42626D01*
X54418Y-42694D01*
X54387Y-42793D01*
X54724Y-43130D01*
X55061Y-42793D01*
X55061Y-42934D01*
X54795Y-43200D01*
X55132Y-43537D01*
X55230Y-43506D01*
X55309Y-43289D01*
X55309Y-45123D01*
X55304Y-45118D01*
X55304Y-44085D01*
X55216Y-43872D01*
X55053Y-43709D01*
X55032Y-43700D01*
X55061Y-43608D01*
X54724Y-43271D01*
X54653Y-43342D01*
X54653Y-43200D01*
X54316Y-42863D01*
X54218Y-42894D01*
X54139Y-43111D01*
X54150Y-43342D01*
X54218Y-43506D01*
X54316Y-43537D01*
X54653Y-43200D01*
X54653Y-43342D01*
X54387Y-43608D01*
X54416Y-43700D01*
X54396Y-43708D01*
X54351Y-43753D01*
X51165Y-43753D01*
X50994Y-43787D01*
X50849Y-43884D01*
X49403Y-45330D01*
X49403Y-43058D01*
X49243Y-42669D01*
X48946Y-42372D01*
X48557Y-42210D01*
X48137Y-42210D01*
X47748Y-42371D01*
X47450Y-42668D01*
X47289Y-43056D01*
X47289Y-43477D01*
X47449Y-43865D01*
X47746Y-44163D01*
X48135Y-44324D01*
X48555Y-44324D01*
X48944Y-44164D01*
X49242Y-43867D01*
X49403Y-43478D01*
X49403Y-43058D01*
X49403Y-45330D01*
X48335Y-46398D01*
X48314Y-46398D01*
X48113Y-46481D01*
X47960Y-46634D01*
X47877Y-46835D01*
X47877Y-47052D01*
X47959Y-47252D01*
X48113Y-47406D01*
X48313Y-47489D01*
X48530Y-47489D01*
X48730Y-47406D01*
X48884Y-47253D01*
X48967Y-47053D01*
X48967Y-47030D01*
X51350Y-44647D01*
X54350Y-44647D01*
X54395Y-44692D01*
X54608Y-44780D01*
X54839Y-44780D01*
X55052Y-44692D01*
X55215Y-44529D01*
X55304Y-44316D01*
X55304Y-44085D01*
X55304Y-45118D01*
X55269Y-45084D01*
X55125Y-44987D01*
X54954Y-44953D01*
X52908Y-44953D01*
X52896Y-44923D01*
X52826Y-44853D01*
X52734Y-44815D01*
X52635Y-44815D01*
X51965Y-44815D01*
X51873Y-44853D01*
X51803Y-44923D01*
X51791Y-44953D01*
X51450Y-44953D01*
X51279Y-44987D01*
X51134Y-45084D01*
X48106Y-48112D01*
X48009Y-48256D01*
X47975Y-48427D01*
X47975Y-52619D01*
X47960Y-52634D01*
X47877Y-52835D01*
X47877Y-53052D01*
X47905Y-53121D01*
X47880Y-53247D01*
X47880Y-55011D01*
X47782Y-55109D01*
X47683Y-55346D01*
X47683Y-55602D01*
X47781Y-55839D01*
X47962Y-56020D01*
X48198Y-56118D01*
X48364Y-56118D01*
X48960Y-56714D01*
X48960Y-57278D01*
X48886Y-57099D01*
X48781Y-57060D01*
X48710Y-57131D01*
X48710Y-56989D01*
X48671Y-56884D01*
X48431Y-56795D01*
X48175Y-56804D01*
X47983Y-56884D01*
X47944Y-56989D01*
X48327Y-57372D01*
X48710Y-56989D01*
X48710Y-57131D01*
X48398Y-57443D01*
X48781Y-57826D01*
X48886Y-57787D01*
X48960Y-57587D01*
X48960Y-59599D01*
X48710Y-59849D01*
X48710Y-57897D01*
X48327Y-57514D01*
X48256Y-57584D01*
X48256Y-57443D01*
X47873Y-57060D01*
X47768Y-57099D01*
X47679Y-57339D01*
X47688Y-57595D01*
X47768Y-57787D01*
X47873Y-57826D01*
X48256Y-57443D01*
X48256Y-57584D01*
X47944Y-57897D01*
X47983Y-58002D01*
X48223Y-58091D01*
X48479Y-58081D01*
X48671Y-58002D01*
X48710Y-57897D01*
X48710Y-59849D01*
X48339Y-60221D01*
X48199Y-60221D01*
X47963Y-60318D01*
X47782Y-60499D01*
X47683Y-60736D01*
X47683Y-60992D01*
X47781Y-61229D01*
X47962Y-61410D01*
X48198Y-61508D01*
X48454Y-61508D01*
X48691Y-61410D01*
X48872Y-61230D01*
X48970Y-60993D01*
X48971Y-60853D01*
X49723Y-60100D01*
X49723Y-60100D01*
X49820Y-59955D01*
X49854Y-59784D01*
X49854Y-59784D01*
X49854Y-56529D01*
X49820Y-56358D01*
X49820Y-56358D01*
X49723Y-56213D01*
X48971Y-55460D01*
X48971Y-55347D01*
X48873Y-55110D01*
X48774Y-55011D01*
X48774Y-53414D01*
X48774Y-53414D01*
X48835Y-53323D01*
X48840Y-53297D01*
X48884Y-53253D01*
X48967Y-53053D01*
X48967Y-52836D01*
X48884Y-52635D01*
X48869Y-52620D01*
X48869Y-48613D01*
X51635Y-45846D01*
X51791Y-45846D01*
X51803Y-45876D01*
X51873Y-45946D01*
X51965Y-45984D01*
X52011Y-45984D01*
X52009Y-45988D01*
X52350Y-46329D01*
X52690Y-45988D01*
X52688Y-45984D01*
X52734Y-45984D01*
X52826Y-45946D01*
X52896Y-45876D01*
X52908Y-45846D01*
X54768Y-45846D01*
X55812Y-46889D01*
X55956Y-46986D01*
X55956Y-46986D01*
X56128Y-47020D01*
X56880Y-47020D01*
X56947Y-47088D01*
X57170Y-47180D01*
X57412Y-47180D01*
X57635Y-47088D01*
X57792Y-46932D01*
X57845Y-46985D01*
X57845Y-47378D01*
X57334Y-47890D01*
X57237Y-48034D01*
X57203Y-48206D01*
X57203Y-49650D01*
X56954Y-49650D01*
X56387Y-49084D01*
X56243Y-48987D01*
X56072Y-48953D01*
X52939Y-48953D01*
X52939Y-46490D01*
X52928Y-46257D01*
X52859Y-46091D01*
X52761Y-46059D01*
X52420Y-46400D01*
X52761Y-46740D01*
X52859Y-46708D01*
X52939Y-46490D01*
X52939Y-48953D01*
X52730Y-48953D01*
X52681Y-48904D01*
X52670Y-48900D01*
X52680Y-48895D01*
X52845Y-48731D01*
X52934Y-48516D01*
X52934Y-48284D01*
X52845Y-48069D01*
X52681Y-47904D01*
X52670Y-47900D01*
X52680Y-47895D01*
X52845Y-47731D01*
X52934Y-47516D01*
X52934Y-47284D01*
X52845Y-47069D01*
X52681Y-46904D01*
X52662Y-46896D01*
X52690Y-46811D01*
X52350Y-46470D01*
X52279Y-46541D01*
X52279Y-46400D01*
X51938Y-46059D01*
X51840Y-46091D01*
X51760Y-46309D01*
X51771Y-46542D01*
X51840Y-46708D01*
X51938Y-46740D01*
X52279Y-46400D01*
X52279Y-46541D01*
X52009Y-46811D01*
X52037Y-46896D01*
X52019Y-46904D01*
X51970Y-46953D01*
X50742Y-46953D01*
X50570Y-46987D01*
X50426Y-47084D01*
X49524Y-47986D01*
X49427Y-48130D01*
X49393Y-48302D01*
X49393Y-51030D01*
X49427Y-51201D01*
X49524Y-51345D01*
X51450Y-53271D01*
X51594Y-53368D01*
X51766Y-53402D01*
X56724Y-53402D01*
X57203Y-53881D01*
X57203Y-54133D01*
X57203Y-55678D01*
X57188Y-55693D01*
X57166Y-55746D01*
X52499Y-55746D01*
X52495Y-55736D01*
X52425Y-55666D01*
X52333Y-55627D01*
X52233Y-55627D01*
X51604Y-55627D01*
X51512Y-55665D01*
X51441Y-55736D01*
X51403Y-55828D01*
X51403Y-55927D01*
X51403Y-56557D01*
X51441Y-56649D01*
X51511Y-56719D01*
X51603Y-56757D01*
X51653Y-56757D01*
X51642Y-56796D01*
X51968Y-57122D01*
X52294Y-56796D01*
X52283Y-56757D01*
X52332Y-56757D01*
X52424Y-56719D01*
X52495Y-56649D01*
X52499Y-56639D01*
X57203Y-56639D01*
X57203Y-57283D01*
X56389Y-58096D01*
X54817Y-58096D01*
X54646Y-58130D01*
X54501Y-58227D01*
X53834Y-58894D01*
X53567Y-58893D01*
X53292Y-59007D01*
X53080Y-59218D01*
X52966Y-59494D01*
X52966Y-59792D01*
X53080Y-60068D01*
X53291Y-60279D01*
X53566Y-60393D01*
X53864Y-60394D01*
X54140Y-60280D01*
X54351Y-60069D01*
X54466Y-59793D01*
X54466Y-59525D01*
X55002Y-58990D01*
X55308Y-58990D01*
X55300Y-58993D01*
X55088Y-59204D01*
X54974Y-59480D01*
X54974Y-59778D01*
X55088Y-60054D01*
X55299Y-60265D01*
X55574Y-60379D01*
X55872Y-60380D01*
X56148Y-60266D01*
X56359Y-60055D01*
X56474Y-59779D01*
X56474Y-59481D01*
X56360Y-59205D01*
X56149Y-58994D01*
X56139Y-58990D01*
X56574Y-58990D01*
X56745Y-58956D01*
X56745Y-58956D01*
X56890Y-58859D01*
X57965Y-57784D01*
X58062Y-57639D01*
X58062Y-57639D01*
X58096Y-57468D01*
X58096Y-56327D01*
X58111Y-56312D01*
X58149Y-56220D01*
X58187Y-56311D01*
X58203Y-56326D01*
X58203Y-62284D01*
X57644Y-62844D01*
X57547Y-62988D01*
X57513Y-63160D01*
X57513Y-64865D01*
X57461Y-64887D01*
X57391Y-64957D01*
X57353Y-65049D01*
X57353Y-65148D01*
X57353Y-65862D01*
X57391Y-65954D01*
X57461Y-66024D01*
X57553Y-66062D01*
X57652Y-66062D01*
X58366Y-66062D01*
X58458Y-66024D01*
X58528Y-65954D01*
X58549Y-65903D01*
X58615Y-65970D01*
X58838Y-66062D01*
X59080Y-66062D01*
X59303Y-65970D01*
X59460Y-65814D01*
X59615Y-65970D01*
X59838Y-66062D01*
X60080Y-66062D01*
X60303Y-65970D01*
X60460Y-65814D01*
X60615Y-65970D01*
X60838Y-66062D01*
X61080Y-66062D01*
X61303Y-65970D01*
X61460Y-65814D01*
X61615Y-65970D01*
X61838Y-66062D01*
X62080Y-66062D01*
X62303Y-65970D01*
X62460Y-65814D01*
X62615Y-65970D01*
X62838Y-66062D01*
X63080Y-66062D01*
X63303Y-65970D01*
X63460Y-65814D01*
X63615Y-65970D01*
X63838Y-66062D01*
X63868Y-66062D01*
X64584Y-66777D01*
X64728Y-66874D01*
X64900Y-66908D01*
X68140Y-66908D01*
X68311Y-66874D01*
X68311Y-66874D01*
X68455Y-66777D01*
X68652Y-66581D01*
X68673Y-66581D01*
X68874Y-66498D01*
X69027Y-66345D01*
X69111Y-66144D01*
X69111Y-65928D01*
X69111Y-59928D01*
X69028Y-59727D01*
X69016Y-59715D01*
X69016Y-58403D01*
X68680Y-58066D01*
X68343Y-58403D01*
X68374Y-58502D01*
X68591Y-58580D01*
X68821Y-58570D01*
X68985Y-58502D01*
X69016Y-58403D01*
X69016Y-59715D01*
X68875Y-59574D01*
X68674Y-59490D01*
X68652Y-59490D01*
X68126Y-58964D01*
X68126Y-58369D01*
X68171Y-58324D01*
X68180Y-58303D01*
X68272Y-58332D01*
X68609Y-57996D01*
X68272Y-57659D01*
X68180Y-57688D01*
X68171Y-57667D01*
X68008Y-57504D01*
X67795Y-57416D01*
X67565Y-57415D01*
X67351Y-57504D01*
X67188Y-57667D01*
X67100Y-57880D01*
X67099Y-58110D01*
X67188Y-58324D01*
X67233Y-58369D01*
X67233Y-59150D01*
X67267Y-59321D01*
X67364Y-59465D01*
X68020Y-60122D01*
X68020Y-60143D01*
X68103Y-60344D01*
X68256Y-60497D01*
X68457Y-60581D01*
X68673Y-60581D01*
X68874Y-60498D01*
X69027Y-60345D01*
X69111Y-60144D01*
X69111Y-59928D01*
X69111Y-65928D01*
X69028Y-65727D01*
X68875Y-65574D01*
X68674Y-65490D01*
X68458Y-65490D01*
X68257Y-65573D01*
X68104Y-65726D01*
X68020Y-65927D01*
X68020Y-65949D01*
X67954Y-66015D01*
X67195Y-66015D01*
X67303Y-65970D01*
X67474Y-65800D01*
X67566Y-65577D01*
X67566Y-65335D01*
X67474Y-65112D01*
X67304Y-64941D01*
X67081Y-64849D01*
X66839Y-64849D01*
X66616Y-64941D01*
X66459Y-65097D01*
X66406Y-65044D01*
X66406Y-64845D01*
X66965Y-64285D01*
X66965Y-64285D01*
X67062Y-64141D01*
X67096Y-63970D01*
X67096Y-63970D01*
X67096Y-56327D01*
X67111Y-56312D01*
X67149Y-56220D01*
X67187Y-56311D01*
X67340Y-56464D01*
X67541Y-56547D01*
X67757Y-56548D01*
X67958Y-56465D01*
X68111Y-56312D01*
X68147Y-56226D01*
X68172Y-56287D01*
X68267Y-56314D01*
X68579Y-56002D01*
X68267Y-55690D01*
X68172Y-55717D01*
X68149Y-55783D01*
X68112Y-55694D01*
X68096Y-55678D01*
X68096Y-54465D01*
X68512Y-54049D01*
X68533Y-54049D01*
X68734Y-53966D01*
X68887Y-53813D01*
X68923Y-53728D01*
X68948Y-53789D01*
X69043Y-53815D01*
X69355Y-53504D01*
X69043Y-53192D01*
X68948Y-53218D01*
X68925Y-53284D01*
X68888Y-53195D01*
X68872Y-53179D01*
X68872Y-52134D01*
X68909Y-52097D01*
X68945Y-52012D01*
X68970Y-52073D01*
X69065Y-52099D01*
X69377Y-51788D01*
X69065Y-51476D01*
X68970Y-51502D01*
X68947Y-51568D01*
X68910Y-51479D01*
X68757Y-51326D01*
X68556Y-51242D01*
X68340Y-51242D01*
X68139Y-51325D01*
X68123Y-51341D01*
X66961Y-51341D01*
X66961Y-50479D01*
X66650Y-50167D01*
X66338Y-50479D01*
X66364Y-50574D01*
X66569Y-50647D01*
X66786Y-50636D01*
X66935Y-50574D01*
X66961Y-50479D01*
X66961Y-51341D01*
X66647Y-51341D01*
X66096Y-50790D01*
X66096Y-50421D01*
X66111Y-50406D01*
X66147Y-50321D01*
X66172Y-50382D01*
X66267Y-50409D01*
X66579Y-50097D01*
X66267Y-49785D01*
X66172Y-49812D01*
X66149Y-49877D01*
X66112Y-49788D01*
X66096Y-49773D01*
X66096Y-49749D01*
X66579Y-49265D01*
X66579Y-49265D01*
X66676Y-49121D01*
X66710Y-48950D01*
X66710Y-48950D01*
X66710Y-42856D01*
X66676Y-42684D01*
X66579Y-42540D01*
X66205Y-42166D01*
X66161Y-42136D01*
X84201Y-42136D01*
X84201Y-68453D01*
X84201Y-68453D01*
G37*
G54D24*
X84201Y-68453D02*
X83970Y-68453D01*
X83970Y-66936D01*
X83970Y-43019D01*
X83810Y-42630D01*
X83512Y-42332D01*
X83124Y-42171D01*
X82704Y-42171D01*
X82315Y-42331D01*
X82017Y-42628D01*
X81856Y-43017D01*
X81856Y-43437D01*
X82016Y-43826D01*
X82313Y-44123D01*
X82702Y-44285D01*
X83122Y-44285D01*
X83511Y-44125D01*
X83809Y-43827D01*
X83970Y-43439D01*
X83970Y-43019D01*
X83970Y-66936D01*
X83810Y-66547D01*
X83512Y-66250D01*
X83124Y-66088D01*
X82730Y-66088D01*
X82730Y-60236D01*
X82730Y-54480D01*
X82696Y-54309D01*
X82696Y-54309D01*
X82599Y-54164D01*
X81891Y-53456D01*
X81891Y-53435D01*
X81808Y-53234D01*
X81655Y-53081D01*
X81455Y-52998D01*
X81238Y-52997D01*
X81037Y-53080D01*
X80884Y-53234D01*
X80801Y-53434D01*
X80801Y-53651D01*
X80883Y-53851D01*
X81037Y-54005D01*
X81237Y-54088D01*
X81259Y-54088D01*
X81350Y-54179D01*
X81238Y-54179D01*
X81037Y-54261D01*
X80884Y-54415D01*
X80801Y-54615D01*
X80801Y-54832D01*
X80883Y-55032D01*
X80901Y-55050D01*
X80901Y-59263D01*
X79662Y-60503D01*
X78980Y-60503D01*
X78931Y-60454D01*
X78716Y-60365D01*
X78484Y-60365D01*
X78269Y-60454D01*
X78104Y-60618D01*
X78100Y-60629D01*
X78095Y-60619D01*
X77931Y-60454D01*
X77716Y-60365D01*
X77484Y-60365D01*
X77269Y-60454D01*
X77104Y-60618D01*
X77100Y-60629D01*
X77095Y-60619D01*
X77046Y-60570D01*
X77046Y-59018D01*
X77350Y-58714D01*
X79133Y-58714D01*
X79304Y-58680D01*
X79304Y-58680D01*
X79449Y-58583D01*
X80630Y-57402D01*
X80630Y-57402D01*
X80727Y-57257D01*
X80761Y-57086D01*
X80761Y-57086D01*
X80761Y-52940D01*
X80893Y-52809D01*
X81022Y-52809D01*
X81037Y-52824D01*
X81237Y-52907D01*
X81454Y-52907D01*
X81654Y-52824D01*
X81808Y-52671D01*
X81891Y-52471D01*
X81891Y-52254D01*
X81808Y-52053D01*
X81655Y-51900D01*
X81455Y-51817D01*
X81238Y-51816D01*
X81037Y-51899D01*
X81022Y-51915D01*
X80708Y-51915D01*
X80537Y-51949D01*
X80392Y-52046D01*
X79998Y-52439D01*
X79974Y-52476D01*
X79974Y-51759D01*
X80106Y-51627D01*
X81022Y-51627D01*
X81037Y-51643D01*
X81237Y-51726D01*
X81454Y-51726D01*
X81654Y-51643D01*
X81808Y-51490D01*
X81891Y-51290D01*
X81891Y-51073D01*
X81808Y-50872D01*
X81655Y-50719D01*
X81455Y-50635D01*
X81238Y-50635D01*
X81037Y-50718D01*
X81022Y-50734D01*
X79921Y-50734D01*
X79750Y-50768D01*
X79605Y-50865D01*
X79211Y-51258D01*
X79187Y-51295D01*
X79187Y-48031D01*
X79152Y-47860D01*
X79152Y-47860D01*
X79056Y-47715D01*
X76596Y-45256D01*
X76596Y-43908D01*
X76626Y-43896D01*
X76696Y-43826D01*
X76734Y-43734D01*
X76734Y-43635D01*
X76734Y-42965D01*
X76696Y-42873D01*
X76626Y-42803D01*
X76534Y-42765D01*
X76435Y-42765D01*
X75765Y-42765D01*
X75673Y-42803D01*
X75603Y-42873D01*
X75573Y-42946D01*
X75481Y-42854D01*
X75266Y-42765D01*
X75034Y-42765D01*
X74819Y-42854D01*
X74654Y-43018D01*
X74650Y-43029D01*
X74645Y-43019D01*
X74481Y-42854D01*
X74266Y-42765D01*
X74034Y-42765D01*
X73819Y-42854D01*
X73654Y-43018D01*
X73650Y-43029D01*
X73645Y-43019D01*
X73481Y-42854D01*
X73266Y-42765D01*
X73034Y-42765D01*
X72819Y-42854D01*
X72654Y-43018D01*
X72650Y-43029D01*
X72645Y-43019D01*
X72481Y-42854D01*
X72266Y-42765D01*
X72034Y-42765D01*
X71819Y-42854D01*
X71654Y-43018D01*
X71650Y-43029D01*
X71645Y-43019D01*
X71481Y-42854D01*
X71266Y-42765D01*
X71034Y-42765D01*
X70819Y-42854D01*
X70654Y-43018D01*
X70650Y-43029D01*
X70645Y-43019D01*
X70481Y-42854D01*
X70266Y-42765D01*
X70034Y-42765D01*
X69819Y-42854D01*
X69654Y-43018D01*
X69650Y-43029D01*
X69645Y-43019D01*
X69481Y-42854D01*
X69266Y-42765D01*
X69034Y-42765D01*
X68819Y-42854D01*
X68654Y-43018D01*
X68565Y-43233D01*
X68565Y-43465D01*
X68654Y-43680D01*
X68703Y-43729D01*
X68703Y-46410D01*
X67334Y-47780D01*
X67237Y-47924D01*
X67203Y-48096D01*
X67203Y-49772D01*
X67188Y-49787D01*
X67152Y-49873D01*
X67127Y-49812D01*
X67032Y-49785D01*
X66961Y-49856D01*
X66961Y-49714D01*
X66935Y-49619D01*
X66730Y-49547D01*
X66513Y-49558D01*
X66364Y-49619D01*
X66338Y-49714D01*
X66650Y-50026D01*
X66961Y-49714D01*
X66961Y-49856D01*
X66720Y-50097D01*
X67032Y-50409D01*
X67127Y-50382D01*
X67150Y-50316D01*
X67187Y-50405D01*
X67340Y-50559D01*
X67541Y-50642D01*
X67757Y-50642D01*
X67958Y-50559D01*
X68111Y-50406D01*
X68149Y-50315D01*
X68187Y-50405D01*
X68340Y-50559D01*
X68541Y-50642D01*
X68757Y-50642D01*
X68958Y-50559D01*
X69111Y-50406D01*
X69149Y-50315D01*
X69187Y-50405D01*
X69340Y-50559D01*
X69541Y-50642D01*
X69757Y-50642D01*
X69958Y-50559D01*
X70111Y-50406D01*
X70149Y-50315D01*
X70187Y-50405D01*
X70340Y-50559D01*
X70541Y-50642D01*
X70757Y-50642D01*
X70958Y-50559D01*
X71111Y-50406D01*
X71149Y-50315D01*
X71187Y-50405D01*
X71203Y-50421D01*
X71203Y-51027D01*
X71237Y-51198D01*
X71334Y-51343D01*
X74801Y-54811D01*
X74801Y-54832D01*
X74883Y-55032D01*
X75037Y-55186D01*
X75237Y-55269D01*
X75454Y-55269D01*
X75654Y-55186D01*
X75808Y-55033D01*
X75891Y-54833D01*
X75891Y-54616D01*
X75808Y-54415D01*
X75655Y-54262D01*
X75455Y-54179D01*
X75433Y-54179D01*
X75342Y-54088D01*
X75454Y-54088D01*
X75654Y-54005D01*
X75808Y-53852D01*
X75891Y-53652D01*
X75891Y-53435D01*
X75808Y-53234D01*
X75655Y-53081D01*
X75455Y-52998D01*
X75433Y-52998D01*
X75342Y-52907D01*
X75454Y-52907D01*
X75654Y-52824D01*
X75808Y-52671D01*
X75891Y-52471D01*
X75891Y-52254D01*
X75808Y-52053D01*
X75655Y-51900D01*
X75455Y-51817D01*
X75433Y-51817D01*
X75342Y-51726D01*
X75454Y-51726D01*
X75654Y-51643D01*
X75808Y-51490D01*
X75891Y-51290D01*
X75891Y-51073D01*
X75808Y-50872D01*
X75655Y-50719D01*
X75455Y-50635D01*
X75433Y-50635D01*
X75367Y-50570D01*
X75541Y-50642D01*
X75757Y-50642D01*
X75958Y-50559D01*
X76111Y-50406D01*
X76149Y-50315D01*
X76187Y-50405D01*
X76340Y-50559D01*
X76541Y-50642D01*
X76757Y-50642D01*
X76958Y-50559D01*
X77111Y-50406D01*
X77195Y-50206D01*
X77195Y-49989D01*
X77112Y-49788D01*
X77096Y-49773D01*
X77096Y-48474D01*
X77062Y-48302D01*
X77062Y-48302D01*
X76965Y-48158D01*
X74596Y-45788D01*
X74596Y-43730D01*
X74645Y-43681D01*
X74649Y-43670D01*
X74654Y-43680D01*
X74703Y-43729D01*
X74703Y-45622D01*
X74737Y-45793D01*
X74834Y-45938D01*
X77505Y-48610D01*
X77505Y-55326D01*
X77276Y-55555D01*
X76974Y-55555D01*
X76959Y-55540D01*
X76758Y-55457D01*
X76542Y-55457D01*
X76341Y-55540D01*
X76188Y-55693D01*
X76150Y-55784D01*
X76112Y-55694D01*
X75959Y-55540D01*
X75758Y-55457D01*
X75542Y-55457D01*
X75341Y-55540D01*
X75188Y-55693D01*
X75150Y-55784D01*
X75112Y-55694D01*
X74959Y-55540D01*
X74758Y-55457D01*
X74542Y-55457D01*
X74341Y-55540D01*
X74188Y-55693D01*
X74150Y-55784D01*
X74112Y-55694D01*
X73959Y-55540D01*
X73758Y-55457D01*
X73542Y-55457D01*
X73341Y-55540D01*
X73188Y-55693D01*
X73150Y-55784D01*
X73112Y-55694D01*
X72959Y-55540D01*
X72758Y-55457D01*
X72542Y-55457D01*
X72341Y-55540D01*
X72188Y-55693D01*
X72150Y-55784D01*
X72112Y-55694D01*
X71959Y-55540D01*
X71758Y-55457D01*
X71542Y-55457D01*
X71341Y-55540D01*
X71188Y-55693D01*
X71150Y-55784D01*
X71112Y-55694D01*
X70959Y-55540D01*
X70758Y-55457D01*
X70542Y-55457D01*
X70341Y-55540D01*
X70188Y-55693D01*
X70150Y-55784D01*
X70112Y-55694D01*
X69998Y-55579D01*
X69998Y-51868D01*
X69987Y-51651D01*
X69925Y-51502D01*
X69830Y-51476D01*
X69759Y-51546D01*
X69759Y-51405D01*
X69733Y-51310D01*
X69528Y-51237D01*
X69311Y-51248D01*
X69162Y-51310D01*
X69136Y-51405D01*
X69448Y-51717D01*
X69759Y-51405D01*
X69759Y-51546D01*
X69518Y-51788D01*
X69830Y-52099D01*
X69925Y-52073D01*
X69998Y-51868D01*
X69998Y-55579D01*
X69976Y-55557D01*
X69976Y-53584D01*
X69965Y-53367D01*
X69903Y-53218D01*
X69808Y-53192D01*
X69759Y-53240D01*
X69759Y-52170D01*
X69448Y-51858D01*
X69136Y-52170D01*
X69162Y-52265D01*
X69367Y-52338D01*
X69584Y-52327D01*
X69733Y-52265D01*
X69759Y-52170D01*
X69759Y-53240D01*
X69737Y-53262D01*
X69737Y-53121D01*
X69711Y-53026D01*
X69506Y-52953D01*
X69289Y-52964D01*
X69140Y-53026D01*
X69114Y-53121D01*
X69426Y-53433D01*
X69737Y-53121D01*
X69737Y-53262D01*
X69496Y-53504D01*
X69808Y-53815D01*
X69903Y-53789D01*
X69976Y-53584D01*
X69976Y-55557D01*
X69959Y-55540D01*
X69758Y-55457D01*
X69737Y-55457D01*
X69737Y-53886D01*
X69426Y-53574D01*
X69114Y-53886D01*
X69140Y-53981D01*
X69345Y-54054D01*
X69562Y-54043D01*
X69711Y-53981D01*
X69737Y-53886D01*
X69737Y-55457D01*
X69542Y-55457D01*
X69341Y-55540D01*
X69188Y-55693D01*
X69152Y-55778D01*
X69127Y-55717D01*
X69032Y-55690D01*
X68961Y-55761D01*
X68961Y-55620D01*
X68935Y-55525D01*
X68730Y-55452D01*
X68513Y-55463D01*
X68364Y-55525D01*
X68338Y-55620D01*
X68650Y-55932D01*
X68961Y-55620D01*
X68961Y-55761D01*
X68720Y-56002D01*
X69032Y-56314D01*
X69127Y-56287D01*
X69150Y-56222D01*
X69187Y-56311D01*
X69203Y-56326D01*
X69203Y-57731D01*
X69186Y-57690D01*
X69087Y-57659D01*
X69016Y-57729D01*
X69016Y-57588D01*
X68985Y-57489D01*
X68961Y-57481D01*
X68961Y-56385D01*
X68650Y-56073D01*
X68338Y-56385D01*
X68364Y-56480D01*
X68569Y-56552D01*
X68786Y-56541D01*
X68935Y-56480D01*
X68961Y-56385D01*
X68961Y-57481D01*
X68768Y-57411D01*
X68538Y-57421D01*
X68374Y-57489D01*
X68343Y-57588D01*
X68680Y-57925D01*
X69016Y-57588D01*
X69016Y-57729D01*
X68750Y-57996D01*
X69087Y-58332D01*
X69186Y-58301D01*
X69203Y-58254D01*
X69203Y-64326D01*
X69237Y-64497D01*
X69334Y-64641D01*
X70684Y-65991D01*
X70828Y-66088D01*
X71000Y-66122D01*
X72095Y-66122D01*
X72110Y-66137D01*
X72311Y-66221D01*
X72519Y-66221D01*
X72762Y-66463D01*
X72906Y-66560D01*
X73078Y-66594D01*
X75677Y-66594D01*
X75692Y-66609D01*
X75893Y-66693D01*
X76109Y-66693D01*
X76310Y-66610D01*
X76463Y-66457D01*
X76499Y-66372D01*
X76524Y-66433D01*
X76619Y-66459D01*
X76931Y-66148D01*
X76619Y-65836D01*
X76524Y-65862D01*
X76501Y-65928D01*
X76464Y-65839D01*
X76448Y-65823D01*
X76448Y-65005D01*
X77347Y-64106D01*
X80241Y-64106D01*
X80256Y-64121D01*
X80457Y-64205D01*
X80673Y-64205D01*
X80874Y-64122D01*
X81027Y-63969D01*
X81085Y-63831D01*
X81085Y-65000D01*
X80384Y-65701D01*
X79702Y-65701D01*
X79687Y-65686D01*
X79486Y-65602D01*
X79270Y-65602D01*
X79069Y-65685D01*
X78916Y-65838D01*
X78880Y-65923D01*
X78855Y-65862D01*
X78760Y-65836D01*
X78689Y-65906D01*
X78689Y-65765D01*
X78663Y-65670D01*
X78458Y-65597D01*
X78241Y-65608D01*
X78092Y-65670D01*
X78066Y-65765D01*
X78378Y-66077D01*
X78689Y-65765D01*
X78689Y-65906D01*
X78448Y-66148D01*
X78760Y-66459D01*
X78855Y-66433D01*
X78878Y-66367D01*
X78915Y-66456D01*
X79068Y-66609D01*
X79269Y-66693D01*
X79485Y-66693D01*
X79686Y-66610D01*
X79702Y-66594D01*
X80570Y-66594D01*
X80741Y-66560D01*
X80741Y-66560D01*
X80885Y-66463D01*
X81847Y-65501D01*
X81847Y-65501D01*
X81944Y-65357D01*
X81978Y-65186D01*
X81978Y-65186D01*
X81978Y-63338D01*
X81944Y-63166D01*
X81847Y-63022D01*
X81297Y-62472D01*
X81153Y-62375D01*
X80982Y-62341D01*
X80810Y-62341D01*
X82599Y-60552D01*
X82599Y-60552D01*
X82696Y-60407D01*
X82730Y-60236D01*
X82730Y-60236D01*
X82730Y-66088D01*
X82704Y-66088D01*
X82315Y-66248D01*
X82017Y-66546D01*
X81856Y-66934D01*
X81856Y-67355D01*
X82016Y-67743D01*
X82313Y-68041D01*
X82702Y-68202D01*
X83122Y-68202D01*
X83511Y-68042D01*
X83809Y-67745D01*
X83970Y-67356D01*
X83970Y-66936D01*
X83970Y-68453D01*
X78689Y-68453D01*
X78689Y-66530D01*
X78378Y-66218D01*
X78307Y-66289D01*
X78307Y-66148D01*
X77995Y-65836D01*
X77900Y-65862D01*
X77827Y-66067D01*
X77838Y-66284D01*
X77900Y-66433D01*
X77995Y-66459D01*
X78307Y-66148D01*
X78307Y-66289D01*
X78066Y-66530D01*
X78092Y-66625D01*
X78297Y-66698D01*
X78514Y-66687D01*
X78663Y-66625D01*
X78689Y-66530D01*
X78689Y-68453D01*
X77552Y-68453D01*
X77552Y-66228D01*
X77541Y-66011D01*
X77479Y-65862D01*
X77384Y-65836D01*
X77313Y-65906D01*
X77313Y-65765D01*
X77287Y-65670D01*
X77082Y-65597D01*
X76865Y-65608D01*
X76716Y-65670D01*
X76690Y-65765D01*
X77002Y-66077D01*
X77313Y-65765D01*
X77313Y-65906D01*
X77072Y-66148D01*
X77384Y-66459D01*
X77479Y-66433D01*
X77552Y-66228D01*
X77552Y-68453D01*
X77313Y-68453D01*
X77313Y-66530D01*
X77002Y-66218D01*
X76690Y-66530D01*
X76716Y-66625D01*
X76921Y-66698D01*
X77138Y-66687D01*
X77287Y-66625D01*
X77313Y-66530D01*
X77313Y-68453D01*
X56474Y-68453D01*
X56474Y-61481D01*
X56360Y-61205D01*
X56149Y-60994D01*
X55874Y-60880D01*
X55575Y-60879D01*
X55300Y-60993D01*
X55088Y-61204D01*
X54974Y-61480D01*
X54974Y-61778D01*
X55088Y-62054D01*
X55299Y-62265D01*
X55574Y-62379D01*
X55872Y-62380D01*
X56148Y-62266D01*
X56359Y-62055D01*
X56474Y-61779D01*
X56474Y-61481D01*
X56474Y-68453D01*
X54478Y-68453D01*
X54478Y-61759D01*
X54470Y-61461D01*
X54371Y-61221D01*
X54255Y-61170D01*
X54184Y-61240D01*
X54184Y-61099D01*
X54132Y-60983D01*
X53853Y-60876D01*
X53555Y-60884D01*
X53316Y-60983D01*
X53264Y-61099D01*
X53724Y-61559D01*
X54184Y-61099D01*
X54184Y-61240D01*
X53795Y-61629D01*
X54255Y-62089D01*
X54371Y-62037D01*
X54478Y-61759D01*
X54478Y-68453D01*
X54184Y-68453D01*
X54184Y-62160D01*
X53724Y-61700D01*
X53653Y-61771D01*
X53653Y-61629D01*
X53193Y-61170D01*
X53077Y-61221D01*
X52970Y-61500D01*
X52978Y-61798D01*
X53077Y-62037D01*
X53193Y-62089D01*
X53653Y-61629D01*
X53653Y-61771D01*
X53264Y-62160D01*
X53316Y-62276D01*
X53594Y-62383D01*
X53893Y-62375D01*
X54132Y-62276D01*
X54184Y-62160D01*
X54184Y-68453D01*
X52538Y-68453D01*
X52538Y-57278D01*
X52527Y-57053D01*
X52462Y-56896D01*
X52365Y-56866D01*
X52039Y-57192D01*
X52365Y-57518D01*
X52462Y-57489D01*
X52538Y-57278D01*
X52538Y-68453D01*
X52294Y-68453D01*
X52294Y-57589D01*
X51968Y-57263D01*
X51897Y-57334D01*
X51897Y-57192D01*
X51571Y-56866D01*
X51474Y-56896D01*
X51398Y-57107D01*
X51409Y-57332D01*
X51474Y-57489D01*
X51571Y-57518D01*
X51897Y-57192D01*
X51897Y-57334D01*
X51642Y-57589D01*
X51671Y-57686D01*
X51883Y-57762D01*
X52107Y-57751D01*
X52265Y-57686D01*
X52294Y-57589D01*
X52294Y-68453D01*
X49423Y-68453D01*
X49423Y-66936D01*
X49262Y-66547D01*
X48975Y-66259D01*
X48975Y-62937D01*
X48965Y-62681D01*
X48886Y-62489D01*
X48781Y-62450D01*
X48710Y-62521D01*
X48710Y-62379D01*
X48671Y-62274D01*
X48431Y-62185D01*
X48175Y-62194D01*
X47983Y-62274D01*
X47944Y-62379D01*
X48327Y-62762D01*
X48710Y-62379D01*
X48710Y-62521D01*
X48398Y-62833D01*
X48781Y-63216D01*
X48886Y-63177D01*
X48975Y-62937D01*
X48975Y-66259D01*
X48965Y-66250D01*
X48710Y-66144D01*
X48710Y-63287D01*
X48327Y-62904D01*
X48256Y-62974D01*
X48256Y-62833D01*
X47873Y-62450D01*
X47768Y-62489D01*
X47679Y-62729D01*
X47688Y-62985D01*
X47768Y-63177D01*
X47873Y-63216D01*
X48256Y-62833D01*
X48256Y-62974D01*
X47944Y-63287D01*
X47983Y-63392D01*
X48223Y-63481D01*
X48479Y-63471D01*
X48671Y-63392D01*
X48710Y-63287D01*
X48710Y-66144D01*
X48577Y-66088D01*
X48156Y-66088D01*
X47768Y-66248D01*
X47470Y-66546D01*
X47309Y-66934D01*
X47308Y-67355D01*
X47469Y-67743D01*
X47766Y-68041D01*
X48154Y-68202D01*
X48575Y-68202D01*
X48964Y-68042D01*
X49261Y-67745D01*
X49423Y-67356D01*
X49423Y-66936D01*
X49423Y-68453D01*
X46900Y-68453D01*
X46900Y-42136D01*
X57368Y-42136D01*
X57324Y-42166D01*
X56976Y-42514D01*
X56879Y-42658D01*
X56845Y-42830D01*
X56845Y-46127D01*
X56313Y-46127D01*
X55309Y-45123D01*
X55309Y-43289D01*
X55298Y-43059D01*
X55230Y-42894D01*
X55132Y-42863D01*
X55061Y-42934D01*
X55061Y-42793D01*
X55030Y-42694D01*
X54813Y-42616D01*
X54582Y-42626D01*
X54418Y-42694D01*
X54387Y-42793D01*
X54724Y-43130D01*
X55061Y-42793D01*
X55061Y-42934D01*
X54795Y-43200D01*
X55132Y-43537D01*
X55230Y-43506D01*
X55309Y-43289D01*
X55309Y-45123D01*
X55304Y-45118D01*
X55304Y-44085D01*
X55216Y-43872D01*
X55053Y-43709D01*
X55032Y-43700D01*
X55061Y-43608D01*
X54724Y-43271D01*
X54653Y-43342D01*
X54653Y-43200D01*
X54316Y-42863D01*
X54218Y-42894D01*
X54139Y-43111D01*
X54150Y-43342D01*
X54218Y-43506D01*
X54316Y-43537D01*
X54653Y-43200D01*
X54653Y-43342D01*
X54387Y-43608D01*
X54416Y-43700D01*
X54396Y-43708D01*
X54351Y-43753D01*
X51165Y-43753D01*
X50994Y-43787D01*
X50849Y-43884D01*
X49403Y-45330D01*
X49403Y-43058D01*
X49243Y-42669D01*
X48946Y-42372D01*
X48557Y-42210D01*
X48137Y-42210D01*
X47748Y-42371D01*
X47450Y-42668D01*
X47289Y-43056D01*
X47289Y-43477D01*
X47449Y-43865D01*
X47746Y-44163D01*
X48135Y-44324D01*
X48555Y-44324D01*
X48944Y-44164D01*
X49242Y-43867D01*
X49403Y-43478D01*
X49403Y-43058D01*
X49403Y-45330D01*
X48335Y-46398D01*
X48314Y-46398D01*
X48113Y-46481D01*
X47960Y-46634D01*
X47877Y-46835D01*
X47877Y-47052D01*
X47959Y-47252D01*
X48113Y-47406D01*
X48313Y-47489D01*
X48530Y-47489D01*
X48730Y-47406D01*
X48884Y-47253D01*
X48967Y-47053D01*
X48967Y-47030D01*
X51350Y-44647D01*
X54350Y-44647D01*
X54395Y-44692D01*
X54608Y-44780D01*
X54839Y-44780D01*
X55052Y-44692D01*
X55215Y-44529D01*
X55304Y-44316D01*
X55304Y-44085D01*
X55304Y-45118D01*
X55269Y-45084D01*
X55125Y-44987D01*
X54954Y-44953D01*
X52908Y-44953D01*
X52896Y-44923D01*
X52826Y-44853D01*
X52734Y-44815D01*
X52635Y-44815D01*
X51965Y-44815D01*
X51873Y-44853D01*
X51803Y-44923D01*
X51791Y-44953D01*
X51450Y-44953D01*
X51279Y-44987D01*
X51134Y-45084D01*
X48106Y-48112D01*
X48009Y-48256D01*
X47975Y-48427D01*
X47975Y-52619D01*
X47960Y-52634D01*
X47877Y-52835D01*
X47877Y-53052D01*
X47905Y-53121D01*
X47880Y-53247D01*
X47880Y-55011D01*
X47782Y-55109D01*
X47683Y-55346D01*
X47683Y-55602D01*
X47781Y-55839D01*
X47962Y-56020D01*
X48198Y-56118D01*
X48364Y-56118D01*
X48960Y-56714D01*
X48960Y-57278D01*
X48886Y-57099D01*
X48781Y-57060D01*
X48710Y-57131D01*
X48710Y-56989D01*
X48671Y-56884D01*
X48431Y-56795D01*
X48175Y-56804D01*
X47983Y-56884D01*
X47944Y-56989D01*
X48327Y-57372D01*
X48710Y-56989D01*
X48710Y-57131D01*
X48398Y-57443D01*
X48781Y-57826D01*
X48886Y-57787D01*
X48960Y-57587D01*
X48960Y-59599D01*
X48710Y-59849D01*
X48710Y-57897D01*
X48327Y-57514D01*
X48256Y-57584D01*
X48256Y-57443D01*
X47873Y-57060D01*
X47768Y-57099D01*
X47679Y-57339D01*
X47688Y-57595D01*
X47768Y-57787D01*
X47873Y-57826D01*
X48256Y-57443D01*
X48256Y-57584D01*
X47944Y-57897D01*
X47983Y-58002D01*
X48223Y-58091D01*
X48479Y-58081D01*
X48671Y-58002D01*
X48710Y-57897D01*
X48710Y-59849D01*
X48339Y-60221D01*
X48199Y-60221D01*
X47963Y-60318D01*
X47782Y-60499D01*
X47683Y-60736D01*
X47683Y-60992D01*
X47781Y-61229D01*
X47962Y-61410D01*
X48198Y-61508D01*
X48454Y-61508D01*
X48691Y-61410D01*
X48872Y-61230D01*
X48970Y-60993D01*
X48971Y-60853D01*
X49723Y-60100D01*
X49723Y-60100D01*
X49820Y-59955D01*
X49854Y-59784D01*
X49854Y-59784D01*
X49854Y-56529D01*
X49820Y-56358D01*
X49820Y-56358D01*
X49723Y-56213D01*
X48971Y-55460D01*
X48971Y-55347D01*
X48873Y-55110D01*
X48774Y-55011D01*
X48774Y-53414D01*
X48774Y-53414D01*
X48835Y-53323D01*
X48840Y-53297D01*
X48884Y-53253D01*
X48967Y-53053D01*
X48967Y-52836D01*
X48884Y-52635D01*
X48869Y-52620D01*
X48869Y-48613D01*
X51635Y-45846D01*
X51791Y-45846D01*
X51803Y-45876D01*
X51873Y-45946D01*
X51965Y-45984D01*
X52011Y-45984D01*
X52009Y-45988D01*
X52350Y-46329D01*
X52690Y-45988D01*
X52688Y-45984D01*
X52734Y-45984D01*
X52826Y-45946D01*
X52896Y-45876D01*
X52908Y-45846D01*
X54768Y-45846D01*
X55812Y-46889D01*
X55956Y-46986D01*
X55956Y-46986D01*
X56128Y-47020D01*
X56880Y-47020D01*
X56947Y-47088D01*
X57170Y-47180D01*
X57412Y-47180D01*
X57635Y-47088D01*
X57792Y-46932D01*
X57845Y-46985D01*
X57845Y-47378D01*
X57334Y-47890D01*
X57237Y-48034D01*
X57203Y-48206D01*
X57203Y-49650D01*
X56954Y-49650D01*
X56387Y-49084D01*
X56243Y-48987D01*
X56072Y-48953D01*
X52939Y-48953D01*
X52939Y-46490D01*
X52928Y-46257D01*
X52859Y-46091D01*
X52761Y-46059D01*
X52420Y-46400D01*
X52761Y-46740D01*
X52859Y-46708D01*
X52939Y-46490D01*
X52939Y-48953D01*
X52730Y-48953D01*
X52681Y-48904D01*
X52670Y-48900D01*
X52680Y-48895D01*
X52845Y-48731D01*
X52934Y-48516D01*
X52934Y-48284D01*
X52845Y-48069D01*
X52681Y-47904D01*
X52670Y-47900D01*
X52680Y-47895D01*
X52845Y-47731D01*
X52934Y-47516D01*
X52934Y-47284D01*
X52845Y-47069D01*
X52681Y-46904D01*
X52662Y-46896D01*
X52690Y-46811D01*
X52350Y-46470D01*
X52279Y-46541D01*
X52279Y-46400D01*
X51938Y-46059D01*
X51840Y-46091D01*
X51760Y-46309D01*
X51771Y-46542D01*
X51840Y-46708D01*
X51938Y-46740D01*
X52279Y-46400D01*
X52279Y-46541D01*
X52009Y-46811D01*
X52037Y-46896D01*
X52019Y-46904D01*
X51970Y-46953D01*
X50742Y-46953D01*
X50570Y-46987D01*
X50426Y-47084D01*
X49524Y-47986D01*
X49427Y-48130D01*
X49393Y-48302D01*
X49393Y-51030D01*
X49427Y-51201D01*
X49524Y-51345D01*
X51450Y-53271D01*
X51594Y-53368D01*
X51766Y-53402D01*
X56724Y-53402D01*
X57203Y-53881D01*
X57203Y-54133D01*
X57203Y-55678D01*
X57188Y-55693D01*
X57166Y-55746D01*
X52499Y-55746D01*
X52495Y-55736D01*
X52425Y-55666D01*
X52333Y-55627D01*
X52233Y-55627D01*
X51604Y-55627D01*
X51512Y-55665D01*
X51441Y-55736D01*
X51403Y-55828D01*
X51403Y-55927D01*
X51403Y-56557D01*
X51441Y-56649D01*
X51511Y-56719D01*
X51603Y-56757D01*
X51653Y-56757D01*
X51642Y-56796D01*
X51968Y-57122D01*
X52294Y-56796D01*
X52283Y-56757D01*
X52332Y-56757D01*
X52424Y-56719D01*
X52495Y-56649D01*
X52499Y-56639D01*
X57203Y-56639D01*
X57203Y-57283D01*
X56389Y-58096D01*
X54817Y-58096D01*
X54646Y-58130D01*
X54501Y-58227D01*
X53834Y-58894D01*
X53567Y-58893D01*
X53292Y-59007D01*
X53080Y-59218D01*
X52966Y-59494D01*
X52966Y-59792D01*
X53080Y-60068D01*
X53291Y-60279D01*
X53566Y-60393D01*
X53864Y-60394D01*
X54140Y-60280D01*
X54351Y-60069D01*
X54466Y-59793D01*
X54466Y-59525D01*
X55002Y-58990D01*
X55308Y-58990D01*
X55300Y-58993D01*
X55088Y-59204D01*
X54974Y-59480D01*
X54974Y-59778D01*
X55088Y-60054D01*
X55299Y-60265D01*
X55574Y-60379D01*
X55872Y-60380D01*
X56148Y-60266D01*
X56359Y-60055D01*
X56474Y-59779D01*
X56474Y-59481D01*
X56360Y-59205D01*
X56149Y-58994D01*
X56139Y-58990D01*
X56574Y-58990D01*
X56745Y-58956D01*
X56745Y-58956D01*
X56890Y-58859D01*
X57965Y-57784D01*
X58062Y-57639D01*
X58062Y-57639D01*
X58096Y-57468D01*
X58096Y-56327D01*
X58111Y-56312D01*
X58149Y-56220D01*
X58187Y-56311D01*
X58203Y-56326D01*
X58203Y-62284D01*
X57644Y-62844D01*
X57547Y-62988D01*
X57513Y-63160D01*
X57513Y-64865D01*
X57461Y-64887D01*
X57391Y-64957D01*
X57353Y-65049D01*
X57353Y-65148D01*
X57353Y-65862D01*
X57391Y-65954D01*
X57461Y-66024D01*
X57553Y-66062D01*
X57652Y-66062D01*
X58366Y-66062D01*
X58458Y-66024D01*
X58528Y-65954D01*
X58549Y-65903D01*
X58615Y-65970D01*
X58838Y-66062D01*
X59080Y-66062D01*
X59303Y-65970D01*
X59460Y-65814D01*
X59615Y-65970D01*
X59838Y-66062D01*
X60080Y-66062D01*
X60303Y-65970D01*
X60460Y-65814D01*
X60615Y-65970D01*
X60838Y-66062D01*
X61080Y-66062D01*
X61303Y-65970D01*
X61460Y-65814D01*
X61615Y-65970D01*
X61838Y-66062D01*
X62080Y-66062D01*
X62303Y-65970D01*
X62460Y-65814D01*
X62615Y-65970D01*
X62838Y-66062D01*
X63080Y-66062D01*
X63303Y-65970D01*
X63460Y-65814D01*
X63615Y-65970D01*
X63838Y-66062D01*
X63868Y-66062D01*
X64584Y-66777D01*
X64728Y-66874D01*
X64900Y-66908D01*
X68140Y-66908D01*
X68311Y-66874D01*
X68311Y-66874D01*
X68455Y-66777D01*
X68652Y-66581D01*
X68673Y-66581D01*
X68874Y-66498D01*
X69027Y-66345D01*
X69111Y-66144D01*
X69111Y-65928D01*
X69111Y-59928D01*
X69028Y-59727D01*
X69016Y-59715D01*
X69016Y-58403D01*
X68680Y-58066D01*
X68343Y-58403D01*
X68374Y-58502D01*
X68591Y-58580D01*
X68821Y-58570D01*
X68985Y-58502D01*
X69016Y-58403D01*
X69016Y-59715D01*
X68875Y-59574D01*
X68674Y-59490D01*
X68652Y-59490D01*
X68126Y-58964D01*
X68126Y-58369D01*
X68171Y-58324D01*
X68180Y-58303D01*
X68272Y-58332D01*
X68609Y-57996D01*
X68272Y-57659D01*
X68180Y-57688D01*
X68171Y-57667D01*
X68008Y-57504D01*
X67795Y-57416D01*
X67565Y-57415D01*
X67351Y-57504D01*
X67188Y-57667D01*
X67100Y-57880D01*
X67099Y-58110D01*
X67188Y-58324D01*
X67233Y-58369D01*
X67233Y-59150D01*
X67267Y-59321D01*
X67364Y-59465D01*
X68020Y-60122D01*
X68020Y-60143D01*
X68103Y-60344D01*
X68256Y-60497D01*
X68457Y-60581D01*
X68673Y-60581D01*
X68874Y-60498D01*
X69027Y-60345D01*
X69111Y-60144D01*
X69111Y-59928D01*
X69111Y-65928D01*
X69028Y-65727D01*
X68875Y-65574D01*
X68674Y-65490D01*
X68458Y-65490D01*
X68257Y-65573D01*
X68104Y-65726D01*
X68020Y-65927D01*
X68020Y-65949D01*
X67954Y-66015D01*
X67195Y-66015D01*
X67303Y-65970D01*
X67474Y-65800D01*
X67566Y-65577D01*
X67566Y-65335D01*
X67474Y-65112D01*
X67304Y-64941D01*
X67081Y-64849D01*
X66839Y-64849D01*
X66616Y-64941D01*
X66459Y-65097D01*
X66406Y-65044D01*
X66406Y-64845D01*
X66965Y-64285D01*
X66965Y-64285D01*
X67062Y-64141D01*
X67096Y-63970D01*
X67096Y-63970D01*
X67096Y-56327D01*
X67111Y-56312D01*
X67149Y-56220D01*
X67187Y-56311D01*
X67340Y-56464D01*
X67541Y-56547D01*
X67757Y-56548D01*
X67958Y-56465D01*
X68111Y-56312D01*
X68147Y-56226D01*
X68172Y-56287D01*
X68267Y-56314D01*
X68579Y-56002D01*
X68267Y-55690D01*
X68172Y-55717D01*
X68149Y-55783D01*
X68112Y-55694D01*
X68096Y-55678D01*
X68096Y-54465D01*
X68512Y-54049D01*
X68533Y-54049D01*
X68734Y-53966D01*
X68887Y-53813D01*
X68923Y-53728D01*
X68948Y-53789D01*
X69043Y-53815D01*
X69355Y-53504D01*
X69043Y-53192D01*
X68948Y-53218D01*
X68925Y-53284D01*
X68888Y-53195D01*
X68872Y-53179D01*
X68872Y-52134D01*
X68909Y-52097D01*
X68945Y-52012D01*
X68970Y-52073D01*
X69065Y-52099D01*
X69377Y-51788D01*
X69065Y-51476D01*
X68970Y-51502D01*
X68947Y-51568D01*
X68910Y-51479D01*
X68757Y-51326D01*
X68556Y-51242D01*
X68340Y-51242D01*
X68139Y-51325D01*
X68123Y-51341D01*
X66961Y-51341D01*
X66961Y-50479D01*
X66650Y-50167D01*
X66338Y-50479D01*
X66364Y-50574D01*
X66569Y-50647D01*
X66786Y-50636D01*
X66935Y-50574D01*
X66961Y-50479D01*
X66961Y-51341D01*
X66647Y-51341D01*
X66096Y-50790D01*
X66096Y-50421D01*
X66111Y-50406D01*
X66147Y-50321D01*
X66172Y-50382D01*
X66267Y-50409D01*
X66579Y-50097D01*
X66267Y-49785D01*
X66172Y-49812D01*
X66149Y-49877D01*
X66112Y-49788D01*
X66096Y-49773D01*
X66096Y-49749D01*
X66579Y-49265D01*
X66579Y-49265D01*
X66676Y-49121D01*
X66710Y-48950D01*
X66710Y-48950D01*
X66710Y-42856D01*
X66676Y-42684D01*
X66579Y-42540D01*
X66205Y-42166D01*
X66161Y-42136D01*
X84201Y-42136D01*
X84201Y-68453D01*
M02*
