M48
;DRILL file {Pcbnew (2013-07-07 BZR 4022)-stable} date 8/21/2014 2:27:47 PM
;FORMAT={-:-/ absolute / inch / decimal}
FMAT,2
INCH,TZ
T1C0.032
T2C0.045
T3C0.047
T4C0.157
%
G90
G05
M72
T1
X4.96Y-5.75
X4.96Y-6.15
X5.17Y-6.28
X5.27Y-6.28
X5.3Y-4.46
X5.3Y-4.56
X5.3Y-4.66
X5.3Y-4.76
X5.3Y-4.86
X5.385Y-5.215
X5.385Y-5.315
X5.52Y-6.29
X5.55Y-4.51
X5.55Y-4.91
X5.62Y-6.29
X5.675Y-6.08
X5.745Y-4.7675
X5.765Y-5.005
X5.765Y-5.605
X5.775Y-6.08
X5.81Y-6.32
X5.845Y-4.5
X5.845Y-4.7675
X5.865Y-5.005
X5.865Y-5.605
X5.875Y-6.08
X5.9024Y-5.2165
X5.945Y-4.5
X5.945Y-4.7675
X5.965Y-5.005
X5.965Y-5.605
X5.975Y-6.08
X6.045Y-4.5
X6.045Y-4.7675
X6.065Y-5.005
X6.065Y-5.605
X6.075Y-6.08
X6.145Y-4.5
X6.145Y-4.7675
X6.165Y-5.005
X6.165Y-5.605
X6.175Y-6.08
X6.21Y-6.32
X6.245Y-4.5
X6.245Y-4.7675
X6.265Y-5.005
X6.265Y-5.605
X6.275Y-6.08
X6.3024Y-5.2165
X6.32Y-6.32
X6.345Y-4.5
X6.345Y-4.7675
X6.365Y-5.005
X6.365Y-5.605
X6.375Y-6.08
X6.445Y-4.5
X6.445Y-4.7675
X6.465Y-5.005
X6.465Y-5.605
X6.475Y-6.08
X6.545Y-4.5
X6.545Y-4.7675
X6.565Y-5.005
X6.565Y-5.605
X6.575Y-6.08
X6.665Y-5.005
X6.665Y-5.605
X6.72Y-6.32
X6.765Y-5.005
X6.765Y-5.605
X6.765Y-5.9775
X6.7669Y-6.1339
X6.8426Y-5.3504
X6.8448Y-5.1788
X6.865Y-5.005
X6.865Y-5.605
X6.8669Y-6.1339
X6.8766Y-6.3297
X6.8825Y-5.785
X6.9426Y-5.3504
X6.9448Y-5.1788
X6.965Y-5.005
X6.965Y-5.605
X6.9766Y-6.3297
X6.9875Y-6.135
X7.0625Y-4.5
X7.065Y-5.005
X7.065Y-5.605
X7.0766Y-6.3297
X7.0825Y-5.785
X7.0875Y-6.135
X7.1625Y-4.5
X7.165Y-5.005
X7.165Y-5.605
X7.165Y-5.9775
X7.1766Y-6.3297
X7.2625Y-4.5
X7.265Y-5.005
X7.265Y-5.605
X7.27Y-6.03
X7.3625Y-4.5
X7.365Y-5.005
X7.365Y-5.605
X7.37Y-6.03
X7.37Y-6.33
X7.4625Y-4.5
X7.465Y-5.005
X7.465Y-5.605
X7.47Y-6.03
X7.47Y-6.33
X7.5625Y-4.5
X7.565Y-5.005
X7.565Y-5.605
X7.57Y-6.03
X7.57Y-6.33
X7.6625Y-4.5
X7.665Y-5.005
X7.665Y-5.605
X7.6693Y-5.1378
X7.6693Y-5.2429
X7.67Y-6.03
X7.67Y-6.33
X7.6709Y-5.461
X7.6717Y-5.3547
X7.7625Y-4.5
X7.77Y-6.03
X7.77Y-6.33
X7.87Y-6.03
X7.89Y-6.14
X7.89Y-6.34
X7.97Y-6.03
X8.0693Y-5.1378
X8.0693Y-5.2429
X8.0709Y-5.461
X8.0717Y-5.3547
T2
X5.2386Y-5.7504
X5.2386Y-5.9504
X5.4386Y-5.7504
X5.4386Y-5.9504
T3
X4.97Y-4.8531
X4.97Y-5.05
X4.97Y-5.3431
X4.97Y-5.54
T4
X4.91Y-4.41
X4.91Y-6.34
X8.09Y-4.41
X8.09Y-6.34
T0
M30
