G04 (created by PCBNEW (2013-07-07 BZR 4022)-stable) date 9/17/2014 12:18:49 PM*
%MOIN*%
G04 Gerber Fmt 3.4, Leading zero omitted, Abs format*
%FSLAX34Y34*%
G01*
G70*
G90*
G04 APERTURE LIST*
%ADD10C,0.00590551*%
%ADD11R,0.0713701X0.0713701*%
%ADD12C,0.0713701*%
%ADD13R,0.0708661X0.0708661*%
%ADD14C,0.0708661*%
%ADD15R,0.0629921X0.0629921*%
%ADD16C,0.0629921*%
%ADD17R,0.065X0.065*%
%ADD18C,0.065*%
%ADD19C,0.0984252*%
%ADD20C,0.066*%
%ADD21C,0.1*%
%ADD22C,0.0866142*%
%ADD23C,0.16*%
G04 APERTURE END LIST*
G54D10*
G54D11*
X56759Y-61259D03*
G54D12*
X57759Y-61259D03*
X58759Y-61259D03*
X59759Y-61259D03*
X60759Y-61259D03*
X61759Y-61259D03*
X62759Y-61259D03*
X63759Y-61259D03*
X64759Y-61259D03*
X65759Y-61259D03*
G54D13*
X57650Y-56050D03*
G54D14*
X58650Y-56050D03*
X59650Y-56050D03*
X60650Y-56050D03*
X61650Y-56050D03*
X62650Y-56050D03*
X63650Y-56050D03*
X64650Y-56050D03*
X65650Y-56050D03*
X66650Y-56050D03*
X67650Y-56050D03*
X68650Y-56050D03*
X69650Y-56050D03*
X70650Y-56050D03*
X71650Y-56050D03*
X72650Y-56050D03*
X73650Y-56050D03*
X74650Y-56050D03*
X75650Y-56050D03*
X76650Y-56050D03*
X76650Y-50050D03*
X75650Y-50050D03*
X74650Y-50050D03*
X73650Y-50050D03*
X72650Y-50050D03*
X71650Y-50050D03*
X70650Y-50050D03*
X69650Y-50050D03*
X68650Y-50050D03*
X67650Y-50050D03*
X66650Y-50050D03*
X65650Y-50050D03*
X64650Y-50050D03*
X63650Y-50050D03*
X62650Y-50050D03*
X61650Y-50050D03*
X60650Y-50050D03*
X59650Y-50050D03*
X58650Y-50050D03*
X57650Y-50050D03*
G54D15*
X65450Y-45000D03*
G54D16*
X64450Y-45000D03*
X63450Y-45000D03*
X62450Y-45000D03*
X61450Y-45000D03*
X60450Y-45000D03*
X59450Y-45000D03*
X58450Y-45000D03*
G54D15*
X73311Y-61259D03*
G54D16*
X74311Y-61259D03*
X75311Y-61259D03*
X76311Y-61259D03*
X77311Y-61259D03*
X78311Y-61259D03*
X79311Y-61259D03*
X80311Y-61259D03*
G54D15*
X77625Y-45000D03*
G54D16*
X76625Y-45000D03*
X75625Y-45000D03*
X74625Y-45000D03*
X73625Y-45000D03*
X72625Y-45000D03*
X71625Y-45000D03*
X70625Y-45000D03*
X63023Y-52165D03*
X59023Y-52165D03*
X67650Y-59775D03*
X71650Y-59775D03*
X62040Y-63790D03*
X58040Y-63790D03*
X49600Y-57500D03*
X49600Y-61500D03*
G54D17*
X54330Y-52216D03*
G54D18*
X54330Y-53216D03*
G54D14*
X68426Y-53504D03*
X69426Y-53504D03*
X68448Y-51788D03*
X69448Y-51788D03*
X67669Y-61338D03*
X68669Y-61338D03*
X70875Y-61350D03*
X69875Y-61350D03*
G54D19*
X49700Y-53431D03*
X49700Y-55400D03*
G54D15*
X65450Y-47675D03*
G54D16*
X64450Y-47675D03*
X63450Y-47675D03*
X62450Y-47675D03*
X61450Y-47675D03*
X60450Y-47675D03*
X59450Y-47675D03*
X58450Y-47675D03*
X57450Y-47675D03*
G54D20*
X56031Y-63366D03*
X55031Y-63366D03*
X51409Y-63326D03*
X52409Y-63326D03*
G54D16*
X76692Y-51377D03*
X80692Y-51377D03*
X76692Y-52429D03*
X80692Y-52429D03*
X76716Y-53547D03*
X80716Y-53547D03*
X76708Y-54610D03*
X80708Y-54610D03*
G54D21*
X52385Y-57503D03*
X54385Y-57503D03*
X52385Y-59503D03*
X54385Y-59503D03*
G54D13*
X73322Y-58622D03*
G54D14*
X74322Y-58622D03*
X75322Y-58622D03*
X76322Y-58622D03*
X77322Y-58622D03*
X78322Y-58622D03*
X79322Y-58622D03*
X80322Y-58622D03*
X81322Y-58622D03*
G54D13*
X77622Y-47675D03*
G54D14*
X76622Y-47675D03*
X75622Y-47675D03*
X74622Y-47675D03*
X73622Y-47675D03*
X72622Y-47675D03*
X71622Y-47675D03*
X70622Y-47675D03*
X69622Y-47675D03*
G54D13*
X53523Y-44704D03*
G54D14*
X53523Y-45704D03*
X53523Y-46704D03*
X53523Y-47704D03*
X53523Y-48704D03*
G54D13*
X73661Y-63897D03*
G54D14*
X74661Y-63897D03*
X75661Y-63897D03*
X76661Y-63897D03*
X77661Y-63897D03*
G54D15*
X68677Y-63897D03*
G54D16*
X69677Y-63897D03*
X70677Y-63897D03*
X71677Y-63897D03*
G54D13*
X56759Y-58622D03*
G54D14*
X57759Y-58622D03*
X58759Y-58622D03*
X59759Y-58622D03*
X60759Y-58622D03*
X61759Y-58622D03*
X62759Y-58622D03*
X63759Y-58622D03*
X64759Y-58622D03*
X65759Y-58622D03*
X63137Y-63818D03*
X67137Y-63818D03*
X55866Y-49185D03*
X55866Y-45185D03*
G54D22*
X70251Y-57992D03*
X68251Y-57992D03*
G54D14*
X79055Y-62622D03*
X79055Y-64622D03*
G54D19*
X49685Y-48425D03*
X49685Y-50393D03*
G54D23*
X49212Y-44251D03*
X81437Y-44232D03*
X81476Y-64370D03*
X49173Y-64389D03*
M02*
