G04 (created by PCBNEW (2013-07-07 BZR 4022)-stable) date 9/17/2014 12:18:49 PM*
%MOIN*%
G04 Gerber Fmt 3.4, Leading zero omitted, Abs format*
%FSLAX34Y34*%
G01*
G70*
G90*
G04 APERTURE LIST*
%ADD10C,0.00590551*%
%ADD11C,0.00492126*%
%ADD12C,0.011811*%
%ADD13C,0.012*%
%ADD14C,0.015*%
%ADD15C,0.008*%
%ADD16C,0.003*%
%ADD17C,0.01*%
%ADD18C,0.006*%
%ADD19C,0.005*%
%ADD20C,0.0107*%
%ADD21C,0.01125*%
%ADD22C,0.0035*%
G04 APERTURE END LIST*
G54D10*
G54D11*
X75601Y-62826D02*
X75601Y-63049D01*
X75614Y-63075D01*
X75627Y-63088D01*
X75653Y-63102D01*
X75706Y-63102D01*
X75732Y-63088D01*
X75745Y-63075D01*
X75758Y-63049D01*
X75758Y-62826D01*
X75876Y-63023D02*
X76008Y-63023D01*
X75850Y-63102D02*
X75942Y-62826D01*
X76034Y-63102D01*
X76283Y-63102D02*
X76191Y-62970D01*
X76126Y-63102D02*
X76126Y-62826D01*
X76231Y-62826D01*
X76257Y-62839D01*
X76270Y-62852D01*
X76283Y-62879D01*
X76283Y-62918D01*
X76270Y-62944D01*
X76257Y-62957D01*
X76231Y-62970D01*
X76126Y-62970D01*
X76362Y-62826D02*
X76519Y-62826D01*
X76441Y-63102D02*
X76441Y-62826D01*
X69871Y-63102D02*
X69871Y-62826D01*
X69990Y-62852D02*
X70003Y-62839D01*
X70029Y-62826D01*
X70095Y-62826D01*
X70121Y-62839D01*
X70134Y-62852D01*
X70147Y-62879D01*
X70147Y-62905D01*
X70134Y-62944D01*
X69976Y-63102D01*
X70147Y-63102D01*
X70423Y-63075D02*
X70409Y-63088D01*
X70370Y-63102D01*
X70344Y-63102D01*
X70304Y-63088D01*
X70278Y-63062D01*
X70265Y-63036D01*
X70252Y-62983D01*
X70252Y-62944D01*
X70265Y-62892D01*
X70278Y-62865D01*
X70304Y-62839D01*
X70344Y-62826D01*
X70370Y-62826D01*
X70409Y-62839D01*
X70423Y-62852D01*
G54D12*
X50728Y-61813D02*
X50728Y-61223D01*
X50953Y-61223D01*
X51009Y-61251D01*
X51037Y-61279D01*
X51065Y-61335D01*
X51065Y-61420D01*
X51037Y-61476D01*
X51009Y-61504D01*
X50953Y-61532D01*
X50728Y-61532D01*
X51262Y-61223D02*
X51403Y-61813D01*
X51515Y-61392D01*
X51628Y-61813D01*
X51768Y-61223D01*
X52331Y-61813D02*
X52134Y-61532D01*
X51993Y-61813D02*
X51993Y-61223D01*
X52218Y-61223D01*
X52275Y-61251D01*
X52303Y-61279D01*
X52331Y-61335D01*
X52331Y-61420D01*
X52303Y-61476D01*
X52275Y-61504D01*
X52218Y-61532D01*
X51993Y-61532D01*
G54D11*
X73200Y-64573D02*
X73174Y-64560D01*
X73135Y-64560D01*
X73095Y-64573D01*
X73069Y-64599D01*
X73056Y-64625D01*
X73043Y-64678D01*
X73043Y-64717D01*
X73056Y-64770D01*
X73069Y-64796D01*
X73095Y-64822D01*
X73135Y-64835D01*
X73161Y-64835D01*
X73200Y-64822D01*
X73213Y-64809D01*
X73213Y-64717D01*
X73161Y-64717D01*
X73332Y-64835D02*
X73332Y-64560D01*
X73489Y-64835D01*
X73489Y-64560D01*
X73620Y-64835D02*
X73620Y-64560D01*
X73686Y-64560D01*
X73725Y-64573D01*
X73751Y-64599D01*
X73765Y-64625D01*
X73778Y-64678D01*
X73778Y-64717D01*
X73765Y-64770D01*
X73751Y-64796D01*
X73725Y-64822D01*
X73686Y-64835D01*
X73620Y-64835D01*
X74473Y-64809D02*
X74460Y-64822D01*
X74421Y-64835D01*
X74395Y-64835D01*
X74355Y-64822D01*
X74329Y-64796D01*
X74316Y-64770D01*
X74303Y-64717D01*
X74303Y-64678D01*
X74316Y-64625D01*
X74329Y-64599D01*
X74355Y-64573D01*
X74395Y-64560D01*
X74421Y-64560D01*
X74460Y-64573D01*
X74473Y-64586D01*
X74552Y-64560D02*
X74709Y-64560D01*
X74631Y-64835D02*
X74631Y-64560D01*
X75589Y-64835D02*
X75497Y-64704D01*
X75431Y-64835D02*
X75431Y-64560D01*
X75536Y-64560D01*
X75562Y-64573D01*
X75576Y-64586D01*
X75589Y-64612D01*
X75589Y-64652D01*
X75576Y-64678D01*
X75562Y-64691D01*
X75536Y-64704D01*
X75431Y-64704D01*
X75681Y-64560D02*
X75864Y-64835D01*
X75864Y-64560D02*
X75681Y-64835D01*
X76560Y-64560D02*
X76717Y-64560D01*
X76639Y-64835D02*
X76639Y-64560D01*
X76783Y-64560D02*
X76967Y-64835D01*
X76967Y-64560D02*
X76783Y-64835D01*
X77452Y-64560D02*
X77544Y-64835D01*
X77636Y-64560D01*
X77885Y-64809D02*
X77872Y-64822D01*
X77833Y-64835D01*
X77807Y-64835D01*
X77767Y-64822D01*
X77741Y-64796D01*
X77728Y-64770D01*
X77715Y-64717D01*
X77715Y-64678D01*
X77728Y-64625D01*
X77741Y-64599D01*
X77767Y-64573D01*
X77807Y-64560D01*
X77833Y-64560D01*
X77872Y-64573D01*
X77885Y-64586D01*
X78161Y-64809D02*
X78148Y-64822D01*
X78108Y-64835D01*
X78082Y-64835D01*
X78043Y-64822D01*
X78017Y-64796D01*
X78003Y-64770D01*
X77990Y-64717D01*
X77990Y-64678D01*
X78003Y-64625D01*
X78017Y-64599D01*
X78043Y-64573D01*
X78082Y-64560D01*
X78108Y-64560D01*
X78148Y-64573D01*
X78161Y-64586D01*
X68390Y-64526D02*
X68482Y-64802D01*
X68574Y-64526D01*
X68823Y-64775D02*
X68810Y-64788D01*
X68771Y-64802D01*
X68744Y-64802D01*
X68705Y-64788D01*
X68679Y-64762D01*
X68666Y-64736D01*
X68653Y-64683D01*
X68653Y-64644D01*
X68666Y-64592D01*
X68679Y-64565D01*
X68705Y-64539D01*
X68744Y-64526D01*
X68771Y-64526D01*
X68810Y-64539D01*
X68823Y-64552D01*
X69099Y-64775D02*
X69086Y-64788D01*
X69046Y-64802D01*
X69020Y-64802D01*
X68981Y-64788D01*
X68954Y-64762D01*
X68941Y-64736D01*
X68928Y-64683D01*
X68928Y-64644D01*
X68941Y-64592D01*
X68954Y-64565D01*
X68981Y-64539D01*
X69020Y-64526D01*
X69046Y-64526D01*
X69086Y-64539D01*
X69099Y-64552D01*
X69584Y-64775D02*
X69571Y-64788D01*
X69532Y-64802D01*
X69506Y-64802D01*
X69466Y-64788D01*
X69440Y-64762D01*
X69427Y-64736D01*
X69414Y-64683D01*
X69414Y-64644D01*
X69427Y-64592D01*
X69440Y-64565D01*
X69466Y-64539D01*
X69506Y-64526D01*
X69532Y-64526D01*
X69571Y-64539D01*
X69584Y-64552D01*
X69834Y-64802D02*
X69702Y-64802D01*
X69702Y-64526D01*
X69925Y-64802D02*
X69925Y-64526D01*
X70083Y-64802D02*
X69965Y-64644D01*
X70083Y-64526D02*
X69925Y-64683D01*
X70411Y-64802D02*
X70411Y-64526D01*
X70477Y-64526D01*
X70516Y-64539D01*
X70542Y-64565D01*
X70555Y-64592D01*
X70569Y-64644D01*
X70569Y-64683D01*
X70555Y-64736D01*
X70542Y-64762D01*
X70516Y-64788D01*
X70477Y-64802D01*
X70411Y-64802D01*
X70647Y-64526D02*
X70805Y-64526D01*
X70726Y-64802D02*
X70726Y-64526D01*
X70883Y-64723D02*
X71015Y-64723D01*
X70857Y-64802D02*
X70949Y-64526D01*
X71041Y-64802D01*
X71487Y-64539D02*
X71461Y-64526D01*
X71422Y-64526D01*
X71382Y-64539D01*
X71356Y-64565D01*
X71343Y-64592D01*
X71330Y-64644D01*
X71330Y-64683D01*
X71343Y-64736D01*
X71356Y-64762D01*
X71382Y-64788D01*
X71422Y-64802D01*
X71448Y-64802D01*
X71487Y-64788D01*
X71500Y-64775D01*
X71500Y-64683D01*
X71448Y-64683D01*
X71618Y-64802D02*
X71618Y-64526D01*
X71776Y-64802D01*
X71776Y-64526D01*
X71907Y-64802D02*
X71907Y-64526D01*
X71973Y-64526D01*
X72012Y-64539D01*
X72038Y-64565D01*
X72051Y-64592D01*
X72065Y-64644D01*
X72065Y-64683D01*
X72051Y-64736D01*
X72038Y-64762D01*
X72012Y-64788D01*
X71973Y-64802D01*
X71907Y-64802D01*
X54543Y-49257D02*
X54267Y-49257D01*
X54267Y-49152D01*
X54280Y-49126D01*
X54293Y-49113D01*
X54319Y-49099D01*
X54359Y-49099D01*
X54385Y-49113D01*
X54398Y-49126D01*
X54411Y-49152D01*
X54411Y-49257D01*
X54280Y-48837D02*
X54267Y-48863D01*
X54267Y-48903D01*
X54280Y-48942D01*
X54306Y-48968D01*
X54333Y-48981D01*
X54385Y-48995D01*
X54424Y-48995D01*
X54477Y-48981D01*
X54503Y-48968D01*
X54529Y-48942D01*
X54543Y-48903D01*
X54543Y-48876D01*
X54529Y-48837D01*
X54516Y-48824D01*
X54424Y-48824D01*
X54424Y-48876D01*
X54516Y-48548D02*
X54529Y-48561D01*
X54543Y-48601D01*
X54543Y-48627D01*
X54529Y-48666D01*
X54503Y-48693D01*
X54477Y-48706D01*
X54424Y-48719D01*
X54385Y-48719D01*
X54333Y-48706D01*
X54306Y-48693D01*
X54280Y-48666D01*
X54267Y-48627D01*
X54267Y-48601D01*
X54280Y-48561D01*
X54293Y-48548D01*
X54543Y-48220D02*
X54267Y-48220D01*
X54267Y-48115D01*
X54280Y-48089D01*
X54293Y-48076D01*
X54319Y-48063D01*
X54359Y-48063D01*
X54385Y-48076D01*
X54398Y-48089D01*
X54411Y-48115D01*
X54411Y-48220D01*
X54280Y-47800D02*
X54267Y-47827D01*
X54267Y-47866D01*
X54280Y-47905D01*
X54306Y-47932D01*
X54333Y-47945D01*
X54385Y-47958D01*
X54424Y-47958D01*
X54477Y-47945D01*
X54503Y-47932D01*
X54529Y-47905D01*
X54543Y-47866D01*
X54543Y-47840D01*
X54529Y-47800D01*
X54516Y-47787D01*
X54424Y-47787D01*
X54424Y-47840D01*
X54543Y-47669D02*
X54267Y-47669D01*
X54267Y-47603D01*
X54280Y-47564D01*
X54306Y-47538D01*
X54333Y-47525D01*
X54385Y-47512D01*
X54424Y-47512D01*
X54477Y-47525D01*
X54503Y-47538D01*
X54529Y-47564D01*
X54543Y-47603D01*
X54543Y-47669D01*
X54280Y-47039D02*
X54267Y-47065D01*
X54267Y-47105D01*
X54280Y-47144D01*
X54306Y-47170D01*
X54333Y-47183D01*
X54385Y-47197D01*
X54424Y-47197D01*
X54477Y-47183D01*
X54503Y-47170D01*
X54529Y-47144D01*
X54543Y-47105D01*
X54543Y-47079D01*
X54529Y-47039D01*
X54516Y-47026D01*
X54424Y-47026D01*
X54424Y-47079D01*
X54543Y-46908D02*
X54267Y-46908D01*
X54543Y-46750D01*
X54267Y-46750D01*
X54543Y-46619D02*
X54267Y-46619D01*
X54267Y-46554D01*
X54280Y-46514D01*
X54306Y-46488D01*
X54333Y-46475D01*
X54385Y-46462D01*
X54424Y-46462D01*
X54477Y-46475D01*
X54503Y-46488D01*
X54529Y-46514D01*
X54543Y-46554D01*
X54543Y-46619D01*
X54267Y-46173D02*
X54543Y-46081D01*
X54267Y-45989D01*
X54516Y-45740D02*
X54529Y-45753D01*
X54543Y-45792D01*
X54543Y-45819D01*
X54529Y-45858D01*
X54503Y-45884D01*
X54477Y-45897D01*
X54424Y-45911D01*
X54385Y-45911D01*
X54333Y-45897D01*
X54306Y-45884D01*
X54280Y-45858D01*
X54267Y-45819D01*
X54267Y-45792D01*
X54280Y-45753D01*
X54293Y-45740D01*
X54516Y-45464D02*
X54529Y-45477D01*
X54543Y-45517D01*
X54543Y-45543D01*
X54529Y-45582D01*
X54503Y-45609D01*
X54477Y-45622D01*
X54424Y-45635D01*
X54385Y-45635D01*
X54333Y-45622D01*
X54306Y-45609D01*
X54280Y-45582D01*
X54267Y-45543D01*
X54267Y-45517D01*
X54280Y-45477D01*
X54293Y-45464D01*
X54543Y-45136D02*
X54267Y-45136D01*
X54464Y-45044D01*
X54267Y-44953D01*
X54543Y-44953D01*
X54516Y-44664D02*
X54529Y-44677D01*
X54543Y-44716D01*
X54543Y-44743D01*
X54529Y-44782D01*
X54503Y-44808D01*
X54477Y-44821D01*
X54424Y-44834D01*
X54385Y-44834D01*
X54333Y-44821D01*
X54306Y-44808D01*
X54280Y-44782D01*
X54267Y-44743D01*
X54267Y-44716D01*
X54280Y-44677D01*
X54293Y-44664D01*
X54543Y-44414D02*
X54543Y-44546D01*
X54267Y-44546D01*
X54543Y-44165D02*
X54411Y-44257D01*
X54543Y-44323D02*
X54267Y-44323D01*
X54267Y-44218D01*
X54280Y-44191D01*
X54293Y-44178D01*
X54319Y-44165D01*
X54359Y-44165D01*
X54385Y-44178D01*
X54398Y-44191D01*
X54411Y-44218D01*
X54411Y-44323D01*
G54D12*
X53748Y-61735D02*
X53748Y-61144D01*
X53748Y-61425D02*
X54086Y-61425D01*
X54086Y-61735D02*
X54086Y-61144D01*
X54564Y-61425D02*
X54648Y-61453D01*
X54676Y-61482D01*
X54704Y-61538D01*
X54704Y-61622D01*
X54676Y-61678D01*
X54648Y-61706D01*
X54592Y-61735D01*
X54367Y-61735D01*
X54367Y-61144D01*
X54564Y-61144D01*
X54620Y-61172D01*
X54648Y-61200D01*
X54676Y-61257D01*
X54676Y-61313D01*
X54648Y-61369D01*
X54620Y-61397D01*
X54564Y-61425D01*
X54367Y-61425D01*
X56712Y-46148D02*
X56909Y-46739D01*
X57106Y-46148D01*
X57640Y-46682D02*
X57612Y-46710D01*
X57528Y-46739D01*
X57471Y-46739D01*
X57387Y-46710D01*
X57331Y-46654D01*
X57303Y-46598D01*
X57275Y-46485D01*
X57275Y-46401D01*
X57303Y-46289D01*
X57331Y-46232D01*
X57387Y-46176D01*
X57471Y-46148D01*
X57528Y-46148D01*
X57612Y-46176D01*
X57640Y-46204D01*
X58231Y-46682D02*
X58203Y-46710D01*
X58118Y-46739D01*
X58062Y-46739D01*
X57978Y-46710D01*
X57921Y-46654D01*
X57893Y-46598D01*
X57865Y-46485D01*
X57865Y-46401D01*
X57893Y-46289D01*
X57921Y-46232D01*
X57978Y-46176D01*
X58062Y-46148D01*
X58118Y-46148D01*
X58203Y-46176D01*
X58231Y-46204D01*
X51960Y-51099D02*
X51931Y-51155D01*
X51931Y-51240D01*
X51960Y-51324D01*
X52016Y-51380D01*
X52072Y-51408D01*
X52185Y-51437D01*
X52269Y-51437D01*
X52381Y-51408D01*
X52438Y-51380D01*
X52494Y-51324D01*
X52522Y-51240D01*
X52522Y-51183D01*
X52494Y-51099D01*
X52466Y-51071D01*
X52269Y-51071D01*
X52269Y-51183D01*
X52522Y-50818D02*
X51931Y-50818D01*
X52522Y-50480D01*
X51931Y-50480D01*
X52522Y-50199D02*
X51931Y-50199D01*
X51931Y-50059D01*
X51960Y-49974D01*
X52016Y-49918D01*
X52072Y-49890D01*
X52185Y-49862D01*
X52269Y-49862D01*
X52381Y-49890D01*
X52438Y-49918D01*
X52494Y-49974D01*
X52522Y-50059D01*
X52522Y-50199D01*
X51979Y-49305D02*
X52570Y-49108D01*
X51979Y-48911D01*
X52514Y-48377D02*
X52542Y-48405D01*
X52570Y-48489D01*
X52570Y-48546D01*
X52542Y-48630D01*
X52486Y-48686D01*
X52429Y-48714D01*
X52317Y-48743D01*
X52233Y-48743D01*
X52120Y-48714D01*
X52064Y-48686D01*
X52008Y-48630D01*
X51979Y-48546D01*
X51979Y-48489D01*
X52008Y-48405D01*
X52036Y-48377D01*
X52514Y-47786D02*
X52542Y-47815D01*
X52570Y-47899D01*
X52570Y-47955D01*
X52542Y-48040D01*
X52486Y-48096D01*
X52429Y-48124D01*
X52317Y-48152D01*
X52233Y-48152D01*
X52120Y-48124D01*
X52064Y-48096D01*
X52008Y-48040D01*
X51979Y-47955D01*
X51979Y-47899D01*
X52008Y-47815D01*
X52036Y-47786D01*
X51960Y-55705D02*
X51931Y-55762D01*
X51931Y-55846D01*
X51960Y-55930D01*
X52016Y-55987D01*
X52072Y-56015D01*
X52185Y-56043D01*
X52269Y-56043D01*
X52381Y-56015D01*
X52438Y-55987D01*
X52494Y-55930D01*
X52522Y-55846D01*
X52522Y-55790D01*
X52494Y-55705D01*
X52466Y-55677D01*
X52269Y-55677D01*
X52269Y-55790D01*
X52522Y-55424D02*
X51931Y-55424D01*
X52522Y-55087D01*
X51931Y-55087D01*
X52522Y-54805D02*
X51931Y-54805D01*
X51931Y-54665D01*
X51960Y-54580D01*
X52016Y-54524D01*
X52072Y-54496D01*
X52185Y-54468D01*
X52269Y-54468D01*
X52381Y-54496D01*
X52438Y-54524D01*
X52494Y-54580D01*
X52522Y-54665D01*
X52522Y-54805D01*
X51853Y-53937D02*
X52443Y-53740D01*
X51853Y-53543D01*
X52387Y-53008D02*
X52415Y-53037D01*
X52443Y-53121D01*
X52443Y-53177D01*
X52415Y-53262D01*
X52359Y-53318D01*
X52303Y-53346D01*
X52190Y-53374D01*
X52106Y-53374D01*
X51993Y-53346D01*
X51937Y-53318D01*
X51881Y-53262D01*
X51853Y-53177D01*
X51853Y-53121D01*
X51881Y-53037D01*
X51909Y-53008D01*
X52387Y-52418D02*
X52415Y-52446D01*
X52443Y-52530D01*
X52443Y-52587D01*
X52415Y-52671D01*
X52359Y-52727D01*
X52303Y-52755D01*
X52190Y-52784D01*
X52106Y-52784D01*
X51993Y-52755D01*
X51937Y-52727D01*
X51881Y-52671D01*
X51853Y-52587D01*
X51853Y-52530D01*
X51881Y-52446D01*
X51909Y-52418D01*
X56597Y-60475D02*
X56400Y-60194D01*
X56259Y-60475D02*
X56259Y-59884D01*
X56484Y-59884D01*
X56541Y-59912D01*
X56569Y-59940D01*
X56597Y-59997D01*
X56597Y-60081D01*
X56569Y-60137D01*
X56541Y-60165D01*
X56484Y-60194D01*
X56259Y-60194D01*
X56822Y-60306D02*
X57103Y-60306D01*
X56766Y-60475D02*
X56962Y-59884D01*
X57159Y-60475D01*
X57469Y-59884D02*
X57525Y-59884D01*
X57581Y-59912D01*
X57609Y-59940D01*
X57637Y-59997D01*
X57665Y-60109D01*
X57665Y-60250D01*
X57637Y-60362D01*
X57609Y-60419D01*
X57581Y-60447D01*
X57525Y-60475D01*
X57469Y-60475D01*
X57412Y-60447D01*
X57384Y-60419D01*
X57356Y-60362D01*
X57328Y-60250D01*
X57328Y-60109D01*
X57356Y-59997D01*
X57384Y-59940D01*
X57412Y-59912D01*
X57469Y-59884D01*
X73011Y-60396D02*
X72814Y-60115D01*
X72674Y-60396D02*
X72674Y-59805D01*
X72899Y-59805D01*
X72955Y-59834D01*
X72983Y-59862D01*
X73011Y-59918D01*
X73011Y-60002D01*
X72983Y-60059D01*
X72955Y-60087D01*
X72899Y-60115D01*
X72674Y-60115D01*
X73602Y-60340D02*
X73574Y-60368D01*
X73489Y-60396D01*
X73433Y-60396D01*
X73349Y-60368D01*
X73293Y-60312D01*
X73264Y-60255D01*
X73236Y-60143D01*
X73236Y-60059D01*
X73264Y-59946D01*
X73293Y-59890D01*
X73349Y-59834D01*
X73433Y-59805D01*
X73489Y-59805D01*
X73574Y-59834D01*
X73602Y-59862D01*
X73967Y-59805D02*
X74024Y-59805D01*
X74080Y-59834D01*
X74108Y-59862D01*
X74136Y-59918D01*
X74164Y-60030D01*
X74164Y-60171D01*
X74136Y-60284D01*
X74108Y-60340D01*
X74080Y-60368D01*
X74024Y-60396D01*
X73967Y-60396D01*
X73911Y-60368D01*
X73883Y-60340D01*
X73855Y-60284D01*
X73827Y-60171D01*
X73827Y-60030D01*
X73855Y-59918D01*
X73883Y-59862D01*
X73911Y-59834D01*
X73967Y-59805D01*
X78706Y-45239D02*
X78509Y-44957D01*
X78368Y-45239D02*
X78368Y-44648D01*
X78593Y-44648D01*
X78650Y-44676D01*
X78678Y-44704D01*
X78706Y-44760D01*
X78706Y-44845D01*
X78678Y-44901D01*
X78650Y-44929D01*
X78593Y-44957D01*
X78368Y-44957D01*
X78959Y-45239D02*
X78959Y-44648D01*
X79100Y-44648D01*
X79184Y-44676D01*
X79240Y-44732D01*
X79268Y-44789D01*
X79296Y-44901D01*
X79296Y-44985D01*
X79268Y-45098D01*
X79240Y-45154D01*
X79184Y-45210D01*
X79100Y-45239D01*
X78959Y-45239D01*
X79662Y-44648D02*
X79718Y-44648D01*
X79774Y-44676D01*
X79803Y-44704D01*
X79831Y-44760D01*
X79859Y-44873D01*
X79859Y-45014D01*
X79831Y-45126D01*
X79803Y-45182D01*
X79774Y-45210D01*
X79718Y-45239D01*
X79662Y-45239D01*
X79606Y-45210D01*
X79578Y-45182D01*
X79549Y-45126D01*
X79521Y-45014D01*
X79521Y-44873D01*
X79549Y-44760D01*
X79578Y-44704D01*
X79606Y-44676D01*
X79662Y-44648D01*
X66606Y-45339D02*
X66409Y-45057D01*
X66268Y-45339D02*
X66268Y-44748D01*
X66493Y-44748D01*
X66550Y-44776D01*
X66578Y-44804D01*
X66606Y-44860D01*
X66606Y-44945D01*
X66578Y-45001D01*
X66550Y-45029D01*
X66493Y-45057D01*
X66268Y-45057D01*
X67056Y-45029D02*
X67140Y-45057D01*
X67168Y-45085D01*
X67196Y-45142D01*
X67196Y-45226D01*
X67168Y-45282D01*
X67140Y-45310D01*
X67084Y-45339D01*
X66859Y-45339D01*
X66859Y-44748D01*
X67056Y-44748D01*
X67112Y-44776D01*
X67140Y-44804D01*
X67168Y-44860D01*
X67168Y-44917D01*
X67140Y-44973D01*
X67112Y-45001D01*
X67056Y-45029D01*
X66859Y-45029D01*
X67562Y-44748D02*
X67618Y-44748D01*
X67674Y-44776D01*
X67703Y-44804D01*
X67731Y-44860D01*
X67759Y-44973D01*
X67759Y-45114D01*
X67731Y-45226D01*
X67703Y-45282D01*
X67674Y-45310D01*
X67618Y-45339D01*
X67562Y-45339D01*
X67506Y-45310D01*
X67478Y-45282D01*
X67449Y-45226D01*
X67421Y-45114D01*
X67421Y-44973D01*
X67449Y-44860D01*
X67478Y-44804D01*
X67506Y-44776D01*
X67562Y-44748D01*
G54D13*
X56259Y-61759D02*
X56259Y-60759D01*
X56259Y-60759D02*
X66259Y-60759D01*
X66259Y-60759D02*
X66259Y-61759D01*
X66259Y-61759D02*
X56259Y-61759D01*
X57259Y-61759D02*
X57259Y-60759D01*
G54D14*
X56650Y-52550D02*
X57150Y-52550D01*
X57150Y-52550D02*
X57150Y-53550D01*
X57150Y-53550D02*
X56650Y-53550D01*
X56650Y-50550D02*
X77650Y-50550D01*
X77650Y-50550D02*
X77650Y-55550D01*
X77650Y-55550D02*
X56650Y-55550D01*
X56650Y-55550D02*
X56650Y-50550D01*
G54D13*
X65950Y-45500D02*
X57950Y-45500D01*
X57950Y-45500D02*
X57950Y-44500D01*
X57950Y-44500D02*
X65950Y-44500D01*
X65950Y-44500D02*
X65950Y-45500D01*
X64950Y-44500D02*
X64950Y-45500D01*
X72811Y-60759D02*
X80811Y-60759D01*
X80811Y-60759D02*
X80811Y-61759D01*
X80811Y-61759D02*
X72811Y-61759D01*
X72811Y-61759D02*
X72811Y-60759D01*
X73811Y-61759D02*
X73811Y-60759D01*
X78125Y-45500D02*
X70125Y-45500D01*
X70125Y-45500D02*
X70125Y-44500D01*
X70125Y-44500D02*
X78125Y-44500D01*
X78125Y-44500D02*
X78125Y-45500D01*
X77125Y-44500D02*
X77125Y-45500D01*
X63023Y-52165D02*
X62623Y-52165D01*
X62623Y-52165D02*
X62623Y-52565D01*
X62623Y-52565D02*
X59423Y-52565D01*
X59423Y-52565D02*
X59423Y-51765D01*
X59423Y-51765D02*
X62623Y-51765D01*
X62623Y-51765D02*
X62623Y-52165D01*
X62623Y-52365D02*
X62423Y-52565D01*
X59023Y-52165D02*
X59423Y-52165D01*
X67650Y-59775D02*
X68050Y-59775D01*
X68050Y-59775D02*
X68050Y-59375D01*
X68050Y-59375D02*
X71250Y-59375D01*
X71250Y-59375D02*
X71250Y-60175D01*
X71250Y-60175D02*
X68050Y-60175D01*
X68050Y-60175D02*
X68050Y-59775D01*
X68050Y-59575D02*
X68250Y-59375D01*
X71650Y-59775D02*
X71250Y-59775D01*
X62040Y-63790D02*
X61640Y-63790D01*
X61640Y-63790D02*
X61640Y-64190D01*
X61640Y-64190D02*
X58440Y-64190D01*
X58440Y-64190D02*
X58440Y-63390D01*
X58440Y-63390D02*
X61640Y-63390D01*
X61640Y-63390D02*
X61640Y-63790D01*
X61640Y-63990D02*
X61440Y-64190D01*
X58040Y-63790D02*
X58440Y-63790D01*
X49600Y-57500D02*
X49600Y-57900D01*
X49600Y-57900D02*
X50000Y-57900D01*
X50000Y-57900D02*
X50000Y-61100D01*
X50000Y-61100D02*
X49200Y-61100D01*
X49200Y-61100D02*
X49200Y-57900D01*
X49200Y-57900D02*
X49600Y-57900D01*
X49800Y-57900D02*
X50000Y-58100D01*
X49600Y-61500D02*
X49600Y-61100D01*
G54D15*
X55930Y-52716D02*
G75*
G03X55930Y-52716I-1600J0D01*
G74*
G01*
G54D13*
X67946Y-53004D02*
X69926Y-53004D01*
X69926Y-53004D02*
X69926Y-54004D01*
X69926Y-54004D02*
X67926Y-54004D01*
X67926Y-54004D02*
X67926Y-53004D01*
X67926Y-53254D02*
X68176Y-53004D01*
X67968Y-51288D02*
X69948Y-51288D01*
X69948Y-51288D02*
X69948Y-52288D01*
X69948Y-52288D02*
X67948Y-52288D01*
X67948Y-52288D02*
X67948Y-51288D01*
X67948Y-51538D02*
X68198Y-51288D01*
X67189Y-60838D02*
X69169Y-60838D01*
X69169Y-60838D02*
X69169Y-61838D01*
X69169Y-61838D02*
X67169Y-61838D01*
X67169Y-61838D02*
X67169Y-60838D01*
X67169Y-61088D02*
X67419Y-60838D01*
X71355Y-61850D02*
X69375Y-61850D01*
X69375Y-61850D02*
X69375Y-60850D01*
X69375Y-60850D02*
X71375Y-60850D01*
X71375Y-60850D02*
X71375Y-61850D01*
X71375Y-61600D02*
X71125Y-61850D01*
G54D14*
X50881Y-52644D02*
X50881Y-56187D01*
X50881Y-56187D02*
X48518Y-56187D01*
X48518Y-56187D02*
X48518Y-52644D01*
X48518Y-52644D02*
X50881Y-52644D01*
G54D13*
X56950Y-48175D02*
X56950Y-47175D01*
X56950Y-47175D02*
X65950Y-47175D01*
X65950Y-47175D02*
X65950Y-48175D01*
X56950Y-48175D02*
X65950Y-48175D01*
X64950Y-48175D02*
X64950Y-47175D01*
G54D15*
X54411Y-62616D02*
X54411Y-64116D01*
G54D16*
X56138Y-63366D02*
G75*
G03X56138Y-63366I-707J0D01*
G74*
G01*
G54D17*
X54431Y-64116D02*
G75*
G03X54431Y-62615I999J750D01*
G74*
G01*
G54D18*
X55431Y-63816D02*
G75*
G03X55881Y-63366I0J450D01*
G74*
G01*
X55431Y-62916D02*
G75*
G03X54981Y-63366I0J-450D01*
G74*
G01*
X55431Y-64016D02*
G75*
G03X56081Y-63366I0J650D01*
G74*
G01*
X55431Y-62716D02*
G75*
G03X54781Y-63366I0J-650D01*
G74*
G01*
X55431Y-64216D02*
G75*
G03X56281Y-63366I0J850D01*
G74*
G01*
X55431Y-62516D02*
G75*
G03X54581Y-63366I0J-850D01*
G74*
G01*
G54D15*
X53029Y-64076D02*
X53029Y-62576D01*
G54D16*
X52716Y-63326D02*
G75*
G03X52716Y-63326I-707J0D01*
G74*
G01*
G54D17*
X53009Y-62576D02*
G75*
G03X53009Y-64077I-999J-750D01*
G74*
G01*
G54D18*
X52009Y-62876D02*
G75*
G03X51559Y-63326I0J-450D01*
G74*
G01*
X52009Y-63776D02*
G75*
G03X52459Y-63326I0J450D01*
G74*
G01*
X52009Y-62676D02*
G75*
G03X51359Y-63326I0J-650D01*
G74*
G01*
X52009Y-63976D02*
G75*
G03X52659Y-63326I0J650D01*
G74*
G01*
X52009Y-62476D02*
G75*
G03X51159Y-63326I0J-850D01*
G74*
G01*
X52009Y-64176D02*
G75*
G03X52859Y-63326I0J850D01*
G74*
G01*
G54D13*
X76692Y-51377D02*
X77092Y-51377D01*
X77092Y-51377D02*
X77092Y-50977D01*
X77092Y-50977D02*
X80292Y-50977D01*
X80292Y-50977D02*
X80292Y-51777D01*
X80292Y-51777D02*
X77092Y-51777D01*
X77092Y-51777D02*
X77092Y-51377D01*
X77092Y-51177D02*
X77292Y-50977D01*
X80692Y-51377D02*
X80292Y-51377D01*
X76692Y-52429D02*
X77092Y-52429D01*
X77092Y-52429D02*
X77092Y-52029D01*
X77092Y-52029D02*
X80292Y-52029D01*
X80292Y-52029D02*
X80292Y-52829D01*
X80292Y-52829D02*
X77092Y-52829D01*
X77092Y-52829D02*
X77092Y-52429D01*
X77092Y-52229D02*
X77292Y-52029D01*
X80692Y-52429D02*
X80292Y-52429D01*
X76716Y-53547D02*
X77116Y-53547D01*
X77116Y-53547D02*
X77116Y-53147D01*
X77116Y-53147D02*
X80316Y-53147D01*
X80316Y-53147D02*
X80316Y-53947D01*
X80316Y-53947D02*
X77116Y-53947D01*
X77116Y-53947D02*
X77116Y-53547D01*
X77116Y-53347D02*
X77316Y-53147D01*
X80716Y-53547D02*
X80316Y-53547D01*
X76708Y-54610D02*
X77108Y-54610D01*
X77108Y-54610D02*
X77108Y-54210D01*
X77108Y-54210D02*
X80308Y-54210D01*
X80308Y-54210D02*
X80308Y-55010D01*
X80308Y-55010D02*
X77108Y-55010D01*
X77108Y-55010D02*
X77108Y-54610D01*
X77108Y-54410D02*
X77308Y-54210D01*
X80708Y-54610D02*
X80308Y-54610D01*
G54D19*
X54385Y-58503D02*
G75*
G03X54385Y-58503I-1000J0D01*
G74*
G01*
X51885Y-60003D02*
X51885Y-57003D01*
X51885Y-57003D02*
X54885Y-57003D01*
X54885Y-57003D02*
X54885Y-60003D01*
X51885Y-60003D02*
X54885Y-60003D01*
G54D13*
X81822Y-58122D02*
X81822Y-59122D01*
X81822Y-59122D02*
X72822Y-59122D01*
X72822Y-59122D02*
X72822Y-58122D01*
X81822Y-58122D02*
X72822Y-58122D01*
X73822Y-58122D02*
X73822Y-59122D01*
X69122Y-48175D02*
X69122Y-47175D01*
X69122Y-47175D02*
X78122Y-47175D01*
X78122Y-47175D02*
X78122Y-48175D01*
X69122Y-48175D02*
X78122Y-48175D01*
X77122Y-48175D02*
X77122Y-47175D01*
X53023Y-44204D02*
X54023Y-44204D01*
X54023Y-44204D02*
X54023Y-49204D01*
X54023Y-49204D02*
X53023Y-49204D01*
X53023Y-49204D02*
X53023Y-44204D01*
X53023Y-45204D02*
X54023Y-45204D01*
X73161Y-64397D02*
X73161Y-63397D01*
X73161Y-63397D02*
X78161Y-63397D01*
X78161Y-63397D02*
X78161Y-64397D01*
X78161Y-64397D02*
X73161Y-64397D01*
X74161Y-64397D02*
X74161Y-63397D01*
X68177Y-63397D02*
X68177Y-63397D01*
X68177Y-64397D02*
X68177Y-63397D01*
X68177Y-63397D02*
X68177Y-63397D01*
X68177Y-63397D02*
X72177Y-63397D01*
X72177Y-63397D02*
X72177Y-64397D01*
X72177Y-64397D02*
X68177Y-64397D01*
X69177Y-64397D02*
X69177Y-63397D01*
X56259Y-59122D02*
X56259Y-58122D01*
X56259Y-58122D02*
X66259Y-58122D01*
X66259Y-58122D02*
X66259Y-59122D01*
X66259Y-59122D02*
X56259Y-59122D01*
X57259Y-59122D02*
X57259Y-58122D01*
X63137Y-63818D02*
X63537Y-63818D01*
X63537Y-63818D02*
X63537Y-63418D01*
X63537Y-63418D02*
X66737Y-63418D01*
X66737Y-63418D02*
X66737Y-64218D01*
X66737Y-64218D02*
X63537Y-64218D01*
X63537Y-64218D02*
X63537Y-63818D01*
X63537Y-63618D02*
X63737Y-63418D01*
X67137Y-63818D02*
X66737Y-63818D01*
X55866Y-49185D02*
X55866Y-48785D01*
X55866Y-48785D02*
X55466Y-48785D01*
X55466Y-48785D02*
X55466Y-45585D01*
X55466Y-45585D02*
X56266Y-45585D01*
X56266Y-45585D02*
X56266Y-48785D01*
X56266Y-48785D02*
X55866Y-48785D01*
X55666Y-48785D02*
X55466Y-48585D01*
X55866Y-45185D02*
X55866Y-45585D01*
G54D18*
X72001Y-58492D02*
X71501Y-58992D01*
X67001Y-58992D02*
X66501Y-58492D01*
X66501Y-57492D02*
X67001Y-56992D01*
X72001Y-57492D02*
X71501Y-56992D01*
X71501Y-58992D02*
X67001Y-58992D01*
X72001Y-58492D02*
X72001Y-57492D01*
X71501Y-56992D02*
X67001Y-56992D01*
X66501Y-57492D02*
X66501Y-58492D01*
G54D13*
X79455Y-62222D02*
X79455Y-65022D01*
X79455Y-65022D02*
X78655Y-65022D01*
X78655Y-65022D02*
X78655Y-62222D01*
X78655Y-62222D02*
X79455Y-62222D01*
X79255Y-62222D02*
X79455Y-62422D01*
G54D14*
X50866Y-47637D02*
X50866Y-51181D01*
X50866Y-51181D02*
X48503Y-51181D01*
X48503Y-51181D02*
X48503Y-47637D01*
X48503Y-47637D02*
X50866Y-47637D01*
X50112Y-44251D02*
G75*
G03X50112Y-44251I-900J0D01*
G74*
G01*
X82337Y-44232D02*
G75*
G03X82337Y-44232I-900J0D01*
G74*
G01*
X82376Y-64370D02*
G75*
G03X82376Y-64370I-900J0D01*
G74*
G01*
X50073Y-64389D02*
G75*
G03X50073Y-64389I-900J0D01*
G74*
G01*
G54D20*
X61593Y-60335D02*
X61593Y-59654D01*
X61756Y-59654D01*
X61797Y-59686D01*
X61818Y-59719D01*
X61838Y-59784D01*
X61838Y-59881D01*
X61818Y-59946D01*
X61797Y-59978D01*
X61756Y-60011D01*
X61593Y-60011D01*
X62246Y-60335D02*
X62001Y-60335D01*
X62123Y-60335D02*
X62123Y-59654D01*
X62083Y-59751D01*
X62042Y-59816D01*
X62001Y-59849D01*
G54D21*
X59307Y-51133D02*
X59307Y-51700D01*
X59328Y-51766D01*
X59350Y-51800D01*
X59392Y-51833D01*
X59478Y-51833D01*
X59521Y-51800D01*
X59542Y-51766D01*
X59564Y-51700D01*
X59564Y-51133D01*
X60014Y-51833D02*
X59757Y-51833D01*
X59885Y-51833D02*
X59885Y-51133D01*
X59842Y-51233D01*
X59800Y-51300D01*
X59757Y-51333D01*
G54D13*
X64200Y-55083D02*
X64200Y-54383D01*
X64466Y-54383D01*
X64533Y-54416D01*
X64566Y-54450D01*
X64600Y-54516D01*
X64600Y-54616D01*
X64566Y-54683D01*
X64533Y-54716D01*
X64466Y-54750D01*
X64200Y-54750D01*
X64900Y-55083D02*
X64900Y-54383D01*
X65633Y-55016D02*
X65600Y-55050D01*
X65500Y-55083D01*
X65433Y-55083D01*
X65333Y-55050D01*
X65266Y-54983D01*
X65233Y-54916D01*
X65200Y-54783D01*
X65200Y-54683D01*
X65233Y-54550D01*
X65266Y-54483D01*
X65333Y-54416D01*
X65433Y-54383D01*
X65500Y-54383D01*
X65600Y-54416D01*
X65633Y-54450D01*
X66300Y-55083D02*
X65900Y-55083D01*
X66100Y-55083D02*
X66100Y-54383D01*
X66033Y-54483D01*
X65966Y-54550D01*
X65900Y-54583D01*
X66700Y-54683D02*
X66633Y-54650D01*
X66600Y-54616D01*
X66566Y-54550D01*
X66566Y-54516D01*
X66600Y-54450D01*
X66633Y-54416D01*
X66700Y-54383D01*
X66833Y-54383D01*
X66900Y-54416D01*
X66933Y-54450D01*
X66966Y-54516D01*
X66966Y-54550D01*
X66933Y-54616D01*
X66900Y-54650D01*
X66833Y-54683D01*
X66700Y-54683D01*
X66633Y-54716D01*
X66600Y-54750D01*
X66566Y-54816D01*
X66566Y-54950D01*
X66600Y-55016D01*
X66633Y-55050D01*
X66700Y-55083D01*
X66833Y-55083D01*
X66900Y-55050D01*
X66933Y-55016D01*
X66966Y-54950D01*
X66966Y-54816D01*
X66933Y-54750D01*
X66900Y-54716D01*
X66833Y-54683D01*
X67500Y-54716D02*
X67266Y-54716D01*
X67266Y-55083D02*
X67266Y-54383D01*
X67600Y-54383D01*
X67800Y-54383D02*
X68266Y-55083D01*
X68266Y-54383D02*
X67800Y-55083D01*
X68466Y-54383D02*
X68933Y-55083D01*
X68933Y-54383D02*
X68466Y-55083D01*
X69133Y-54383D02*
X69600Y-55083D01*
X69600Y-54383D02*
X69133Y-55083D01*
X69800Y-54383D02*
X70266Y-55083D01*
X70266Y-54383D02*
X69800Y-55083D01*
G54D20*
X64134Y-46275D02*
X64134Y-45594D01*
X64297Y-45594D01*
X64337Y-45627D01*
X64358Y-45659D01*
X64378Y-45724D01*
X64378Y-45821D01*
X64358Y-45886D01*
X64337Y-45918D01*
X64297Y-45951D01*
X64134Y-45951D01*
X64541Y-45659D02*
X64562Y-45627D01*
X64602Y-45594D01*
X64704Y-45594D01*
X64745Y-45627D01*
X64765Y-45659D01*
X64786Y-45724D01*
X64786Y-45789D01*
X64765Y-45886D01*
X64521Y-46275D01*
X64786Y-46275D01*
G54D13*
G54D20*
X76170Y-60585D02*
X76170Y-59904D01*
X76333Y-59904D01*
X76373Y-59936D01*
X76394Y-59969D01*
X76414Y-60034D01*
X76414Y-60131D01*
X76394Y-60196D01*
X76373Y-60228D01*
X76333Y-60261D01*
X76170Y-60261D01*
X76557Y-59904D02*
X76822Y-59904D01*
X76679Y-60163D01*
X76740Y-60163D01*
X76781Y-60196D01*
X76801Y-60228D01*
X76822Y-60293D01*
X76822Y-60455D01*
X76801Y-60520D01*
X76781Y-60553D01*
X76740Y-60585D01*
X76618Y-60585D01*
X76577Y-60553D01*
X76557Y-60520D01*
G54D13*
G54D20*
X76309Y-46275D02*
X76309Y-45594D01*
X76472Y-45594D01*
X76512Y-45627D01*
X76533Y-45659D01*
X76553Y-45724D01*
X76553Y-45821D01*
X76533Y-45886D01*
X76512Y-45918D01*
X76472Y-45951D01*
X76309Y-45951D01*
X76920Y-45821D02*
X76920Y-46275D01*
X76818Y-45562D02*
X76716Y-46048D01*
X76981Y-46048D01*
G54D13*
G54D15*
X60940Y-52387D02*
X60773Y-52126D01*
X60654Y-52387D02*
X60654Y-51837D01*
X60845Y-51837D01*
X60892Y-51864D01*
X60916Y-51890D01*
X60940Y-51942D01*
X60940Y-52021D01*
X60916Y-52073D01*
X60892Y-52099D01*
X60845Y-52126D01*
X60654Y-52126D01*
X61130Y-51890D02*
X61154Y-51864D01*
X61202Y-51837D01*
X61321Y-51837D01*
X61368Y-51864D01*
X61392Y-51890D01*
X61416Y-51942D01*
X61416Y-51995D01*
X61392Y-52073D01*
X61106Y-52387D01*
X61416Y-52387D01*
X69566Y-59997D02*
X69400Y-59735D01*
X69280Y-59997D02*
X69280Y-59447D01*
X69471Y-59447D01*
X69519Y-59473D01*
X69542Y-59500D01*
X69566Y-59552D01*
X69566Y-59630D01*
X69542Y-59683D01*
X69519Y-59709D01*
X69471Y-59735D01*
X69280Y-59735D01*
X70042Y-59997D02*
X69757Y-59997D01*
X69900Y-59997D02*
X69900Y-59447D01*
X69852Y-59526D01*
X69804Y-59578D01*
X69757Y-59604D01*
X59957Y-64013D02*
X59790Y-63751D01*
X59671Y-64013D02*
X59671Y-63463D01*
X59862Y-63463D01*
X59909Y-63489D01*
X59933Y-63515D01*
X59957Y-63567D01*
X59957Y-63646D01*
X59933Y-63698D01*
X59909Y-63725D01*
X59862Y-63751D01*
X59671Y-63751D01*
X60386Y-63646D02*
X60386Y-64013D01*
X60267Y-63436D02*
X60148Y-63829D01*
X60457Y-63829D01*
X49822Y-59583D02*
X49560Y-59750D01*
X49822Y-59869D02*
X49272Y-59869D01*
X49272Y-59678D01*
X49298Y-59630D01*
X49325Y-59607D01*
X49377Y-59583D01*
X49455Y-59583D01*
X49508Y-59607D01*
X49534Y-59630D01*
X49560Y-59678D01*
X49560Y-59869D01*
X49272Y-59416D02*
X49272Y-59107D01*
X49482Y-59273D01*
X49482Y-59202D01*
X49508Y-59154D01*
X49534Y-59130D01*
X49586Y-59107D01*
X49717Y-59107D01*
X49770Y-59130D01*
X49796Y-59154D01*
X49822Y-59202D01*
X49822Y-59345D01*
X49796Y-59392D01*
X49770Y-59416D01*
X53654Y-52774D02*
X53673Y-52791D01*
X53692Y-52841D01*
X53692Y-52874D01*
X53673Y-52924D01*
X53635Y-52958D01*
X53597Y-52974D01*
X53521Y-52991D01*
X53464Y-52991D01*
X53387Y-52974D01*
X53349Y-52958D01*
X53311Y-52924D01*
X53292Y-52874D01*
X53292Y-52841D01*
X53311Y-52791D01*
X53330Y-52774D01*
X53330Y-52641D02*
X53311Y-52624D01*
X53292Y-52591D01*
X53292Y-52508D01*
X53311Y-52474D01*
X53330Y-52458D01*
X53368Y-52441D01*
X53406Y-52441D01*
X53464Y-52458D01*
X53692Y-52658D01*
X53692Y-52441D01*
X55191Y-53591D02*
X55191Y-53791D01*
X55191Y-53691D02*
X54791Y-53691D01*
X54848Y-53724D01*
X54886Y-53758D01*
X54905Y-53791D01*
X54924Y-53291D02*
X55191Y-53291D01*
X54924Y-53441D02*
X55134Y-53441D01*
X55172Y-53424D01*
X55191Y-53391D01*
X55191Y-53341D01*
X55172Y-53308D01*
X55153Y-53291D01*
X54982Y-53008D02*
X54982Y-53124D01*
X55191Y-53124D02*
X54791Y-53124D01*
X54791Y-52958D01*
X54772Y-52574D02*
X55286Y-52874D01*
X55191Y-52274D02*
X55191Y-52474D01*
X55191Y-52374D02*
X54791Y-52374D01*
X54848Y-52408D01*
X54886Y-52441D01*
X54905Y-52474D01*
X54791Y-51974D02*
X54791Y-52041D01*
X54810Y-52074D01*
X54829Y-52091D01*
X54886Y-52124D01*
X54963Y-52141D01*
X55115Y-52141D01*
X55153Y-52124D01*
X55172Y-52108D01*
X55191Y-52074D01*
X55191Y-52008D01*
X55172Y-51974D01*
X55153Y-51958D01*
X55115Y-51941D01*
X55020Y-51941D01*
X54982Y-51958D01*
X54963Y-51974D01*
X54943Y-52008D01*
X54943Y-52074D01*
X54963Y-52108D01*
X54982Y-52124D01*
X55020Y-52141D01*
X54791Y-51841D02*
X55191Y-51724D01*
X54791Y-51608D01*
X54344Y-51746D02*
X54344Y-51288D01*
X54573Y-51517D02*
X54116Y-51517D01*
X68959Y-52727D02*
X68940Y-52746D01*
X68883Y-52765D01*
X68845Y-52765D01*
X68787Y-52746D01*
X68749Y-52708D01*
X68730Y-52670D01*
X68711Y-52594D01*
X68711Y-52537D01*
X68730Y-52461D01*
X68749Y-52423D01*
X68787Y-52384D01*
X68845Y-52365D01*
X68883Y-52365D01*
X68940Y-52384D01*
X68959Y-52404D01*
X69321Y-52365D02*
X69130Y-52365D01*
X69111Y-52556D01*
X69130Y-52537D01*
X69168Y-52518D01*
X69264Y-52518D01*
X69302Y-52537D01*
X69321Y-52556D01*
X69340Y-52594D01*
X69340Y-52689D01*
X69321Y-52727D01*
X69302Y-52746D01*
X69264Y-52765D01*
X69168Y-52765D01*
X69130Y-52746D01*
X69111Y-52727D01*
X68981Y-51011D02*
X68962Y-51030D01*
X68905Y-51049D01*
X68867Y-51049D01*
X68809Y-51030D01*
X68771Y-50992D01*
X68752Y-50954D01*
X68733Y-50878D01*
X68733Y-50821D01*
X68752Y-50745D01*
X68771Y-50707D01*
X68809Y-50668D01*
X68867Y-50649D01*
X68905Y-50649D01*
X68962Y-50668D01*
X68981Y-50688D01*
X69324Y-50783D02*
X69324Y-51049D01*
X69228Y-50630D02*
X69133Y-50916D01*
X69381Y-50916D01*
X68152Y-60612D02*
X68133Y-60631D01*
X68076Y-60650D01*
X68038Y-60650D01*
X67981Y-60631D01*
X67943Y-60593D01*
X67924Y-60555D01*
X67905Y-60479D01*
X67905Y-60421D01*
X67924Y-60345D01*
X67943Y-60307D01*
X67981Y-60269D01*
X68038Y-60250D01*
X68076Y-60250D01*
X68133Y-60269D01*
X68152Y-60288D01*
X68533Y-60650D02*
X68305Y-60650D01*
X68419Y-60650D02*
X68419Y-60250D01*
X68381Y-60307D01*
X68343Y-60345D01*
X68305Y-60364D01*
X70333Y-60723D02*
X70314Y-60742D01*
X70257Y-60761D01*
X70219Y-60761D01*
X70161Y-60742D01*
X70123Y-60704D01*
X70104Y-60666D01*
X70085Y-60590D01*
X70085Y-60533D01*
X70104Y-60457D01*
X70123Y-60419D01*
X70161Y-60380D01*
X70219Y-60361D01*
X70257Y-60361D01*
X70314Y-60380D01*
X70333Y-60400D01*
X70466Y-60361D02*
X70714Y-60361D01*
X70580Y-60514D01*
X70638Y-60514D01*
X70676Y-60533D01*
X70695Y-60552D01*
X70714Y-60590D01*
X70714Y-60685D01*
X70695Y-60723D01*
X70676Y-60742D01*
X70638Y-60761D01*
X70523Y-60761D01*
X70485Y-60742D01*
X70466Y-60723D01*
G54D20*
X64164Y-48950D02*
X64022Y-48626D01*
X63920Y-48950D02*
X63920Y-48269D01*
X64083Y-48269D01*
X64123Y-48302D01*
X64144Y-48334D01*
X64164Y-48399D01*
X64164Y-48496D01*
X64144Y-48561D01*
X64123Y-48593D01*
X64083Y-48626D01*
X63920Y-48626D01*
X64592Y-48950D02*
X64450Y-48626D01*
X64348Y-48950D02*
X64348Y-48269D01*
X64511Y-48269D01*
X64551Y-48302D01*
X64572Y-48334D01*
X64592Y-48399D01*
X64592Y-48496D01*
X64572Y-48561D01*
X64551Y-48593D01*
X64511Y-48626D01*
X64348Y-48626D01*
X65000Y-48950D02*
X64755Y-48950D01*
X64878Y-48950D02*
X64878Y-48269D01*
X64837Y-48366D01*
X64796Y-48431D01*
X64755Y-48464D01*
G54D13*
G54D22*
X53810Y-63387D02*
X53810Y-63087D01*
X53881Y-63087D01*
X53924Y-63101D01*
X53952Y-63130D01*
X53967Y-63158D01*
X53981Y-63216D01*
X53981Y-63258D01*
X53967Y-63316D01*
X53952Y-63344D01*
X53924Y-63373D01*
X53881Y-63387D01*
X53810Y-63387D01*
X54095Y-63116D02*
X54110Y-63101D01*
X54138Y-63087D01*
X54210Y-63087D01*
X54238Y-63101D01*
X54252Y-63116D01*
X54267Y-63144D01*
X54267Y-63173D01*
X54252Y-63216D01*
X54081Y-63387D01*
X54267Y-63387D01*
X53638Y-64387D02*
X53495Y-64387D01*
X53495Y-64087D01*
X53738Y-64230D02*
X53838Y-64230D01*
X53881Y-64387D02*
X53738Y-64387D01*
X53738Y-64087D01*
X53881Y-64087D01*
X54010Y-64387D02*
X54010Y-64087D01*
X54081Y-64087D01*
X54124Y-64101D01*
X54152Y-64130D01*
X54167Y-64158D01*
X54181Y-64216D01*
X54181Y-64258D01*
X54167Y-64316D01*
X54152Y-64344D01*
X54124Y-64373D01*
X54081Y-64387D01*
X54010Y-64387D01*
X50188Y-63548D02*
X50188Y-63248D01*
X50259Y-63248D01*
X50302Y-63262D01*
X50330Y-63291D01*
X50345Y-63319D01*
X50359Y-63376D01*
X50359Y-63419D01*
X50345Y-63476D01*
X50330Y-63505D01*
X50302Y-63533D01*
X50259Y-63548D01*
X50188Y-63548D01*
X50645Y-63548D02*
X50473Y-63548D01*
X50559Y-63548D02*
X50559Y-63248D01*
X50530Y-63291D01*
X50502Y-63319D01*
X50473Y-63333D01*
X50316Y-64448D02*
X50173Y-64448D01*
X50173Y-64148D01*
X50416Y-64291D02*
X50516Y-64291D01*
X50559Y-64448D02*
X50416Y-64448D01*
X50416Y-64148D01*
X50559Y-64148D01*
X50688Y-64448D02*
X50688Y-64148D01*
X50759Y-64148D01*
X50802Y-64162D01*
X50830Y-64191D01*
X50845Y-64219D01*
X50859Y-64276D01*
X50859Y-64319D01*
X50845Y-64376D01*
X50830Y-64405D01*
X50802Y-64433D01*
X50759Y-64448D01*
X50688Y-64448D01*
G54D15*
X78669Y-51050D02*
X78716Y-51050D01*
X78764Y-51076D01*
X78788Y-51102D01*
X78811Y-51155D01*
X78835Y-51260D01*
X78835Y-51391D01*
X78811Y-51495D01*
X78788Y-51548D01*
X78764Y-51574D01*
X78716Y-51600D01*
X78669Y-51600D01*
X78621Y-51574D01*
X78597Y-51548D01*
X78573Y-51495D01*
X78550Y-51391D01*
X78550Y-51260D01*
X78573Y-51155D01*
X78597Y-51102D01*
X78621Y-51076D01*
X78669Y-51050D01*
X78669Y-52101D02*
X78716Y-52101D01*
X78764Y-52127D01*
X78788Y-52154D01*
X78811Y-52206D01*
X78835Y-52311D01*
X78835Y-52442D01*
X78811Y-52546D01*
X78788Y-52599D01*
X78764Y-52625D01*
X78716Y-52651D01*
X78669Y-52651D01*
X78621Y-52625D01*
X78597Y-52599D01*
X78573Y-52546D01*
X78550Y-52442D01*
X78550Y-52311D01*
X78573Y-52206D01*
X78597Y-52154D01*
X78621Y-52127D01*
X78669Y-52101D01*
X78692Y-53219D02*
X78740Y-53219D01*
X78787Y-53246D01*
X78811Y-53272D01*
X78835Y-53324D01*
X78859Y-53429D01*
X78859Y-53560D01*
X78835Y-53665D01*
X78811Y-53717D01*
X78787Y-53743D01*
X78740Y-53769D01*
X78692Y-53769D01*
X78645Y-53743D01*
X78621Y-53717D01*
X78597Y-53665D01*
X78573Y-53560D01*
X78573Y-53429D01*
X78597Y-53324D01*
X78621Y-53272D01*
X78645Y-53246D01*
X78692Y-53219D01*
X78684Y-54282D02*
X78732Y-54282D01*
X78780Y-54309D01*
X78803Y-54335D01*
X78827Y-54387D01*
X78851Y-54492D01*
X78851Y-54623D01*
X78827Y-54728D01*
X78803Y-54780D01*
X78780Y-54806D01*
X78732Y-54832D01*
X78684Y-54832D01*
X78637Y-54806D01*
X78613Y-54780D01*
X78589Y-54728D01*
X78565Y-54623D01*
X78565Y-54492D01*
X78589Y-54387D01*
X78613Y-54335D01*
X78637Y-54309D01*
X78684Y-54282D01*
X51560Y-59194D02*
X51579Y-59137D01*
X51579Y-59042D01*
X51560Y-59004D01*
X51541Y-58985D01*
X51503Y-58966D01*
X51464Y-58966D01*
X51426Y-58985D01*
X51407Y-59004D01*
X51388Y-59042D01*
X51369Y-59118D01*
X51350Y-59156D01*
X51331Y-59175D01*
X51293Y-59194D01*
X51255Y-59194D01*
X51217Y-59175D01*
X51198Y-59156D01*
X51179Y-59118D01*
X51179Y-59023D01*
X51198Y-58966D01*
X51179Y-58832D02*
X51579Y-58737D01*
X51293Y-58661D01*
X51579Y-58585D01*
X51179Y-58489D01*
X51579Y-58128D02*
X51579Y-58356D01*
X51579Y-58242D02*
X51179Y-58242D01*
X51236Y-58280D01*
X51274Y-58318D01*
X51293Y-58356D01*
X55614Y-59163D02*
X55424Y-59296D01*
X55614Y-59392D02*
X55214Y-59392D01*
X55214Y-59239D01*
X55233Y-59201D01*
X55252Y-59182D01*
X55290Y-59163D01*
X55347Y-59163D01*
X55386Y-59182D01*
X55405Y-59201D01*
X55424Y-59239D01*
X55424Y-59392D01*
X55405Y-58992D02*
X55405Y-58858D01*
X55614Y-58801D02*
X55614Y-58992D01*
X55214Y-58992D01*
X55214Y-58801D01*
X55595Y-58649D02*
X55614Y-58592D01*
X55614Y-58496D01*
X55595Y-58458D01*
X55576Y-58439D01*
X55538Y-58420D01*
X55500Y-58420D01*
X55462Y-58439D01*
X55443Y-58458D01*
X55424Y-58496D01*
X55405Y-58573D01*
X55386Y-58611D01*
X55367Y-58630D01*
X55328Y-58649D01*
X55290Y-58649D01*
X55252Y-58630D01*
X55233Y-58611D01*
X55214Y-58573D01*
X55214Y-58477D01*
X55233Y-58420D01*
X55405Y-58249D02*
X55405Y-58116D01*
X55614Y-58058D02*
X55614Y-58249D01*
X55214Y-58249D01*
X55214Y-58058D01*
X55214Y-57944D02*
X55214Y-57716D01*
X55614Y-57830D02*
X55214Y-57830D01*
G54D20*
X74037Y-57897D02*
X73894Y-57573D01*
X73792Y-57897D02*
X73792Y-57216D01*
X73955Y-57216D01*
X73996Y-57249D01*
X74017Y-57281D01*
X74037Y-57346D01*
X74037Y-57443D01*
X74017Y-57508D01*
X73996Y-57540D01*
X73955Y-57573D01*
X73792Y-57573D01*
X74465Y-57897D02*
X74322Y-57573D01*
X74220Y-57897D02*
X74220Y-57216D01*
X74383Y-57216D01*
X74424Y-57249D01*
X74445Y-57281D01*
X74465Y-57346D01*
X74465Y-57443D01*
X74445Y-57508D01*
X74424Y-57540D01*
X74383Y-57573D01*
X74220Y-57573D01*
X74628Y-57281D02*
X74648Y-57249D01*
X74689Y-57216D01*
X74791Y-57216D01*
X74832Y-57249D01*
X74852Y-57281D01*
X74873Y-57346D01*
X74873Y-57411D01*
X74852Y-57508D01*
X74608Y-57897D01*
X74873Y-57897D01*
G54D13*
G54D20*
X76336Y-48950D02*
X76194Y-48626D01*
X76092Y-48950D02*
X76092Y-48269D01*
X76255Y-48269D01*
X76295Y-48302D01*
X76316Y-48334D01*
X76336Y-48399D01*
X76336Y-48496D01*
X76316Y-48561D01*
X76295Y-48593D01*
X76255Y-48626D01*
X76092Y-48626D01*
X76764Y-48950D02*
X76622Y-48626D01*
X76520Y-48950D02*
X76520Y-48269D01*
X76683Y-48269D01*
X76723Y-48302D01*
X76744Y-48334D01*
X76764Y-48399D01*
X76764Y-48496D01*
X76744Y-48561D01*
X76723Y-48593D01*
X76683Y-48626D01*
X76520Y-48626D01*
X76907Y-48269D02*
X77172Y-48269D01*
X77029Y-48529D01*
X77090Y-48529D01*
X77131Y-48561D01*
X77151Y-48593D01*
X77172Y-48658D01*
X77172Y-48820D01*
X77151Y-48885D01*
X77131Y-48918D01*
X77090Y-48950D01*
X76968Y-48950D01*
X76927Y-48918D01*
X76907Y-48885D01*
G54D13*
G54D20*
X54799Y-47474D02*
X54118Y-47474D01*
X54118Y-47311D01*
X54150Y-47270D01*
X54183Y-47250D01*
X54247Y-47229D01*
X54345Y-47229D01*
X54410Y-47250D01*
X54442Y-47270D01*
X54474Y-47311D01*
X54474Y-47474D01*
X54799Y-46822D02*
X54799Y-47066D01*
X54799Y-46944D02*
X54118Y-46944D01*
X54215Y-46985D01*
X54280Y-47026D01*
X54312Y-47066D01*
X54118Y-46455D02*
X54118Y-46536D01*
X54150Y-46577D01*
X54183Y-46598D01*
X54280Y-46638D01*
X54410Y-46659D01*
X54669Y-46659D01*
X54734Y-46638D01*
X54766Y-46618D01*
X54799Y-46577D01*
X54799Y-46496D01*
X54766Y-46455D01*
X54734Y-46435D01*
X54669Y-46414D01*
X54507Y-46414D01*
X54442Y-46435D01*
X54410Y-46455D01*
X54377Y-46496D01*
X54377Y-46577D01*
X54410Y-46618D01*
X54442Y-46638D01*
X54507Y-46659D01*
G54D13*
G54D17*
X62712Y-57864D02*
X62712Y-57264D01*
X62864Y-57264D01*
X62902Y-57293D01*
X62921Y-57322D01*
X62940Y-57379D01*
X62940Y-57464D01*
X62921Y-57522D01*
X62902Y-57550D01*
X62864Y-57579D01*
X62712Y-57579D01*
X63112Y-57264D02*
X63112Y-57750D01*
X63131Y-57807D01*
X63150Y-57836D01*
X63188Y-57864D01*
X63264Y-57864D01*
X63302Y-57836D01*
X63321Y-57807D01*
X63340Y-57750D01*
X63340Y-57264D01*
X63721Y-57864D02*
X63531Y-57864D01*
X63531Y-57264D01*
X64045Y-57864D02*
X63855Y-57864D01*
X63855Y-57264D01*
X64178Y-57264D02*
X64178Y-57750D01*
X64197Y-57807D01*
X64216Y-57836D01*
X64255Y-57864D01*
X64331Y-57864D01*
X64369Y-57836D01*
X64388Y-57807D01*
X64407Y-57750D01*
X64407Y-57264D01*
X64597Y-57864D02*
X64597Y-57264D01*
X64750Y-57264D01*
X64788Y-57293D01*
X64807Y-57322D01*
X64826Y-57379D01*
X64826Y-57464D01*
X64807Y-57522D01*
X64788Y-57550D01*
X64750Y-57579D01*
X64597Y-57579D01*
G54D13*
G54D15*
X65054Y-64041D02*
X64887Y-63779D01*
X64768Y-64041D02*
X64768Y-63491D01*
X64959Y-63491D01*
X65006Y-63517D01*
X65030Y-63543D01*
X65054Y-63596D01*
X65054Y-63674D01*
X65030Y-63727D01*
X65006Y-63753D01*
X64959Y-63779D01*
X64768Y-63779D01*
X65292Y-64041D02*
X65387Y-64041D01*
X65435Y-64015D01*
X65459Y-63989D01*
X65506Y-63910D01*
X65530Y-63805D01*
X65530Y-63596D01*
X65506Y-63543D01*
X65483Y-63517D01*
X65435Y-63491D01*
X65340Y-63491D01*
X65292Y-63517D01*
X65268Y-63543D01*
X65244Y-63596D01*
X65244Y-63727D01*
X65268Y-63779D01*
X65292Y-63805D01*
X65340Y-63831D01*
X65435Y-63831D01*
X65483Y-63805D01*
X65506Y-63779D01*
X65530Y-63727D01*
X55538Y-47208D02*
X55538Y-47161D01*
X55564Y-47113D01*
X55591Y-47089D01*
X55643Y-47065D01*
X55748Y-47042D01*
X55879Y-47042D01*
X55983Y-47065D01*
X56036Y-47089D01*
X56062Y-47113D01*
X56088Y-47161D01*
X56088Y-47208D01*
X56062Y-47256D01*
X56036Y-47280D01*
X55983Y-47304D01*
X55879Y-47327D01*
X55748Y-47327D01*
X55643Y-47304D01*
X55591Y-47280D01*
X55564Y-47256D01*
X55538Y-47208D01*
G54D18*
X68218Y-58874D02*
X67932Y-58874D01*
X68075Y-58874D02*
X68075Y-58424D01*
X68028Y-58488D01*
X67980Y-58531D01*
X67932Y-58552D01*
X68528Y-58424D02*
X68575Y-58424D01*
X68623Y-58445D01*
X68647Y-58467D01*
X68671Y-58509D01*
X68694Y-58595D01*
X68694Y-58702D01*
X68671Y-58788D01*
X68647Y-58831D01*
X68623Y-58852D01*
X68575Y-58874D01*
X68528Y-58874D01*
X68480Y-58852D01*
X68456Y-58831D01*
X68432Y-58788D01*
X68409Y-58702D01*
X68409Y-58595D01*
X68432Y-58509D01*
X68456Y-58467D01*
X68480Y-58445D01*
X68528Y-58424D01*
X68909Y-58874D02*
X68909Y-58424D01*
X69075Y-58745D01*
X69242Y-58424D01*
X69242Y-58874D01*
X69480Y-58874D02*
X69480Y-58424D01*
X69480Y-58638D02*
X69766Y-58638D01*
X69766Y-58874D02*
X69766Y-58424D01*
X69956Y-58574D02*
X70218Y-58574D01*
X69956Y-58874D01*
X70218Y-58874D01*
X70671Y-58874D02*
X70385Y-58874D01*
X70528Y-58874D02*
X70528Y-58424D01*
X70480Y-58488D01*
X70432Y-58531D01*
X70385Y-58552D01*
X68175Y-57324D02*
X68152Y-57345D01*
X68080Y-57367D01*
X68033Y-57367D01*
X67961Y-57345D01*
X67914Y-57302D01*
X67890Y-57260D01*
X67866Y-57174D01*
X67866Y-57110D01*
X67890Y-57024D01*
X67914Y-56981D01*
X67961Y-56938D01*
X68033Y-56917D01*
X68080Y-56917D01*
X68152Y-56938D01*
X68175Y-56960D01*
X68675Y-57367D02*
X68509Y-57152D01*
X68390Y-57367D02*
X68390Y-56917D01*
X68580Y-56917D01*
X68628Y-56938D01*
X68652Y-56960D01*
X68675Y-57002D01*
X68675Y-57067D01*
X68652Y-57110D01*
X68628Y-57131D01*
X68580Y-57152D01*
X68390Y-57152D01*
X68985Y-57152D02*
X68985Y-57367D01*
X68818Y-56917D02*
X68985Y-57152D01*
X69152Y-56917D01*
X69294Y-57345D02*
X69366Y-57367D01*
X69485Y-57367D01*
X69533Y-57345D01*
X69556Y-57324D01*
X69580Y-57281D01*
X69580Y-57238D01*
X69556Y-57195D01*
X69533Y-57174D01*
X69485Y-57152D01*
X69390Y-57131D01*
X69342Y-57110D01*
X69318Y-57088D01*
X69294Y-57045D01*
X69294Y-57002D01*
X69318Y-56960D01*
X69342Y-56938D01*
X69390Y-56917D01*
X69509Y-56917D01*
X69580Y-56938D01*
X69723Y-56917D02*
X70009Y-56917D01*
X69866Y-57367D02*
X69866Y-56917D01*
X70152Y-57238D02*
X70390Y-57238D01*
X70104Y-57367D02*
X70271Y-56917D01*
X70437Y-57367D01*
X70842Y-57367D02*
X70604Y-57367D01*
X70604Y-56917D01*
G54D15*
X78817Y-63641D02*
X78817Y-63602D01*
X78836Y-63564D01*
X78855Y-63545D01*
X78893Y-63526D01*
X78969Y-63507D01*
X79064Y-63507D01*
X79140Y-63526D01*
X79178Y-63545D01*
X79197Y-63564D01*
X79217Y-63602D01*
X79217Y-63641D01*
X79197Y-63679D01*
X79178Y-63698D01*
X79140Y-63717D01*
X79064Y-63736D01*
X78969Y-63736D01*
X78893Y-63717D01*
X78855Y-63698D01*
X78836Y-63679D01*
X78817Y-63641D01*
M02*
